<svg width="792" height="900" viewBox="0 0 792 900" fill="none" xmlns="http://www.w3.org/2000/svg">
<g clip-path="url(#clip0_190_1903)">
<path d="M0 45.4545C0 20.3507 19.7543 0 44.1226 0H792V900H44.1226C19.7543 900 0 879.649 0 854.545V45.4545Z" fill="url(#paint0_linear_190_1903)"/>
<path d="M369.818 308.257C370.265 308.311 370.683 308.062 371.074 307.925C371.855 307.676 372.665 307.482 373.447 307.261C373.949 307.095 374.48 307.012 374.983 306.874C375.568 306.708 376.211 306.652 376.797 306.459C377.328 306.266 377.915 306.154 378.5 306.127C379.394 306.071 380.231 305.768 381.124 305.795C381.432 305.795 381.6 305.657 381.655 305.38C381.879 304.109 382.465 303.003 383.19 302.008C384.419 300.32 386.011 299.076 387.993 298.358C389.5 297.804 391.008 297.667 392.6 297.75C393.688 297.804 394.693 298.082 395.698 298.441C396.564 298.744 397.317 299.27 398.016 299.851C398.853 300.569 399.746 301.261 400.249 302.284C400.669 303.113 401.17 303.887 401.311 304.828C401.394 305.326 401.645 305.657 402.232 305.74C402.901 305.823 403.599 305.934 404.298 306.044C405.833 306.293 407.341 306.652 408.849 306.984C410.188 307.288 411.501 307.676 412.813 308.091C414.46 308.616 416.079 309.169 417.699 309.75C418.647 310.082 419.57 310.496 420.491 310.911C421.886 311.492 423.282 312.073 424.623 312.736C425.795 313.316 426.968 313.869 428.113 314.533C428.978 315.03 429.9 315.528 430.765 316.026C431.072 316.192 431.323 316.496 431.686 316.579C431.742 316.662 431.853 316.662 431.937 316.634C431.993 316.966 432.3 316.938 432.495 317.021C432.495 317.215 432.635 317.187 432.775 317.187C432.971 317.492 433.277 317.685 433.64 317.741C433.696 318.044 433.919 318.044 434.171 318.044C434.171 318.293 434.338 318.293 434.506 318.293C434.534 318.404 434.59 318.487 434.701 318.542C435.651 319.178 436.6 319.842 437.549 320.505C437.968 320.809 438.33 321.196 438.833 321.418L438.861 321.473L438.917 321.445C438.945 321.584 439.056 321.638 439.169 321.638H439.196C439.28 321.943 439.448 322.192 439.811 322.192C440.09 322.579 440.425 322.938 440.899 323.104C440.899 323.27 441.011 323.298 441.151 323.27C441.179 323.463 441.319 323.575 441.514 323.575C441.485 323.768 441.598 323.824 441.765 323.795C442.295 324.515 442.993 325.012 443.748 325.483C443.914 325.898 444.306 326.091 444.612 326.395C445.004 326.754 445.199 327.279 445.617 327.528C445.953 327.721 446.204 327.999 446.483 328.219C446.483 328.302 446.511 328.33 446.595 328.302C446.567 328.496 446.706 328.579 446.819 328.717C447.488 329.463 448.354 330.017 448.996 330.791C449.107 330.902 449.164 331.068 449.359 331.068C449.386 331.371 449.582 331.51 449.833 331.593C449.833 331.759 449.945 331.842 450.028 331.952C450.615 332.671 451.201 333.362 451.788 334.054C452.094 334.413 452.291 334.828 452.681 335.104L452.709 335.132C452.709 335.326 452.765 335.436 452.96 335.436C452.96 335.602 452.988 335.741 453.212 335.712C453.239 335.795 453.267 335.878 453.323 335.961C453.38 336.266 453.519 336.459 453.826 336.57L453.881 336.542C453.881 336.542 453.854 336.57 453.826 336.57C454.244 337.427 454.775 338.174 455.446 338.837C455.417 338.976 455.501 339.113 455.557 339.225C456.255 340.109 456.757 341.133 457.399 342.073C457.678 342.459 457.762 342.985 458.237 343.261L458.265 343.288C458.321 343.703 458.433 344.118 458.851 344.34C458.879 344.782 459.075 345.142 459.438 345.418C459.494 345.86 459.66 346.248 460.024 346.524C460.191 347.353 460.694 348.045 461.084 348.763C461.084 348.791 461.113 348.791 461.141 348.791L461.113 348.819L461.141 348.846C461.168 349.261 461.336 349.649 461.644 349.925C461.615 350.091 461.671 350.257 461.755 350.395C462.007 351.059 462.257 351.694 462.592 352.33C462.565 352.552 462.788 352.662 462.844 352.855C462.928 353.187 463.151 353.741 463.318 353.962C463.318 354.073 463.318 354.156 463.402 354.238C463.374 354.432 463.374 354.626 463.458 354.763C463.709 355.234 463.821 355.732 463.989 356.229C464.295 357.169 464.631 358.109 464.91 359.077C465.161 359.962 465.468 360.846 465.663 361.759C465.747 362.174 465.859 362.617 465.999 363.003C466.334 363.916 466.502 364.855 466.697 365.768C466.865 366.487 466.976 367.261 467.115 367.98C467.311 369.115 467.534 370.275 467.618 371.436C467.645 371.631 467.618 371.824 467.841 371.99C468.371 372.377 468.874 372.846 469.544 373.041C469.544 373.178 469.628 373.234 469.74 373.29C471.163 374.202 472.252 375.418 473.202 376.801C474.318 378.377 474.989 380.119 475.184 382.027C475.268 382.718 475.463 383.382 475.379 384.073C475.211 385.455 475.1 386.837 474.653 388.193C474.179 389.658 473.397 390.93 472.448 392.119C471.331 393.529 469.907 394.579 468.176 395.216C467.562 395.437 467.227 395.852 467.366 396.516C467.004 398.092 466.752 399.695 466.305 401.271C466.055 402.155 465.831 403.041 465.636 403.926C465.384 404.949 465.078 405.971 464.715 406.967C464.463 407.686 464.239 408.377 464.016 409.096C463.737 410.009 463.402 410.893 463.039 411.778C462.453 413.216 461.839 414.626 461.225 416.036C460.247 418.249 459.27 420.433 457.986 422.478C457.902 422.617 457.818 422.755 457.846 422.921C457.231 423.391 456.952 424.11 456.534 424.718C456.394 424.94 456.059 425.105 456.199 425.465C455.809 425.713 455.194 426.654 455.083 427.096L455.054 427.124C454.72 427.318 454.44 427.538 454.301 427.898C454.217 428.119 454.077 428.285 453.938 428.451C452.933 429.64 451.983 430.884 450.922 432.045C449.973 433.096 449.052 434.23 448.103 435.28C447.572 435.861 446.986 436.386 446.456 436.967C445.032 438.46 443.44 439.76 441.877 441.115C440.759 442.083 439.559 442.995 438.359 443.879C438.135 444.045 437.829 444.211 437.716 444.516C437.549 444.46 437.466 444.599 437.353 444.682C436.656 445.179 435.985 445.733 435.287 446.231C433.585 447.446 431.798 448.498 430.011 449.549C428.531 450.433 426.995 451.235 425.432 451.953C424.148 452.534 422.892 453.143 421.579 453.695C420.267 454.249 418.928 454.774 417.587 455.271C416.917 455.52 416.247 455.798 415.521 455.963C415.075 456.074 414.655 456.267 414.209 456.378C413.455 456.599 412.673 456.82 411.92 457.041C411.444 457.179 410.942 457.318 410.439 457.428C409.77 457.567 409.128 457.787 408.457 457.926C407.872 458.036 407.257 458.065 406.699 458.258C405.973 458.507 405.164 458.313 404.493 458.7C403.544 458.617 402.678 459.004 401.729 459.004C401.533 459.004 401.282 458.977 401.227 459.253C401.143 459.198 401.059 459.198 400.948 459.253C400.388 459.143 399.83 459.253 399.3 459.28C398.435 459.336 397.596 459.585 396.703 459.558C396.145 459.529 395.587 459.585 395.029 459.641C394.861 459.641 394.638 459.612 394.526 459.834C394.442 459.778 394.358 459.778 394.246 459.834C393.884 459.558 393.745 459.558 393.382 459.834C393.185 459.778 393.019 459.778 392.822 459.834C392.739 459.695 392.627 459.668 392.543 459.834C392.46 459.778 392.376 459.778 392.292 459.834C391.985 459.529 391.901 459.529 391.706 459.834C391.427 459.834 391.176 459.834 390.896 459.834C390.534 459.529 389.823 459.834 389.823 459.834H389.78C389.78 459.834 389.277 459.612 389.026 459.585C388.356 459.558 387.685 459.585 387.016 459.558C386.402 459.529 385.731 459.612 385.145 459.446C384.279 459.226 383.414 459.253 382.548 459.28C382.465 459.226 382.353 459.226 382.269 459.253C382.242 459.06 382.074 459.004 381.907 458.977C380.818 458.838 379.729 458.645 378.64 458.451C377.328 458.231 376.015 457.953 374.731 457.65C373.586 457.373 372.47 457.096 371.325 456.82C370.209 456.543 369.12 456.24 368.059 455.852C366.83 455.41 365.546 455.051 364.346 454.525C363.061 454 361.749 453.502 360.493 452.894C359.18 452.258 357.869 451.594 356.556 450.93C355.411 450.323 354.295 449.686 353.206 449.05C351.977 448.332 350.777 447.558 349.576 446.783C348.403 446.036 347.231 445.262 346.142 444.405C345.584 443.962 345.026 443.493 344.439 443.05C342.932 441.89 341.535 440.59 340.056 439.401C338.605 438.211 337.292 436.857 335.979 435.529C334.891 434.424 333.802 433.345 332.797 432.128C331.541 430.608 330.396 429.004 329.252 427.401C329.168 427.29 329.139 427.152 328.944 427.179L328.916 427.152C328.944 426.931 328.86 426.765 328.692 426.599C328.413 426.267 328.191 425.908 327.939 425.548C326.794 423.944 325.817 422.202 324.812 420.516C323.472 418.249 322.355 415.87 321.322 413.465C320.904 412.469 320.541 411.446 320.122 410.424C319.507 408.93 318.949 407.382 318.53 405.806C318.475 405.64 318.391 405.529 318.251 405.419C318.28 405.308 318.251 405.225 318.223 405.142C318.251 404.59 317.999 404.092 317.833 403.566C317.581 402.682 317.33 401.796 317.162 400.911C317.051 400.276 316.883 399.667 316.743 399.059C316.604 398.285 316.436 397.483 316.296 396.709C316.073 395.492 315.822 394.276 315.683 393.059C315.654 392.866 315.543 392.727 315.431 392.561C315.487 392.312 315.459 392.091 315.404 391.87C315.515 391.234 315.236 390.653 315.208 390.045C315.096 388.11 315.069 386.202 314.985 384.267C314.928 382.413 314.901 380.561 315.096 378.709C315.236 377.492 315.096 376.22 315.375 375.003C315.459 374.7 315.459 374.368 315.375 374.036C315.431 373.842 315.459 373.649 315.404 373.483C315.599 373.095 315.654 372.709 315.654 372.266C315.683 371.602 315.654 370.938 315.906 370.303C315.99 370.109 315.99 369.861 315.933 369.612C315.99 369.474 315.99 369.335 315.962 369.169C316.046 369.059 316.157 368.949 316.185 368.837C316.214 368.229 316.409 367.649 316.52 367.041C316.715 365.934 316.995 364.884 317.246 363.805C317.386 363.169 317.637 362.534 317.609 361.87C317.665 361.787 317.665 361.704 317.636 361.593C317.86 361.51 317.86 361.317 317.888 361.124C317.916 360.929 317.916 360.763 317.999 360.57C318.307 359.796 318.475 358.994 318.698 358.22C319.061 356.92 319.507 355.649 319.954 354.404C320.428 353.133 320.959 351.86 321.489 350.616C322.244 348.929 323.025 347.243 323.863 345.584C324.17 344.976 324.533 344.395 324.868 343.815C325.204 343.234 325.566 342.653 325.929 342.073C326.292 341.492 326.655 340.884 327.073 340.33C327.465 339.805 327.744 339.196 328.191 338.699C328.581 338.257 328.86 337.703 329.223 337.261C329.586 336.819 329.81 336.321 330.2 335.878C330.591 335.463 330.954 334.938 331.289 334.441C331.652 333.916 332.21 333.501 332.434 332.865C332.629 332.837 332.713 332.754 332.686 332.561C332.992 332.478 333.132 332.257 333.244 331.952C333.607 331.786 333.802 331.483 333.97 331.178C334.11 331.095 334.276 331.068 334.276 330.874C334.528 330.598 334.779 330.293 335.031 330.017C335.198 329.878 335.449 329.768 335.477 329.492C335.673 329.492 335.729 329.381 335.757 329.215C336.063 329.187 336.119 328.911 336.231 328.717C336.371 328.662 336.566 328.634 336.539 328.413L336.566 328.385C336.845 328.385 336.901 328.136 337.013 327.943C337.487 327.584 337.934 327.252 338.241 326.727C338.437 326.727 338.521 326.616 338.576 326.45C339.05 326.174 339.414 325.786 339.721 325.371C339.916 325.4 339.972 325.234 340 325.095C340.307 325.04 340.503 324.846 340.614 324.57C341.061 324.404 341.397 324.1 341.619 323.712C341.815 323.741 341.871 323.602 341.898 323.436C342.289 323.27 342.597 322.994 342.903 322.717C343.127 322.524 343.463 322.441 343.545 322.082C343.713 322.082 343.853 322.053 343.825 321.833C344.021 321.804 344.188 321.777 344.216 321.528H344.244C344.579 321.445 344.83 321.252 344.998 320.948C345.193 320.975 345.305 320.865 345.361 320.699C345.695 320.616 345.974 320.45 346.114 320.118C346.254 320.118 346.45 320.145 346.366 319.896C346.477 319.952 346.561 319.898 346.617 319.842C346.924 319.786 347.147 319.62 347.259 319.317C347.455 319.317 347.566 319.234 347.593 319.04C347.761 319.012 347.956 319.012 347.985 318.763L348.013 318.736C348.376 318.68 348.6 318.459 348.822 318.21C348.962 318.183 349.185 318.238 349.158 317.99C349.604 317.795 350.022 317.602 350.274 317.16C350.832 317.077 351.251 316.717 351.67 316.358C351.922 316.302 352.172 316.275 352.229 315.999C352.256 316.026 352.285 316.026 352.312 315.97C352.48 315.97 352.675 315.97 352.703 315.75L352.732 315.721C352.898 315.721 353.094 315.75 353.15 315.501C353.233 315.555 353.261 315.501 353.29 315.445C353.596 315.335 353.904 315.224 354.099 314.92C354.183 314.92 354.295 314.92 354.378 314.865C354.853 314.588 355.327 314.311 355.83 314.035C355.998 314.062 356.165 314.035 356.165 313.813C356.417 313.786 356.667 313.842 356.78 313.51C356.864 313.537 356.919 313.51 356.946 313.454C357.143 313.482 357.282 313.427 357.309 313.233C357.393 313.261 357.449 313.261 357.506 313.205C357.673 313.233 357.812 313.178 357.84 312.984C358.036 312.957 358.315 313.067 358.399 312.763C358.594 312.68 358.873 312.763 358.985 312.487H359.041L359.069 312.432C359.153 312.404 359.264 312.376 359.348 312.349C359.515 312.349 359.711 312.376 359.738 312.127C359.795 312.1 359.851 312.1 359.906 312.073C360.018 312.1 360.157 312.073 360.241 311.99C360.353 311.934 360.493 311.851 360.604 311.795C360.799 311.824 360.939 311.741 360.967 311.546C361.051 311.575 361.107 311.575 361.162 311.519C361.581 311.463 361.944 311.326 362.251 311.021C362.586 311.021 362.838 310.828 363.117 310.69C363.285 310.69 363.48 310.717 363.507 310.468C363.675 310.496 363.815 310.441 363.954 310.385C364.15 310.413 364.289 310.358 364.317 310.165C364.43 310.219 364.541 310.165 364.652 310.109C364.736 310.109 364.82 310.109 364.82 309.999C364.931 310.026 364.988 309.943 365.043 309.86C365.239 309.833 365.294 309.777 365.573 309.638C365.63 309.611 365.686 309.611 365.741 309.584C365.936 309.555 366.188 309.667 366.272 309.362C366.383 309.418 366.467 309.335 366.579 309.307C366.802 309.307 366.997 309.335 367.081 309.058C367.165 309.086 367.221 309.086 367.277 309.03C367.472 309.03 367.723 309.113 367.807 308.809C367.919 308.782 368.002 308.782 368.115 308.754C368.31 308.754 368.562 308.837 368.645 308.533C368.757 308.505 368.841 308.505 368.952 308.477C369.147 308.477 369.399 308.56 369.483 308.257C369.538 308.311 369.678 308.284 369.818 308.257ZM362.084 437.686C361.861 437.382 361.525 437.271 361.191 437.161C361.162 437.105 361.107 437.105 361.078 437.133C361.051 437.078 361.051 436.967 360.995 436.94C360.046 436.332 359.125 435.751 358.148 435.17C356.583 434.231 355.02 433.235 353.596 432.101C353.122 431.713 352.703 431.271 352.117 431.05C352.117 430.94 352.061 430.857 351.95 430.774C351.335 430.249 350.749 429.723 350.163 429.198C348.879 428.063 347.706 426.792 346.505 425.603L346.477 425.576C345.891 424.857 345.305 424.166 344.663 423.502C344.579 423.391 344.523 423.28 344.355 423.308C344.327 423.225 344.355 423.115 344.3 423.059C343.853 422.534 343.434 422.036 342.96 421.538C342.68 421.234 342.373 421.262 342.15 421.594C342.01 421.815 341.815 422.009 341.619 422.229C340.837 423.059 339.889 423.695 339.079 424.498C338.939 424.635 338.66 424.718 338.687 424.995C338.269 425.133 337.99 425.465 337.627 425.713C337.376 425.879 337.181 426.074 336.845 426.128C335.979 426.294 334.891 425.271 335.058 424.359C335.142 423.917 335.394 423.585 335.7 423.336C336.342 422.756 337.013 422.202 337.682 421.677C338.716 420.875 339.749 420.018 340.753 419.161C340.921 419.023 341.005 418.857 340.837 418.635C340.726 418.498 340.67 418.303 340.558 418.166C339.86 417.28 339.218 416.341 338.687 415.345C337.99 414.101 337.403 412.801 336.678 411.585C335.812 410.146 335.142 408.653 334.444 407.133C333.718 405.612 333.16 404.036 332.573 402.46C332.323 401.796 332.126 401.133 331.931 400.442C331.792 399.916 331.597 399.418 331.429 398.893C331.205 398.146 331.01 397.4 330.871 396.653C330.759 396.155 330.703 395.658 330.563 395.188C330.34 394.442 330.228 393.667 330.117 392.92C330.033 392.505 330.005 392.063 329.921 391.621C329.81 391.068 329.754 391.013 329.223 391.179C328.581 391.373 327.939 391.317 327.297 391.29C326.626 391.262 325.984 390.985 325.51 390.626C324.673 390.018 324.226 389.105 323.975 388.11C323.779 387.252 323.667 386.395 323.696 385.51C323.723 384.985 323.667 384.985 323.137 384.985C321.741 384.985 320.345 384.985 318.949 384.985C318.362 384.985 318.362 384.985 318.362 385.566C318.335 387.28 318.698 388.967 318.698 390.653C318.698 390.709 318.725 390.736 318.725 390.792C318.977 391.87 318.949 392.976 319.144 394.082C319.284 394.828 319.507 395.548 319.535 396.321C319.535 396.433 319.619 396.543 319.731 396.599C319.675 397.068 319.703 397.511 319.843 397.953C320.065 398.59 320.065 399.252 320.289 399.888C320.485 400.525 320.596 401.188 320.736 401.824C320.904 402.682 321.183 403.511 321.406 404.341C321.657 405.28 322.048 406.193 322.328 407.133C322.328 407.188 322.439 407.188 322.494 407.216C322.439 407.409 322.494 407.575 322.551 407.741C323.025 408.985 323.472 410.258 324.002 411.474C324.701 413.133 325.426 414.765 326.208 416.368C326.906 417.805 327.688 419.188 328.47 420.57C329.754 422.866 331.262 424.995 332.881 427.069C333.718 428.146 334.555 429.253 335.421 430.303C335.979 430.995 336.65 431.603 337.264 432.24C338.939 434.036 340.67 435.805 342.513 437.41C345.248 439.843 348.18 442.054 351.224 444.101C353.764 445.843 356.361 447.502 359.18 448.746C359.711 448.995 360.214 449.382 360.828 449.41C361.107 449.742 361.47 449.908 361.888 449.935C362.084 450.045 362.28 450.184 362.503 450.267C364.317 450.958 366.076 451.704 367.947 452.285C368.925 452.59 369.901 452.977 370.878 453.309C372.247 453.778 373.67 454.11 375.066 454.47C375.541 454.58 376.015 454.636 376.49 454.774C377.188 454.995 377.942 455.078 378.668 455.217C379.394 455.354 380.147 455.437 380.845 455.603C381.85 455.825 382.856 455.908 383.861 456.018C385.48 456.184 387.071 456.35 388.719 456.378C392.125 456.433 395.503 456.377 398.882 456.046C399.049 456.018 399.216 456.018 399.356 455.963C399.859 455.825 400.361 455.798 400.864 455.769C401.925 455.742 402.985 455.52 404.046 455.354C404.604 455.271 405.164 455.244 405.693 455.106C406.307 454.94 406.894 454.802 407.509 454.663C408.457 454.442 409.407 454.276 410.356 454C411.696 453.612 413.009 453.198 414.292 452.728C416.163 452.092 418.005 451.401 419.849 450.654C422.696 449.52 425.376 448.055 428.029 446.59C429.816 445.594 431.63 444.599 433.305 443.354C435.343 441.861 437.353 440.313 439.335 438.737C439.727 438.433 440.257 438.267 440.396 437.713C440.843 437.576 441.151 437.244 441.485 436.94C442.882 435.723 444.11 434.368 445.422 433.069C446.623 431.879 447.683 430.58 448.772 429.28C449.331 428.617 449.945 427.953 450.391 427.207C450.42 427.152 450.42 427.124 450.448 427.069C450.588 427.013 450.672 426.93 450.754 426.82C451.146 426.211 451.564 425.63 451.983 425.023C453.017 423.529 454.022 422.036 454.915 420.46C455.92 418.718 456.786 416.921 457.623 415.096C457.875 414.543 458.488 413.271 458.488 413.271C458.935 412.166 459.41 411.059 459.884 409.953C460.08 409.455 460.331 408.958 460.47 408.433C460.722 407.409 461.084 406.442 461.42 405.446C461.81 404.341 462.062 403.207 462.397 402.101C462.536 401.658 462.955 399.75 462.955 399.75C463.095 398.7 463.43 397.704 463.626 396.682C463.821 395.52 464.1 394.359 464.155 393.142C464.155 393.059 464.184 392.949 464.184 392.866C464.436 391.345 464.686 389.824 464.715 388.303C464.715 387.971 464.658 387.64 464.77 387.335C464.965 386.783 464.937 386.202 464.937 385.621C464.937 384.958 464.91 384.958 464.295 384.958C462.928 384.929 461.56 384.929 460.191 384.929C459.744 384.929 459.717 384.958 459.717 385.4C459.717 385.51 459.717 385.621 459.744 385.732C459.773 387.003 459.494 388.22 458.879 389.326C458.517 389.99 458.014 390.626 457.344 390.902C456.367 391.317 455.306 391.428 454.244 391.068C453.91 390.958 453.602 391.068 453.602 391.373C453.602 391.926 453.296 392.395 453.323 392.92C453.323 393.612 453.1 394.248 452.96 394.857C452.736 395.796 452.541 396.765 452.262 397.704C451.983 398.673 451.732 399.64 451.452 400.579C451.285 401.106 450.588 403.151 450.588 403.151C450.196 404.341 449.694 405.474 449.247 406.635C449.164 406.662 448.661 407.824 448.633 407.935C448.522 408.487 448.186 408.985 447.935 409.483C447.041 411.253 446.093 412.995 445.032 414.709C444.333 415.815 443.635 416.921 442.909 418.027C442.714 418.303 442.686 418.635 442.491 418.884C442.435 418.967 442.435 419.078 442.519 419.133C442.938 419.299 443.133 419.769 443.524 419.935C443.887 420.101 444.194 420.35 444.473 420.57C445.478 421.373 446.399 422.258 447.433 423.004C447.767 423.253 448.075 423.529 448.27 423.888C448.549 424.415 448.438 425.382 447.656 425.852C447.098 426.211 446.148 426.157 445.674 425.659C445.367 425.354 445.087 425.05 444.669 424.912C444.669 424.829 444.669 424.718 444.585 424.663C443.467 423.723 442.491 422.617 441.401 421.621C440.62 420.903 440.62 420.902 440.034 421.787C439.419 422.507 438.443 423.668 437.856 424.386C437.856 424.386 436.684 425.686 436.543 425.852C433.835 428.81 430.737 431.299 427.554 433.704C425.46 435.308 423.142 436.58 420.854 437.852C419.457 438.626 417.978 439.262 416.47 439.87C415.27 440.368 414.041 440.811 412.841 441.309C411.668 441.805 410.439 442.193 409.212 442.552C408.011 442.884 406.81 443.188 405.61 443.493C404.019 443.908 402.399 444.211 400.78 444.433C399.775 444.599 398.714 444.626 397.68 444.709C396.34 444.82 395.001 444.765 393.632 444.848C392.125 444.958 390.617 445.013 389.11 444.903C388.132 444.82 387.155 444.82 386.206 444.765C385.061 444.709 383.973 444.46 382.828 444.377C382.297 444.323 381.711 444.267 381.181 444.101C380.399 443.852 379.589 443.852 378.808 443.659C378.137 443.493 377.468 443.327 376.797 443.188C376.015 443.023 375.262 442.746 374.48 442.581C373.699 442.386 372.944 442.11 372.163 441.917C371.186 441.641 370.265 441.253 369.343 440.866C368.365 440.424 367.333 440.119 366.383 439.621C365.686 439.262 364.988 438.848 364.178 438.709C364.15 438.377 363.815 438.405 363.62 438.323C363.173 438.074 362.782 437.742 362.251 437.659L362.223 437.603L362.084 437.686ZM468.204 388.386C468.148 389.105 467.953 390.682 467.702 391.373C467.646 391.511 467.59 391.732 467.757 391.815C467.925 391.898 468.092 391.815 468.232 391.649C468.539 391.317 468.874 391.041 469.181 390.709C469.935 389.879 470.577 388.967 470.968 387.916C471.024 387.833 471.024 387.723 471.024 387.64C471.387 387.198 471.471 386.671 471.555 386.146C471.61 385.842 471.61 385.566 471.666 385.261C471.889 384.211 471.918 383.16 471.555 382.137C471.555 381.916 471.526 381.667 471.526 381.446C471.415 380.754 471.136 380.119 470.857 379.483C470.437 378.57 469.823 377.796 469.265 376.967C468.958 376.525 468.65 376.027 468.008 375.916C467.925 376.413 468.148 378.128 468.148 378.128C468.26 380.727 468.204 383.326 468.204 385.925C468.204 386.727 468.204 387.557 468.204 388.386ZM391.566 316.883C389.835 316.883 388.132 316.883 386.402 316.883C385.955 316.883 385.508 316.883 385.089 316.883C384.782 316.883 384.531 316.717 384.503 316.468C384.447 315.97 384.308 315.445 384.615 315.003C384.81 314.699 384.782 314.56 384.503 314.34C383.916 313.813 383.331 313.261 382.884 312.598C382.269 311.712 381.766 310.773 381.544 309.721C381.404 309.141 381.32 309.086 380.734 309.169C380.623 309.169 380.51 309.224 380.399 309.224C379.7 309.39 379.003 309.528 378.305 309.694C377.384 309.916 376.462 310.109 375.541 310.33C374.62 310.579 373.67 310.828 372.749 311.104C371.995 311.353 371.213 311.546 370.46 311.824C369.846 312.017 369.259 312.238 368.645 312.459C367.528 312.846 366.412 313.233 365.294 313.676C364.317 314.062 363.341 314.56 362.364 314.948C360.799 315.555 359.264 316.302 357.756 317.049C356.333 317.768 354.937 318.542 353.569 319.344C351.614 320.533 349.716 321.75 347.901 323.132C346.477 324.21 345.165 325.427 343.797 326.561C341.647 328.385 339.61 330.321 337.655 332.367C336.705 333.335 335.812 334.358 335.002 335.436C334.192 336.487 333.271 337.454 332.462 338.533C331.847 339.335 331.345 340.22 330.675 340.994C330.424 341.27 330.368 341.685 329.949 341.851C329.726 342.902 328.916 343.62 328.442 344.505C327.549 346.137 326.543 347.685 325.762 349.344C325.286 350.367 324.868 351.418 324.421 352.469C324.059 353.353 323.639 354.238 323.333 355.178C322.97 356.34 322.467 357.474 322.104 358.635C321.769 359.658 321.378 360.653 321.127 361.676C320.764 363.032 320.428 364.358 320.178 365.741C320.094 366.266 320.038 366.792 319.87 367.29C319.619 368.146 319.507 369.032 319.396 369.916C319.284 370.745 319.172 371.602 319.033 372.432C318.838 373.427 318.922 374.451 318.614 375.418C318.642 377.409 318.335 379.373 318.335 381.335C318.335 381.833 318.28 381.888 318.865 381.888C320.094 381.888 321.322 381.888 322.551 381.888C323.583 381.888 323.639 381.888 323.612 380.866C323.612 379.842 323.891 378.875 324.31 377.962C324.896 376.635 326.041 376.054 327.409 375.806C327.576 375.778 327.828 375.75 327.967 375.833C328.33 376.027 328.721 375.999 329.112 376.082C329.615 376.193 329.754 376.11 329.81 375.64C329.921 374.866 330.033 374.091 330.061 373.317C330.089 372.543 330.228 371.768 330.424 370.994C330.647 370.027 330.899 369.032 331.094 368.063C331.289 367.178 331.513 366.266 331.792 365.409C332.183 364.109 332.629 362.81 333.076 361.538C333.746 359.602 334.555 357.75 335.421 355.898C336.342 353.962 337.431 352.109 338.576 350.284C339.163 349.344 339.832 348.46 340.503 347.575C340.782 347.187 340.81 346.967 340.531 346.828C339.916 346.496 339.469 345.971 338.939 345.584C337.739 344.727 336.705 343.703 335.589 342.791C335.058 342.349 334.863 341.243 335.17 340.635C335.645 339.667 337.124 339.557 337.795 340.22C339.023 341.436 340.335 342.57 341.619 343.703C341.926 343.981 342.177 344.505 342.569 344.478C342.96 344.423 343.211 343.925 343.463 343.593C344.746 341.961 346.198 340.496 347.65 339.003C349.911 336.708 352.34 334.634 354.853 332.644C356.137 331.62 357.561 330.736 358.957 329.851C360.297 329.021 361.638 328.136 363.089 327.445C365.239 326.395 367.389 325.371 369.65 324.542C371.409 323.878 373.196 323.27 375.01 322.717C375.289 322.634 375.541 322.468 375.848 322.413C376.49 322.302 377.132 322.082 377.802 321.97C378.333 321.86 378.863 321.694 379.421 321.638C380.12 321.528 380.845 321.39 381.516 321.252C382.437 321.058 383.358 320.948 384.252 320.837C385.955 320.616 387.658 320.45 389.389 320.477C390.785 320.505 392.18 320.477 393.577 320.477C395.448 320.45 397.29 320.699 399.132 320.837C399.188 320.837 399.272 320.837 399.328 320.865C400.306 321.169 401.338 321.169 402.343 321.335C403.069 321.445 403.823 321.555 404.52 321.721C405.777 321.999 407.033 322.302 408.262 322.69C409.267 322.994 410.3 323.298 411.278 323.658C412.785 324.21 414.236 324.819 415.717 325.483C418.341 326.671 420.881 328.053 423.366 329.492C424.595 330.21 425.768 331.012 426.94 331.815C427.918 332.478 428.866 333.225 429.816 333.943C432.608 336.044 435.176 338.395 437.549 340.938C438.443 341.907 439.253 342.929 440.062 343.952C440.592 344.644 440.732 344.644 441.374 344.063C442.156 343.371 442.909 342.625 443.691 341.934C444.417 341.326 445.087 340.635 445.896 340.109C446.259 339.888 447.237 339.833 447.6 340.054C448.493 340.607 448.661 341.824 447.907 342.542C447.125 343.288 446.288 343.925 445.422 344.561C444.501 345.225 443.691 346.026 442.825 346.745C442.546 346.967 442.575 347.16 442.77 347.436C443.188 348.017 443.608 348.626 443.97 349.234C445.533 351.805 447.098 354.377 448.325 357.113C448.856 358.275 449.415 359.409 449.806 360.626C450.225 361.842 450.672 363.059 451.034 364.303C451.425 365.63 451.899 366.929 452.151 368.312C452.235 368.81 452.291 369.363 452.457 369.861C452.681 370.496 452.765 371.16 452.877 371.796C453.017 372.57 453.183 373.317 453.267 374.091C453.323 374.644 453.463 375.169 453.491 375.723C453.519 376.193 453.686 376.276 454.161 376.193C454.412 376.137 454.664 376.137 454.915 376.082C456.31 375.778 457.372 376.386 458.237 377.354C459.186 378.432 459.465 379.759 459.605 381.115C459.633 381.308 459.605 381.474 459.605 381.667C459.605 381.916 459.717 381.999 459.941 381.971C460.191 381.944 460.442 381.944 460.694 381.944C461.755 381.944 462.844 381.971 463.905 381.999C464.854 382.027 464.854 381.999 464.798 381.115C464.742 379.815 464.686 378.487 464.631 377.188C464.602 376.608 464.686 376.027 464.547 375.474C464.268 374.34 464.323 373.151 464.1 371.99C463.96 371.243 463.849 370.441 463.681 369.695C463.458 368.588 463.263 367.483 462.983 366.404C462.62 364.938 462.286 363.474 461.867 362.036C461.755 361.649 461.587 361.261 461.531 360.846C461.392 360.017 461.084 359.216 460.862 358.413C460.61 357.528 460.22 356.671 459.884 355.786C459.27 354.073 458.544 352.413 457.818 350.754C457.231 349.4 456.506 348.073 455.808 346.773C454.999 345.279 454.133 343.842 453.267 342.376C452.514 341.077 451.62 339.833 450.727 338.588C449.527 336.902 448.214 335.326 446.846 333.805C446.259 333.169 445.674 332.561 445.087 331.925C444.111 330.846 443.049 329.851 441.988 328.855C440.453 327.418 438.833 326.035 437.187 324.736C436.237 323.99 435.287 323.243 434.282 322.551C432.132 321.086 429.955 319.703 427.721 318.376C425.99 317.326 424.148 316.441 422.305 315.584C420.881 314.92 419.429 314.311 417.978 313.703C416.917 313.261 415.828 312.901 414.767 312.515C413.789 312.155 412.785 311.851 411.78 311.519C411.026 311.27 410.3 311.021 409.546 310.855C408.653 310.662 407.788 310.358 406.866 310.165C406.196 310.026 405.498 309.887 404.828 309.75C403.935 309.555 403.014 309.445 402.091 309.279C401.925 309.252 401.841 309.252 401.757 309.39C401.645 309.555 401.59 309.721 401.562 309.887C401.478 310.828 401.031 311.629 400.501 312.349C399.97 313.067 399.496 313.842 398.741 314.394C398.351 314.671 398.351 314.892 398.603 315.307C398.882 315.721 398.769 316.165 398.63 316.579C398.49 317.021 398.043 316.966 397.68 316.966C395.614 316.883 393.605 316.883 391.566 316.883ZM332.797 383.409C332.853 385.261 332.797 387.198 333.02 389.133C333.16 390.487 333.3 391.815 333.579 393.142C333.69 393.612 333.829 394.082 333.886 394.552C333.942 395.243 334.221 395.879 334.36 396.543C334.528 397.345 334.807 398.119 335.002 398.92C335.282 399.999 335.645 401.05 336.036 402.073C336.426 403.151 336.845 404.202 337.292 405.253C337.655 406.11 337.962 406.994 338.408 407.824C338.884 408.765 339.414 409.677 339.832 410.617C340 410.976 340.056 411.391 340.335 411.723C341.005 412.525 341.479 413.465 342.01 414.377C342.569 415.373 343.155 416.341 343.825 417.28C344.83 418.691 345.947 420.018 347.119 421.345C348.208 422.59 349.269 423.888 350.498 425.05C352.982 427.428 355.579 429.64 358.427 431.576C359.627 432.405 360.883 433.152 362.112 433.926C363.564 434.838 365.072 435.612 366.607 436.332C367.5 436.746 368.394 437.161 369.343 437.493C370.571 437.935 371.8 438.377 373.057 438.792C373.978 439.096 374.899 439.401 375.82 439.704C376.602 439.953 377.412 440.148 378.221 440.368C378.947 440.534 379.673 440.673 380.399 440.811C381.097 440.949 381.795 441.087 382.521 441.226C383.274 441.363 384.029 441.529 384.782 441.612C386.15 441.778 387.546 441.973 388.942 441.944C391.232 441.917 393.493 442.027 395.782 441.861C396.955 441.778 398.127 441.585 399.3 441.446C400.724 441.28 402.148 441.004 403.572 440.811C404.019 440.755 404.493 440.645 404.912 440.479C405.693 440.202 406.503 440.009 407.285 439.76C408.569 439.345 409.909 439.013 411.165 438.543C412.841 437.935 414.516 437.271 416.163 436.525C418.034 435.668 419.821 434.7 421.607 433.704C423.757 432.488 425.684 430.995 427.637 429.529C428.476 428.921 429.285 428.258 430.095 427.567C431.351 426.488 432.552 425.382 433.696 424.193C435.092 422.756 436.321 421.179 437.605 419.603C438.554 418.442 439.475 417.253 440.285 416.009C441.29 414.46 442.183 412.829 443.161 411.225C443.803 410.202 444.306 409.124 444.836 408.018C445.422 406.774 445.953 405.474 446.483 404.202C446.706 403.677 446.902 403.151 447.069 402.599C447.32 401.796 447.572 400.994 447.823 400.193C448.13 399.225 448.493 398.258 448.717 397.234C448.968 396.045 449.191 394.857 449.359 393.667C449.527 392.423 449.778 391.179 449.889 389.935C449.889 389.879 449.889 389.796 449.917 389.741C450.309 388.469 450.057 387.142 450.391 385.87C450.336 383.63 450.559 381.363 450.196 379.124C450.001 377.99 450.112 376.857 449.917 375.695C449.749 374.7 449.498 373.732 449.554 372.709C449.554 372.626 449.527 372.515 449.499 372.432C449.219 371.713 449.219 370.938 449.08 370.22C448.94 369.584 448.801 368.976 448.688 368.34C448.606 367.925 448.493 367.51 448.354 367.095C448.102 366.377 447.88 365.685 447.628 364.967C447.32 364.054 447.041 363.115 446.678 362.202C446.093 360.709 445.45 359.243 444.808 357.777C444.054 356.063 443.217 354.349 442.211 352.773C441.319 351.335 440.341 349.952 439.335 348.57C438.219 347.021 437.019 345.528 435.734 344.146C433.948 342.238 432.132 340.358 430.095 338.699C428.587 337.483 427.108 336.183 425.516 335.021C422.976 333.196 420.323 331.566 417.503 330.21C414.907 328.966 412.31 327.75 409.575 326.81C408.29 326.367 407.006 325.98 405.722 325.593C404.437 325.205 403.125 324.957 401.812 324.763C400.696 324.598 399.579 324.321 398.462 324.238C396.732 324.073 395.001 323.824 393.242 323.878C391.176 323.961 389.11 323.795 387.043 324.1C385.899 324.266 384.726 324.349 383.61 324.515C382.41 324.68 381.208 324.902 380.008 325.205C378.808 325.51 377.579 325.759 376.379 326.063C375.289 326.34 374.201 326.644 373.139 327.003C371.241 327.611 369.426 328.441 367.612 329.27C365.657 330.155 363.704 331.095 361.861 332.229C359.906 333.445 357.896 334.579 356.082 336.044C354.49 337.317 352.898 338.616 351.447 340.026C350.498 340.967 349.521 341.907 348.627 342.929C347.817 343.815 347.119 344.81 346.198 345.584C345.808 346.469 345.082 347.077 344.523 347.851C343.742 348.985 342.932 350.091 342.122 351.196C341.703 351.805 341.284 352.441 340.921 353.077C340.335 354.045 339.805 355.041 339.247 356.035C338.716 356.976 338.185 357.916 337.795 358.938C337.46 359.796 337.097 360.626 336.789 361.483C336.482 362.285 336.176 363.113 335.952 363.943C335.645 365.05 335.31 366.128 334.974 367.207C334.584 368.561 334.305 369.944 333.997 371.326C333.746 372.404 333.607 373.483 333.439 374.561C333.216 376.082 333.076 377.631 332.908 379.151C332.741 380.451 332.797 381.888 332.797 383.409ZM390.031 307.482C390.031 305.657 390.031 303.86 390.031 302.035C390.031 301.316 390.003 301.261 389.277 301.427C388.021 301.703 387.016 302.367 386.178 303.307C385.061 304.551 384.671 306.1 384.531 307.676C384.447 308.588 384.81 309.473 385.173 310.302C385.619 311.298 386.374 312.073 387.016 312.901C387.434 313.427 387.937 313.648 388.579 313.565C388.858 313.537 389.137 313.565 389.416 313.565C390.031 313.565 390.031 313.565 390.031 312.957C390.031 311.104 390.031 309.307 390.031 307.482ZM393.102 307.399C393.13 308.975 393.13 310.524 393.13 312.1C393.13 312.542 392.935 313.15 393.214 313.427C393.521 313.759 394.135 313.51 394.609 313.537C395.029 313.593 395.364 313.399 395.698 313.178C396.48 312.653 397.011 311.907 397.513 311.16C398.295 310.026 398.63 308.726 398.574 307.371C398.546 306.818 398.49 306.266 398.322 305.74C397.932 304.551 397.317 303.501 396.396 302.643C395.643 301.952 394.749 301.399 393.661 301.316C393.13 301.261 393.102 301.288 393.102 301.813C393.102 303.667 393.102 305.546 393.102 307.399ZM329.418 383.741C329.418 383.188 329.418 382.635 329.418 382.082C329.418 381.501 329.447 380.92 329.447 380.368C329.475 378.875 329.475 378.846 327.912 379.068C327.352 379.151 326.989 379.51 326.962 380.036C326.906 382.193 326.85 384.35 326.962 386.534C327.018 387.667 327.939 388.579 329 388.469C329.502 388.413 329.558 388.386 329.531 387.888C329.418 386.506 329.418 385.124 329.418 383.741ZM456.227 383.603C456.227 382.442 456.227 381.308 456.199 380.146C456.199 379.373 455.808 379.041 455.026 379.041C454.775 379.041 454.523 379.068 454.273 379.068C453.965 379.068 453.854 379.234 453.854 379.51C453.854 379.676 453.881 379.842 453.881 379.98C453.91 382.276 454.105 384.57 453.77 386.866C453.575 388.248 453.798 388.442 455.222 388.137C455.92 387.999 456.227 387.667 456.227 386.949C456.255 385.87 456.227 384.736 456.227 383.603Z" fill="#E9CC97"/>
<path d="M422.401 324.482C422.318 324.095 422.569 323.763 422.709 323.404C423.016 322.684 423.435 322.021 423.798 321.303C423.938 321.025 424.19 320.776 424.412 320.583C425.222 319.892 426.172 320.196 426.647 321.164C427.01 321.911 426.731 322.518 426.48 323.128C426.172 323.873 425.697 324.537 425.194 325.2C424.915 325.588 424.552 325.864 424.106 325.975C423.24 326.224 422.318 325.283 422.401 324.482Z" fill="#E9CC97"/>
<path d="M452.498 348.15C453.056 348.15 453.781 348.62 453.922 349.146C454.062 349.698 454.005 350.196 453.531 350.638C452.581 351.496 451.52 352.077 450.291 352.463C449.844 352.602 449.09 352.242 448.755 351.772C448.476 351.357 448.503 350.859 448.839 350.389C449.369 349.671 450.067 349.146 450.85 348.731C451.156 348.565 451.492 348.482 451.771 348.316C452.022 348.15 452.274 348.15 452.498 348.15Z" fill="#E9CC97"/>
<path d="M357.81 320.473C358.341 320.39 358.732 320.694 359.011 321.082C359.653 321.994 360.212 322.934 360.603 323.985C360.771 324.427 360.798 324.925 360.464 325.367C359.85 326.225 359.039 326.252 358.424 325.616C357.558 324.703 356.889 323.515 356.442 322.353C356.191 321.994 356.079 321.634 356.413 321.248C356.776 320.777 357.168 320.418 357.81 320.473Z" fill="#E9CC97"/>
<path d="M330.632 348.123C331.554 348.096 332.224 348.621 332.922 349.119C333.509 349.561 333.984 350.114 334.347 350.778C334.71 351.469 334.347 352.215 333.565 352.298C333.006 352.354 332.475 352.298 331.945 352.049C331.079 351.662 330.269 351.22 329.571 350.584C329.208 350.224 328.873 349.809 329.041 349.202C329.236 348.538 329.906 348.013 330.632 348.123Z" fill="#E9CC97"/>
<path d="M444.506 337.809C444.59 339.052 443.417 339.855 442.467 339.827C441.182 339.799 440.345 338.942 440.289 337.726C440.233 336.565 441.49 335.763 442.495 335.763C443.501 335.763 444.562 336.592 444.506 337.809Z" fill="#E9CC97"/>
<path d="M342.834 337.836C342.889 339.026 341.688 340.021 340.459 339.634C340.125 339.524 339.817 339.468 339.511 339.275C338.868 338.86 338.616 338.168 338.868 337.477C339.119 336.758 339.482 336.233 340.237 335.901C341.046 335.513 342.275 336.122 342.583 336.841C342.667 337.172 342.918 337.477 342.834 337.836Z" fill="#E9CC97"/>
<path d="M449.932 412.851C450.35 412.74 450.685 412.989 451.048 413.127C451.97 413.459 452.836 413.901 453.534 414.648C454.149 415.257 453.981 416.086 453.422 416.639C452.947 417.109 451.998 417.275 451.356 416.915C450.657 416.528 449.903 416.141 449.289 415.589C448.982 415.311 448.73 414.98 448.59 414.538C448.451 414.095 448.535 413.764 448.786 413.459C449.066 413.1 449.372 412.74 449.932 412.851Z" fill="#E9CC97"/>
<path d="M393.028 450.843C393.028 451.313 393.056 451.755 393.028 452.226C392.972 453.083 392.497 453.497 391.659 453.47C391.492 453.47 391.324 453.47 391.184 453.443C390.71 453.387 390.403 453.082 390.29 452.613C390.095 451.728 390.068 450.843 390.235 449.959C390.29 449.654 390.29 449.322 390.319 448.99C390.374 448.437 390.793 447.995 391.324 447.912C391.855 447.829 392.72 448.078 392.888 448.659C392.972 449.018 393.111 449.35 393.083 449.737C393.027 450.125 393.056 450.484 393.028 450.843C393.056 450.843 393.056 450.843 393.028 450.843Z" fill="#E9CC97"/>
<path d="M330.266 416.997C329.792 417.109 329.484 416.694 329.26 416.279C329.01 415.836 328.981 415.284 329.316 414.841C329.595 414.426 329.958 414.122 330.434 413.901C331.048 413.625 331.635 413.347 332.221 413.071C332.528 412.905 332.835 412.905 333.17 412.905C333.728 412.905 334.064 413.183 334.315 413.652C334.511 414.067 334.511 414.481 334.232 414.869C334.093 415.062 333.952 415.228 333.785 415.367C333.031 416.03 332.165 416.528 331.216 416.914C330.937 416.97 330.656 416.97 330.266 416.997Z" fill="#E9CC97"/>
<path d="M359.07 439.948C360.27 439.948 360.997 441.22 360.466 442.188C360.018 442.99 359.544 443.764 359.041 444.511C358.651 445.063 358.148 445.312 357.561 445.146C356.919 444.953 356.416 444.289 356.445 443.654C356.472 443.184 356.584 442.742 356.863 442.381C357.254 441.856 357.561 441.276 357.952 440.722C358.231 440.307 358.539 439.893 359.07 439.948Z" fill="#E9CC97"/>
<path d="M423.903 439.92C424.239 439.92 424.518 439.975 424.769 440.252C425.579 441.136 426.166 442.187 426.668 443.238C426.696 443.321 426.751 443.376 426.724 443.487C426.584 444.039 425.551 444.842 424.964 444.842C424.574 444.842 424.294 444.73 424.098 444.427C423.512 443.57 422.926 442.712 422.479 441.745C422.144 441.081 422.87 439.837 423.903 439.92Z" fill="#E9CC97"/>
<path d="M368.233 446.446C368.233 447.497 367.479 448.271 366.418 448.243C365.189 448.243 364.352 447.469 364.352 446.308C364.352 445.284 365.329 444.372 366.39 444.4C367.284 444.427 368.345 445.174 368.233 446.446Z" fill="#E9CC97"/>
<path d="M442.467 426.427C443.138 426.427 443.947 427.063 444.171 427.671C444.729 429.164 443.668 430.187 442.523 430.436C441.825 430.574 441.238 430.132 440.848 429.579C440.177 428.666 440.54 427.312 441.574 426.758C441.88 426.565 442.16 426.316 442.467 426.427Z" fill="#E9CC97"/>
<path d="M340.839 430.298C339.637 430.381 338.771 429.441 338.771 428.334C338.771 427.284 339.861 426.51 340.81 426.482C341.872 426.455 342.737 427.367 342.766 428.473C342.793 429.441 341.9 430.298 340.839 430.298Z" fill="#E9CC97"/>
<path d="M417.932 444.704C417.903 444.897 417.987 444.953 418.182 444.926C418.182 445.092 418.295 445.229 418.378 445.368C418.601 445.838 418.825 446.308 418.658 446.861C418.434 447.691 417.54 448.437 416.395 448.161C415.808 448.022 415.223 447.746 414.999 447.166C414.747 446.502 414.831 445.783 415.334 445.229C415.808 444.677 416.451 444.372 417.233 444.538C417.429 444.594 417.68 444.649 417.932 444.704Z" fill="#E9CC97"/>
<path d="M448.331 382.547C448.331 383.652 448.36 384.814 448.331 385.948C448.304 387.081 448.165 388.242 448.025 389.376C447.941 390.04 447.941 390.731 447.773 391.394C447.578 392.224 447.522 393.054 447.355 393.883C447.075 395.127 446.768 396.372 446.433 397.616C445.902 399.496 445.344 401.376 444.618 403.201C444.004 404.722 443.307 406.188 442.609 407.681C441.268 410.611 439.593 413.349 437.667 415.919C436.354 417.717 434.903 419.432 433.451 421.118C432.335 422.418 431.106 423.551 429.877 424.74C429.319 425.293 428.649 425.764 428.006 426.206C427.448 426.593 426.974 427.118 426.443 427.533C425.55 428.252 424.656 428.943 423.763 429.634C422.619 430.519 421.39 431.238 420.134 431.93C418.71 432.731 417.286 433.589 415.75 434.197C414.41 434.722 413.098 435.331 411.758 435.856C410.557 436.298 409.357 436.768 408.128 437.155C407.068 437.486 406.034 437.847 404.973 438.123C404.052 438.372 403.131 438.565 402.238 438.814C401.484 439.008 400.702 439.035 399.948 439.257C399.334 439.45 398.664 439.394 398.022 439.45C395.676 439.672 393.359 439.782 391.014 439.699C389.395 439.643 387.748 439.699 386.128 439.506C385.346 439.423 384.537 439.45 383.783 439.284C383.141 439.146 382.471 439.091 381.829 438.897C381.214 438.704 380.545 438.704 379.93 438.51C379.037 438.233 378.116 438.067 377.222 437.764C376.803 437.625 376.384 437.542 375.966 437.432C374.905 437.155 373.9 436.768 372.866 436.381C371.834 435.994 370.829 435.607 369.795 435.248C368.205 434.639 366.697 433.921 365.161 433.174C362.955 432.067 360.889 430.713 358.852 429.331C357.93 428.694 357.065 427.975 356.171 427.257C355.529 426.731 354.831 426.261 354.244 425.708C353.518 425.072 352.793 424.408 352.123 423.717C350.196 421.726 348.381 419.625 346.678 417.441C345.506 415.892 344.361 414.316 343.356 412.657C342.77 411.69 342.183 410.694 341.569 409.726C340.899 408.621 340.396 407.376 339.811 406.215C339.169 404.86 338.609 403.477 338.051 402.094C337.661 401.072 337.325 400.049 337.019 398.998C336.767 398.141 336.516 397.311 336.264 396.455C336.153 396.011 336.042 395.569 335.958 395.127C335.846 394.491 335.706 393.856 335.567 393.247C335.371 392.39 335.455 391.505 335.12 390.675C335.092 390.621 335.092 390.538 335.092 390.482C334.924 388.159 334.701 385.865 334.729 383.542C334.758 381.689 334.701 379.809 334.841 377.957C334.924 377.072 334.953 376.159 335.12 375.302C335.316 374.251 335.511 373.229 335.706 372.177C335.874 371.348 336.153 370.547 336.348 369.744C336.543 368.832 336.907 367.975 337.046 367.034C337.103 366.619 337.27 366.233 337.382 365.846C337.688 364.74 338.051 363.634 338.443 362.556C339.112 360.731 339.895 358.96 340.759 357.219C341.235 356.279 341.82 355.366 342.267 354.399C342.491 353.901 342.882 353.458 343.217 352.989C343.635 352.352 344.027 351.689 344.473 351.081C344.948 350.444 345.478 349.836 345.896 349.173C346.762 347.818 347.823 346.629 348.856 345.44C350.252 343.836 351.844 342.399 353.351 340.906C354.886 339.357 356.534 337.947 358.265 336.648C359.131 335.984 360.107 335.486 361.001 334.877C362.704 333.744 364.519 332.804 366.334 331.919C367.953 331.117 369.628 330.398 371.303 329.707C372.587 329.182 373.9 328.711 375.24 328.325C376.077 328.104 376.914 327.855 377.753 327.633C378.674 327.413 379.622 327.218 380.572 326.942C381.103 326.776 381.689 326.749 382.248 326.61C383.141 326.389 384.062 326.361 384.956 326.168C385.709 326.002 386.464 326.057 387.245 325.974C389.478 325.671 391.74 325.754 394.001 325.808C395.397 325.836 396.793 325.947 398.162 326.251C398.273 326.279 398.385 326.279 398.496 326.279C399.585 326.306 400.618 326.61 401.679 326.776C402.684 326.942 403.662 327.191 404.639 327.44C405.783 327.744 406.955 327.993 408.073 328.435C408.687 328.684 409.329 328.85 409.971 329.043C411.087 329.404 412.149 329.846 413.237 330.26C414.801 330.868 416.281 331.671 417.788 332.417C419.184 333.135 420.524 333.938 421.864 334.74C424.629 336.343 427.03 338.444 429.403 340.546C430.994 341.956 432.501 343.505 433.925 345.081C435.322 346.629 436.746 348.205 437.973 349.892C438.923 351.191 439.705 352.629 440.543 354.011C441.547 355.671 442.441 357.385 443.251 359.155C443.836 360.399 444.312 361.698 444.814 362.971C445.428 364.518 445.875 366.122 446.349 367.698C446.741 368.998 447.075 370.325 447.326 371.68C447.439 372.289 447.439 372.951 447.746 373.56C447.773 373.588 447.802 373.643 447.773 373.698C447.689 374.583 448.052 375.413 448.081 376.298C448.192 378.343 448.471 380.417 448.331 382.547ZM390.791 438.704C393.275 438.538 395.509 438.648 397.743 438.372C399.278 438.179 400.813 437.984 402.349 437.681C403.773 437.404 405.169 436.99 406.565 436.602C408.045 436.188 409.524 435.717 410.976 435.165C412.763 434.473 414.522 433.726 416.224 432.869C417.732 432.096 419.213 431.293 420.692 430.408C422.06 429.58 423.4 428.694 424.656 427.672C425.69 426.814 426.695 425.984 427.727 425.127C429.04 424.049 430.212 422.86 431.385 421.643C432.306 420.731 433.116 419.708 433.954 418.74C434.986 417.524 435.991 416.307 436.969 415.035C437.834 413.874 438.588 412.63 439.341 411.385C440.18 410.002 440.989 408.592 441.659 407.127C442.497 405.275 443.362 403.422 444.033 401.486C444.423 400.354 444.73 399.219 445.065 398.085C445.344 397.118 445.568 396.15 445.818 395.182C445.959 394.574 446.126 393.939 446.21 393.302C446.321 392.529 446.462 391.754 446.601 391.007C446.768 389.984 446.88 388.961 446.992 387.938C447.159 386.197 447.131 384.455 447.104 382.684C447.104 382.325 447.326 382.021 447.243 381.661C447.075 380.859 447.104 380.03 447.104 379.229C447.104 377.901 446.768 376.63 446.712 375.33C446.684 374.776 446.517 374.196 446.489 373.643C446.489 373.588 446.489 373.505 446.462 373.449C446.126 372.814 446.21 372.094 446.042 371.431C445.902 370.879 445.763 370.269 445.652 369.689C445.568 369.274 445.484 368.832 445.317 368.444C444.981 367.726 444.814 366.924 444.618 366.177C444.283 364.906 443.754 363.689 443.307 362.473C443.027 361.726 442.692 361.007 442.413 360.288C441.826 358.767 441.044 357.33 440.235 355.919C439.677 354.924 439.146 353.929 438.476 352.989C437.806 352.021 437.22 350.998 436.522 350.058C434.456 347.265 432.111 344.693 429.543 342.343C428.062 340.96 426.499 339.661 424.88 338.472C423.54 337.476 422.172 336.482 420.719 335.624C419.184 334.74 417.621 333.827 416.029 333.025C414.298 332.14 412.484 331.366 410.641 330.702C409.747 330.371 408.826 330.066 407.933 329.734C407.234 329.458 406.509 329.265 405.755 329.099C404.918 328.906 404.08 328.629 403.242 328.435C402.628 328.269 401.986 328.159 401.344 328.048C400.562 327.91 399.752 327.772 398.971 327.633C397.602 327.384 396.207 327.274 394.839 327.218C392.019 327.108 389.199 326.998 386.351 327.357C384.844 327.55 383.364 327.882 381.829 328.021C381.772 328.021 381.689 328.048 381.633 328.076C381.019 328.352 380.321 328.325 379.679 328.518C379.343 328.629 378.981 328.767 378.618 328.794C377.753 328.877 376.943 329.238 376.105 329.458C375.1 329.707 374.123 330.149 373.118 330.454C371.778 330.868 370.521 331.505 369.237 332.002C368.344 332.334 367.506 332.832 366.668 333.247C364.658 334.214 362.788 335.403 360.889 336.592C359.27 337.615 357.734 338.749 356.339 340.048C354.44 341.818 352.541 343.643 350.727 345.523C349.778 346.491 348.885 347.541 348.075 348.592C346.846 350.224 345.673 351.882 344.445 353.514C344.333 353.68 344.194 353.873 344.138 354.039C343.831 354.868 343.272 355.56 342.825 356.334C341.765 358.186 340.899 360.122 340.117 362.113C339.754 363.054 339.419 364.021 339.112 364.989C338.89 365.652 338.666 366.316 338.47 367.007C338.275 367.754 337.967 368.473 337.8 369.219C337.549 370.242 337.214 371.238 336.99 372.26C336.879 372.868 336.795 373.477 336.656 374.085C336.432 374.971 336.404 375.91 336.237 376.796C336.042 377.929 336.042 379.118 335.985 380.307C335.874 382.408 335.79 384.538 336.098 386.639C336.293 387.91 336.209 389.21 336.404 390.482C336.543 391.394 336.711 392.28 336.824 393.219C336.879 393.69 336.963 394.186 337.103 394.63C337.409 395.514 337.521 396.455 337.829 397.339C338.08 398.114 338.247 398.943 338.498 399.717C339.001 401.127 339.503 402.509 340.034 403.892C340.732 405.69 341.653 407.404 342.519 409.118C343.022 410.114 343.691 410.998 344.222 411.966C344.948 413.266 345.785 414.482 346.651 415.671C347.823 417.33 349.191 418.851 350.559 420.372C351.536 421.477 352.625 422.473 353.63 423.524C354.077 423.993 354.58 424.408 355.026 424.851C355.947 425.735 356.925 426.565 357.958 427.284C359.326 428.252 360.666 429.248 362.09 430.159C363.039 430.768 363.96 431.432 364.966 431.93C366.724 432.759 368.455 433.699 370.27 434.418C371.471 434.888 372.643 435.414 373.872 435.829C375.24 436.298 376.635 436.713 378.032 437.072C379.148 437.349 380.266 437.598 381.382 437.874C381.94 438.013 382.471 438.04 383.029 438.179C384.174 438.455 385.319 438.538 386.464 438.621C387.19 438.676 387.915 438.648 388.612 438.676C389.395 438.621 390.232 438.676 390.791 438.704Z" fill="#E9CC97"/>
<path d="M337.831 383.266C337.635 381.165 338.054 378.952 338.138 376.712C338.501 375.993 338.334 375.192 338.556 374.417C338.753 373.782 338.78 373.063 338.919 372.399C339.143 371.403 339.366 370.436 339.646 369.468C339.785 368.998 339.869 368.5 340.037 368.031C340.288 367.284 340.456 366.482 340.706 365.735C341.098 364.63 341.488 363.524 341.963 362.417C342.688 360.675 343.498 358.961 344.42 357.302C345.732 354.924 347.296 352.713 348.915 350.528C350.674 348.15 352.656 346.02 354.749 343.948C356.286 342.455 357.933 341.072 359.636 339.772C361.73 338.168 364.02 336.869 366.336 335.652C367.621 334.989 368.877 334.269 370.217 333.689C371.11 333.302 372.003 332.915 372.953 332.639C373.818 332.39 374.656 332.03 375.521 331.726C376.276 331.45 377.029 331.228 377.784 330.98C378.676 330.703 379.569 330.538 380.463 330.26C380.91 330.123 381.385 330.067 381.832 330.011C382.585 329.901 383.339 329.763 384.093 329.625C385.154 329.403 386.214 329.459 387.248 329.21C387.666 329.099 388.085 329.127 388.504 329.127C390.486 329.127 392.469 329.127 394.423 329.127C395.623 329.127 396.852 329.293 398.025 329.459C398.806 329.569 399.615 329.68 400.397 329.845C401.067 330.011 401.794 330.177 402.491 330.233C402.994 330.289 403.496 330.426 403.971 330.565C404.752 330.786 405.562 330.98 406.344 331.284C407.238 331.643 408.215 331.892 409.136 332.195C410.086 332.527 411.034 332.887 411.956 333.247C413.631 333.937 415.278 334.74 416.87 335.597C418.656 336.565 420.416 337.616 422.118 338.749C423.403 339.634 424.631 340.63 425.832 341.597C427.898 343.284 429.713 345.192 431.527 347.127C432.532 348.177 433.509 349.284 434.375 350.445C435.436 351.883 436.413 353.348 437.362 354.869C438.283 356.363 439.177 357.856 439.903 359.432C440.573 360.869 441.159 362.363 441.801 363.8C442.36 365.044 442.667 366.372 443.086 367.67C443.365 368.528 443.533 369.441 443.783 370.325C444.175 371.735 444.398 373.174 444.622 374.611C444.872 376.159 445.012 377.708 445.207 379.228C445.431 381.165 445.375 383.1 445.319 385.035C445.291 386.28 445.235 387.524 445.068 388.74C444.872 390.067 444.817 391.394 444.538 392.694C444.37 393.497 444.146 394.298 443.923 395.073C443.756 395.653 443.588 396.261 443.449 396.869C443.281 397.589 443.086 398.28 442.835 398.97C442.415 400.132 441.997 401.322 441.551 402.483C440.796 404.418 439.959 406.326 438.925 408.178C437.977 409.893 436.999 411.58 435.883 413.183C434.877 414.649 433.733 416.003 432.588 417.358C430.829 419.405 428.987 421.395 426.976 423.192C425.524 424.492 424.017 425.736 422.369 426.815C421.142 427.616 419.913 428.391 418.684 429.165C417.177 430.133 415.502 430.824 413.91 431.653C412.71 432.261 411.453 432.759 410.197 433.23C409.247 433.589 408.299 433.893 407.349 434.197C406.596 434.445 405.814 434.667 405.06 434.889C404.53 435.055 403.971 435.22 403.385 435.275C402.938 435.303 402.464 435.441 402.044 435.58C401.402 435.801 400.677 435.663 400.091 436.022C400.062 436.05 400.007 436.022 399.951 436.05C398.472 436.243 397.019 436.409 395.512 436.353C395.288 436.353 395.037 436.382 394.814 436.409C394.814 436.409 392.301 436.602 391.882 436.602C391.212 436.602 390.542 436.602 389.872 436.602C388.113 436.575 386.354 436.353 384.624 436.16C383.758 436.077 382.921 435.967 382.082 435.773C381.413 435.635 380.714 435.58 380.072 435.331C379.682 435.192 379.235 435.138 378.816 435.026C377.671 434.723 376.527 434.335 375.41 433.976C374.237 433.589 373.065 433.147 371.892 432.759C371.194 432.51 370.497 432.234 369.798 431.902C368.905 431.46 368.012 431.1 367.118 430.631C366.168 430.105 365.22 429.58 364.299 429.026C363.265 428.391 362.233 427.727 361.255 427.008C360.334 426.317 359.412 425.625 358.547 424.878C357.681 424.16 356.899 423.358 355.978 422.694C355.141 422.086 354.415 421.313 353.717 420.538C352.349 419.017 350.953 417.551 349.696 415.948C349.027 415.064 348.272 414.234 347.603 413.349C346.737 412.188 346.011 410.943 345.285 409.699C344.838 408.898 344.392 408.095 343.917 407.293C343.219 406.188 342.717 404.97 342.214 403.755C341.684 402.455 341.266 401.1 340.763 399.773C340.4 398.833 340.148 397.892 339.785 396.952C339.618 396.537 339.59 396.095 339.506 395.681C339.395 395.044 339.227 394.409 339.087 393.8C338.919 393.165 338.948 392.473 338.669 391.865C338.64 391.838 338.64 391.782 338.64 391.726C338.669 390.731 338.25 389.791 338.306 388.795C338.334 388.326 338.334 387.828 338.11 387.358C338.027 387.192 338.054 386.999 338.054 386.805C337.831 385.672 337.831 384.537 337.831 383.266ZM409.052 372.455C408.968 372.482 408.884 372.482 408.829 372.51C407.936 373.228 406.958 373.865 406.037 374.528C405.507 374.915 404.892 375.164 404.53 375.717C404.278 375.717 404.11 375.883 403.943 376.022C403.133 376.63 402.296 377.183 401.486 377.791C401.207 378.012 400.76 378.095 400.62 378.482C400.509 378.51 400.397 378.482 400.37 378.62C399.615 378.952 399.03 379.56 398.359 379.975C398.136 380.114 398.08 380.335 398.191 380.584C398.554 381.302 398.694 382.076 398.722 382.878C398.751 383.735 398.694 384.565 398.472 385.394C398.22 386.031 397.969 386.722 397.522 387.219C396.685 388.187 395.846 389.155 394.562 389.652C394.172 389.791 393.696 389.847 393.417 390.206C393.054 390.399 393.194 390.731 393.194 391.008C393.167 400.602 393.138 410.224 393.138 419.819C393.138 420.013 393.138 420.178 393.167 420.372C393.194 420.51 393.306 420.538 393.417 420.51C393.474 420.538 393.557 420.593 393.614 420.593C395.009 420.62 396.377 420.344 397.745 420.151C398.722 420.013 399.672 419.681 400.62 419.459C401.933 419.156 403.246 418.768 404.502 418.243C406.986 417.248 409.415 416.086 411.676 414.676C413.24 413.681 414.72 412.602 416.116 411.385C417.093 410.528 418.07 409.616 418.992 408.676C420.248 407.376 421.364 405.994 422.453 404.556C423.598 403.035 424.547 401.376 425.413 399.69C426 398.528 426.501 397.34 426.976 396.123C427.34 395.156 427.646 394.132 427.953 393.165C428.093 392.75 428.232 392.28 428.288 391.837C428.345 391.201 428.54 390.565 428.679 389.957C428.875 389.127 428.93 388.27 429.098 387.441C429.238 386.722 429.238 385.975 429.35 385.257C429.433 384.62 429.406 384.593 428.763 384.593C427.088 384.593 425.413 384.593 423.737 384.593C423.431 384.593 423.095 384.565 422.845 384.676C422.369 384.869 421.979 384.759 421.56 384.62C420.36 384.233 419.969 382.63 420.918 381.827C421.308 381.497 421.727 381.275 422.286 381.302C424.435 381.33 426.613 381.331 428.763 381.331C429.35 381.331 429.461 381.219 429.35 380.694C429.071 379.477 429.21 378.233 428.903 377.017C428.735 376.381 428.679 375.69 428.512 375.053C428.288 374.086 428.093 373.118 427.787 372.15C427.563 371.403 427.34 370.657 427.088 369.939C426.474 368.334 425.803 366.759 424.966 365.238C423.85 363.219 422.648 361.284 421.169 359.515C419.801 357.856 418.321 356.334 416.647 354.952C415.445 353.957 414.218 352.989 412.933 352.105C411.286 350.97 409.555 349.975 407.712 349.173C406.4 348.592 405.06 348.067 403.747 347.542C402.436 347.016 401.096 346.601 399.755 346.269C398.443 345.966 397.103 345.661 395.735 345.607C395.428 345.607 395.12 345.551 394.841 345.495C394.311 345.385 393.78 345.385 393.251 345.385C393.138 345.578 393.167 345.773 393.167 345.937C393.167 348.482 393.167 350.998 393.167 353.542C393.167 353.763 393.167 354.011 393.138 354.233C393.054 354.98 391.91 355.67 391.212 355.394C390.319 355.035 390.067 354.675 390.04 353.708C390.04 351.717 390.04 349.699 390.04 347.708C390.04 347.072 390.04 346.408 390.04 345.773C390.04 345.468 389.928 345.358 389.621 345.385C388.476 345.495 387.303 345.578 386.159 345.69C386.103 345.69 386.019 345.744 385.964 345.744C385.266 345.883 384.567 346.076 383.869 346.159C383.311 346.242 382.808 346.435 382.25 346.547C381.524 346.713 380.826 347.044 380.1 347.238C378.956 347.569 377.866 348.04 376.778 348.509C375.326 349.118 373.958 349.836 372.59 350.611C371.25 351.385 369.854 352.132 368.681 353.155C366.867 354.675 364.996 356.141 363.376 357.939C361.673 359.818 360.054 361.782 358.798 363.966C357.905 365.542 357.151 367.173 356.453 368.86C355.923 370.132 355.559 371.432 355.169 372.731C355.057 373.118 354.862 373.506 354.833 373.92C354.806 374.556 354.583 375.164 354.47 375.8C354.275 376.768 354.136 377.735 354.024 378.703C353.94 379.367 353.94 380.031 353.801 380.694C353.689 381.219 353.773 381.302 354.331 381.302C356.062 381.302 357.821 381.302 359.552 381.275C360.026 381.275 360.473 381.219 360.947 381.248C361.618 381.275 362.036 381.634 362.288 382.159C362.428 382.491 362.763 382.851 362.595 383.237C362.428 383.681 362.233 384.123 361.673 384.372C361.171 384.593 360.697 384.676 360.194 384.62C358.435 384.455 356.649 384.62 354.889 384.565C353.606 384.537 353.606 384.565 353.801 385.837C353.968 386.916 354.052 388.022 354.22 389.127C354.331 389.874 354.47 390.62 354.638 391.34C354.806 392.169 355.085 392.97 355.309 393.773C355.727 395.239 356.286 396.648 356.899 398.058C357.738 399.966 358.854 401.764 359.999 403.506C361.534 405.856 363.376 407.957 365.415 409.893C367.9 412.243 370.608 414.289 373.595 415.948C375.94 417.248 378.426 418.298 380.993 419.073C381.552 419.239 382.134 419.43 382.808 419.625C383.283 419.764 383.785 419.902 384.261 419.985C384.903 420.095 385.517 420.206 386.13 420.344C386.94 420.538 388.196 420.649 389.006 420.62C389.844 420.676 389.928 420.593 389.928 419.791C389.928 412.022 389.9 404.28 389.9 396.51C389.9 394.575 389.9 392.639 389.9 390.703C389.9 390.372 389.844 390.178 389.482 390.04C388.783 389.764 388.057 389.542 387.471 389.044C387.192 388.823 386.706 388.401 386.706 388.401C386.679 388.347 386.577 388.27 386.55 388.243C385.824 387.662 385.377 386.86 385.014 386.058C384.595 385.145 384.316 384.206 384.345 383.155C384.372 382.215 384.484 381.302 384.874 380.418C384.958 380.252 385.014 380.031 384.874 379.892C384.316 379.45 383.539 378.803 383.255 378.482H383.227C382.921 378.123 382.059 377.434 381.776 377.21C380.659 376.325 379.514 375.441 378.369 374.583C378.146 374.418 377.979 374.141 377.671 374.086L377.643 374.058C377.616 374.003 377.616 373.92 377.56 373.865C376.415 372.98 375.271 372.15 374.153 371.238C373.316 370.547 372.479 369.856 371.613 369.192C371.25 368.915 370.831 368.666 370.608 368.197C370.3 367.505 370.44 366.897 370.803 366.316C370.887 366.316 370.943 366.261 370.915 366.15C371.055 366.095 371.223 366.067 371.362 365.984C371.808 365.708 372.255 365.681 372.729 365.984C372.842 366.067 373.008 366.04 373.121 366.095C373.121 366.15 373.121 366.206 373.148 366.233C374.321 367.174 375.466 368.168 376.666 369.081C378.426 370.408 380.072 371.847 381.776 373.201C383.395 374.501 385.014 375.827 386.606 377.155C387.024 377.486 387.024 377.486 387.499 377.21C388.672 376.491 389.9 375.966 391.296 375.966C391.798 375.966 392.329 375.91 392.832 376.049C393.753 376.325 394.702 376.63 395.483 377.237C395.762 377.459 396.07 377.432 396.377 377.266C396.544 377.183 396.685 377.072 396.824 376.961C397.549 376.464 398.275 375.939 399.001 375.441C400.928 374.086 402.854 372.731 404.752 371.349C405.562 370.768 406.372 370.188 407.181 369.634C409.081 368.363 410.923 366.98 412.766 365.625C413.855 364.851 414.887 364.022 415.976 363.219C416.507 362.832 417.121 362.888 417.624 363.109C418.656 363.551 418.797 365.017 417.987 365.791C417.568 366.206 417.037 366.482 416.563 366.842C415.753 367.45 414.887 367.975 414.078 368.583C413.631 368.915 413.129 369.164 412.766 369.607C412.71 369.607 412.626 369.607 412.57 369.661C411.592 370.353 410.644 371.072 409.667 371.791C409.555 372.04 409.22 372.15 409.052 372.455ZM342.94 390.731C343.191 390.814 343.443 390.731 343.694 390.676C345.174 390.372 346.682 390.261 348.217 390.178C348.217 390.316 348.328 390.344 348.44 390.399C349.11 390.731 349.39 391.311 349.278 392.031C349.194 392.473 348.691 392.833 348.022 392.888C347.825 392.916 347.603 392.916 347.407 392.97C346.682 393.219 345.927 393.248 345.174 393.414C344.28 393.58 343.359 393.745 342.466 393.911C342.046 393.994 342.046 394.188 341.991 394.519C341.907 395.127 342.27 395.625 342.354 396.178C342.438 396.814 342.717 397.394 342.885 398.003C342.912 398.114 342.996 398.141 343.08 398.141C343.527 398.141 343.974 398.252 344.308 397.837C344.783 397.892 345.201 397.616 345.62 397.477C346.737 397.145 347.798 396.676 348.915 396.316C349.864 396.013 350.199 396.067 350.841 396.897C350.925 397.035 351.009 397.145 351.093 397.284C351.344 397.726 351.26 398.363 350.814 398.611C350.394 398.833 349.975 399.082 349.501 399.219C348.719 399.441 347.966 399.69 347.212 399.939C346.29 400.243 345.396 400.547 344.475 400.824C343.917 400.99 343.861 401.073 344.057 401.542C344.643 402.898 345.23 404.224 345.872 405.551C346.011 405.828 346.151 405.883 346.402 405.856C346.598 405.856 346.765 405.773 346.933 405.69C348.217 405.026 349.529 404.39 350.814 403.755C351.064 403.643 351.344 403.56 351.511 403.311C351.567 403.311 351.651 403.34 351.707 403.311C352.683 402.759 353.717 402.234 354.749 401.736C355.225 401.515 355.196 401.515 354.973 401.073C354.527 400.27 354.08 399.441 353.744 398.611C353.214 397.311 352.712 396.013 352.293 394.658C351.958 393.607 351.735 392.556 351.483 391.506C351.344 390.869 351.26 390.233 351.177 389.598C351.009 388.464 350.73 387.358 350.701 386.197C350.674 385.755 350.701 385.311 350.701 384.897C350.701 384.455 350.618 384.399 350.172 384.427C349.725 384.455 349.278 384.482 348.859 384.482C346.374 384.51 343.89 384.565 341.405 384.482C340.735 384.455 340.651 384.51 340.763 385.174C340.903 386.031 340.985 386.916 340.958 387.773C340.93 388.712 341.266 389.625 341.237 390.593C341.237 390.731 341.266 390.897 341.432 390.897C341.907 391.008 342.466 391.174 342.94 390.731ZM434.849 384.676C434.235 384.62 433.649 384.62 433.035 384.676C432.477 384.648 432.448 384.648 432.448 385.118C432.448 385.506 432.477 385.892 432.477 386.28C432.393 386.722 432.364 387.136 432.448 387.58C432.141 387.8 432.198 388.16 432.198 388.464C432.225 389.376 431.946 390.206 431.806 391.091C431.695 391.699 431.611 392.335 431.388 392.916C431.22 393.468 431.053 393.994 430.885 394.547C430.578 395.487 430.271 396.455 429.935 397.367C429.685 398.031 429.517 398.694 429.182 399.331C428.903 399.883 428.651 400.436 428.345 400.961C428.037 401.488 428.149 401.764 428.735 402.013C428.763 402.013 428.791 402.013 428.791 402.04C430.075 402.676 431.388 403.257 432.643 403.948C433.845 404.611 435.101 405.192 436.133 406.105C436.441 406.381 436.748 406.27 436.943 405.883C437.474 404.943 437.865 403.92 438.312 402.952C438.535 402.483 438.786 402.04 438.954 401.515C439.093 401.073 439.122 401.073 438.73 400.934C438.144 400.712 437.585 400.519 436.999 400.298C436.022 399.939 435.017 399.607 434.04 399.248C433.509 399.053 433.007 398.888 432.504 398.667C432.058 398.473 431.806 397.948 432.001 397.533C432.588 396.316 433.09 395.93 434.514 396.372C435.017 396.538 435.464 396.869 436.022 396.786C436.274 396.98 437.083 397.284 437.502 397.311C437.557 397.367 437.641 397.367 437.698 397.34C437.725 397.423 437.753 397.533 437.865 397.533C438.591 397.672 439.204 398.058 439.931 398.362C439.986 398.086 440.294 397.892 440.21 397.56C440.322 397.394 440.349 397.201 440.322 397.008C440.406 396.98 440.489 396.925 440.517 396.842C440.657 396.067 440.88 395.293 441.104 394.547C441.243 394.022 441.104 393.856 440.545 393.773C439.819 393.69 439.093 393.634 438.34 393.468C437.222 393.219 436.078 393.082 434.933 392.86C434.543 392.777 434.067 392.694 433.9 392.28C433.425 391.118 434.096 390.123 435.296 390.178C436.106 390.206 436.916 390.344 437.698 390.51C438.841 390.759 440.014 390.62 441.131 390.98C441.187 391.008 441.27 390.98 441.327 391.008C441.551 391.008 441.662 390.952 441.746 390.676C442.025 389.818 441.969 388.906 442.109 388.022C442.248 387.109 442.193 386.197 442.22 385.257C442.248 384.593 442.22 384.565 441.522 384.593C441.467 384.593 441.438 384.62 441.383 384.62C440.489 384.565 439.624 384.565 438.73 384.62C438.451 384.565 438.172 384.565 437.893 384.62C437.419 384.565 436.943 384.565 436.469 384.62C435.938 384.62 435.408 384.62 434.849 384.676ZM393.083 342.04C394.227 342.15 395.288 342.206 396.349 342.316C397.075 342.399 397.773 342.509 398.472 342.675C399.113 342.841 399.783 342.897 400.425 343.062C401.291 343.311 402.184 343.477 403.022 343.753C404.641 344.307 406.288 344.777 407.824 345.551C409.136 346.215 410.504 346.767 411.816 347.459C412.905 348.04 413.882 348.758 414.915 349.422C415.976 350.085 416.87 350.915 417.903 351.607C418.489 351.993 418.936 352.547 419.466 352.989C420.416 353.763 420.081 353.901 420.974 352.851C422.118 351.495 423.347 350.251 424.547 348.924C425.245 348.123 426 347.348 426.697 346.574C426.809 346.464 426.921 346.352 426.781 346.159C425.971 345.247 425.106 344.362 424.073 343.67C423.487 343.256 423.458 343.284 423.011 343.836C422.342 344.666 421.7 345.524 421.002 346.325C420.527 346.85 420.081 347.376 419.718 347.984C419.355 348.565 418.852 348.952 418.35 349.367C418.126 349.533 417.874 349.56 417.652 349.367C417.316 349.118 416.981 348.869 416.702 348.592C416.2 348.067 416.144 347.597 416.674 347.099C417.679 346.132 418.461 344.998 419.271 343.892C419.857 343.145 420.555 342.482 421.029 341.597C419.913 340.601 418.656 339.772 417.344 339.053C416.953 338.832 416.534 338.915 416.368 339.33C416.032 340.076 415.586 340.767 415.194 341.486C414.608 342.592 413.994 343.726 413.268 344.749C412.878 345.302 412.431 345.495 411.844 345.302C411.453 345.192 411.174 344.86 410.923 344.556C410.644 344.224 410.616 343.892 410.812 343.533C411.816 341.68 412.765 339.8 413.939 338.031C414.273 337.505 414.218 337.311 413.631 337.035C413.1 336.786 412.57 336.509 412.012 336.26C411.37 335.984 410.7 335.708 410.057 335.431C409.639 335.265 409.471 335.376 409.304 335.791C409.081 336.399 408.913 337.062 408.689 337.67C408.187 339.053 407.741 340.464 407.349 341.874C407.238 342.289 406.986 342.648 406.596 342.786C406.037 342.98 405.534 342.758 405.06 342.399C404.641 342.094 404.446 341.763 404.53 341.238C404.641 340.574 404.892 339.91 405.06 339.247C405.451 337.865 405.925 336.509 406.428 335.182C406.679 334.491 406.539 334.186 405.814 333.993C404.892 333.772 403.999 333.495 403.105 333.191C402.883 333.108 402.631 333.136 402.631 333.413C402.604 333.827 402.352 334.186 402.352 334.601C402.323 335.348 402.044 336.067 401.933 336.814C401.822 337.477 401.626 338.114 401.542 338.749C401.486 339.274 401.207 339.744 401.207 340.298C401.207 340.518 400.984 340.657 400.844 340.767C400.397 341.127 399.504 341.127 399.057 340.74C398.667 340.408 398.388 340.049 398.472 339.468C398.555 338.722 398.722 337.975 398.862 337.228C398.973 336.703 398.973 336.177 399.113 335.68C399.364 334.795 399.476 333.883 399.672 332.998C399.728 332.666 399.588 332.583 399.281 332.5C398.359 332.251 397.382 332.307 396.461 332.141C395.596 331.975 394.702 332.03 393.809 332.03C393.278 332.03 393.222 332.112 393.194 332.639C393.194 332.749 393.194 332.859 393.194 332.97C393.194 335.652 393.194 338.307 393.194 340.989C393.083 341.376 393.083 341.68 393.083 342.04ZM368.681 337.505C369.044 337.699 369.1 337.975 369.24 338.197C370.273 339.827 371.25 341.486 372.087 343.201C372.227 343.477 372.45 343.809 372.339 344.168C372.144 344.777 371.697 345.164 371.11 345.33C370.552 345.495 370.161 345.219 369.826 344.777C369.295 344.141 368.905 343.422 368.513 342.703C367.9 341.569 367.341 340.381 366.615 339.302C366.365 338.915 366.168 338.887 365.778 339.081C365.499 339.247 365.22 339.385 364.941 339.551C364.159 340.02 363.489 340.63 362.651 340.989C362.26 341.155 362.233 341.652 362.539 342.04C363.265 342.952 364.047 343.836 364.773 344.777C365.331 345.524 365.973 346.186 366.448 346.989C366.615 347.265 366.867 347.569 366.811 347.928C366.755 348.455 365.862 349.145 365.359 349.201C364.662 349.284 364.215 348.924 363.852 348.426C362.958 347.127 361.981 345.91 360.976 344.722C360.697 344.39 360.446 344.058 360.138 343.753C359.747 343.367 359.496 343.367 359.162 343.699C358.296 344.528 357.318 345.219 356.481 346.076C356.173 346.408 356.173 346.74 356.565 346.906C356.733 346.989 356.872 347.127 356.983 347.238C358.854 349.145 360.697 351.053 362.372 353.099C362.567 353.348 362.734 353.376 362.986 353.182C363.321 352.934 363.684 352.712 364.02 352.408C364.912 351.578 365.862 350.888 366.867 350.197C367.788 349.588 368.681 348.897 369.631 348.343C371.166 347.486 372.674 346.63 374.293 345.966C375.773 345.358 377.253 344.694 378.788 344.197C379.793 343.865 380.826 343.533 381.859 343.256C383.2 342.897 384.54 342.565 385.88 342.316C386.856 342.123 387.89 341.957 388.922 342.011C389.119 342.011 389.341 342.011 389.537 342.011C389.872 342.011 390.012 341.874 389.983 341.542C389.983 341.459 389.983 341.348 389.983 341.265C389.983 338.722 389.983 336.15 389.983 333.606C389.983 333.274 389.983 332.97 389.956 332.639C389.928 332.278 389.761 332.112 389.398 332.085C389.258 332.085 389.119 332.085 388.979 332.085C387.611 331.975 386.298 332.361 384.958 332.334C384.567 332.334 384.177 332.39 383.814 332.556C383.311 332.776 383.2 332.915 383.422 333.413C383.534 333.689 383.59 333.993 383.618 334.269C383.701 334.85 383.842 335.431 383.953 336.011C384.121 336.869 384.372 337.699 384.456 338.556C384.484 338.722 384.511 338.859 384.595 338.998C384.763 339.302 384.763 339.634 384.679 339.937C384.484 340.518 383.646 340.961 382.921 340.878C382.445 340.823 381.748 340.186 381.664 339.689C381.496 338.722 381.356 337.753 381.105 336.786C381.022 336.509 380.826 336.26 380.826 335.957C380.854 335.21 380.603 334.518 380.547 333.772C380.519 333.44 380.379 333.33 380.072 333.33C379.319 333.33 378.621 333.578 377.923 333.8C377.56 333.91 377.169 333.966 376.834 334.215C376.639 334.352 376.387 334.518 376.471 334.713C376.722 335.265 376.861 335.845 377.057 336.426C377.281 337.062 377.532 337.699 377.727 338.363C377.979 339.219 378.202 340.049 378.537 340.878C378.844 341.68 378.565 342.289 377.7 342.703C377.057 343.007 376.192 342.758 375.857 342.094C375.718 341.845 375.634 341.542 375.55 341.265C375.326 340.518 375.131 339.772 374.824 339.053C374.432 338.085 374.07 337.09 373.847 336.067C373.79 335.791 373.679 335.569 373.484 335.403C373.289 335.238 373.121 335.459 372.926 335.542C372.869 335.569 372.842 335.569 372.786 335.569C371.418 336.123 370.133 336.758 368.681 337.505ZM363.349 412.575C363.07 412.851 362.791 413.073 362.567 413.322C361.981 414.012 361.339 414.676 360.725 415.34C359.468 416.667 358.1 417.856 356.815 419.127C356.369 419.57 356.369 419.625 356.815 420.04C357.597 420.759 358.38 421.506 359.189 422.225C359.636 422.64 359.775 422.611 360.167 422.114C360.725 421.395 361.283 420.676 361.813 419.957C362.483 419.017 363.237 418.132 363.823 417.136C364.102 416.667 364.494 416.335 365.163 416.418C365.75 416.501 366.057 416.75 366.336 417.22C366.671 417.773 366.699 417.883 366.308 418.353C365.889 418.907 365.526 419.459 365.08 420.012C364.186 421.118 363.46 422.362 362.455 423.386C362.316 423.524 362.176 423.718 362.092 423.884C361.981 424.105 361.953 424.299 362.26 424.492C363.489 425.322 364.717 426.151 365.973 426.952C366.504 427.284 366.531 427.284 366.839 426.732C367.146 426.123 367.425 425.488 367.732 424.878C368.291 423.718 368.905 422.557 369.631 421.478C370.273 420.538 370.86 420.4 371.836 421.118C372.366 421.506 372.395 421.81 372.116 422.418C372.06 422.557 372.004 422.667 371.948 422.777C370.999 424.602 370.161 426.455 369.1 428.225C368.989 428.391 368.989 428.557 369.24 428.667C369.687 428.889 370.105 429.192 370.552 429.414C371.389 429.828 372.255 430.216 373.121 430.602C373.623 430.824 373.679 430.824 373.874 430.326C373.958 430.077 374.07 429.856 374.126 429.607C374.377 428.557 374.74 427.561 375.019 426.51C375.242 425.681 375.55 424.851 375.801 424.022C375.913 423.635 376.192 423.414 376.582 423.386C377.421 423.331 377.95 423.828 378.453 424.409C378.565 424.519 378.565 424.685 378.509 424.795C378.285 425.127 378.313 425.515 378.202 425.847C377.727 427.284 377.253 428.723 376.806 430.16C376.722 430.409 376.582 430.658 376.582 430.934C376.555 431.432 376.639 431.543 377.085 431.681C377.671 431.874 378.258 432.068 378.872 432.234C379.179 432.317 379.486 432.483 379.793 432.51C380.351 432.593 380.463 432.537 380.547 432.012C380.631 431.487 380.798 430.99 380.91 430.465C381.134 429.275 381.413 428.086 381.692 426.898C381.832 426.289 382.027 425.681 382.753 425.405C383.283 425.183 383.73 425.266 384.148 425.57C384.484 425.847 384.54 426.206 384.484 426.62C384.4 427.312 384.232 427.976 384.148 428.667C384.064 429.58 383.814 430.465 383.674 431.377C383.59 431.874 383.563 432.372 383.535 432.898C383.535 433.118 383.59 433.313 383.869 433.313C384.624 433.367 385.377 433.644 386.13 433.616C386.354 433.616 386.577 433.672 386.829 433.727C387.722 433.865 388.616 433.92 389.537 433.865C389.9 433.837 390.04 433.672 390.012 433.34C390.012 433.201 390.012 433.064 390.012 432.925C390.012 430.465 390.012 428.003 390.012 425.542C390.012 425.156 390.012 424.768 390.012 424.381C390.012 424.077 389.928 423.884 389.565 423.911C389.482 423.911 389.369 423.911 389.285 423.911C388.057 423.939 386.829 423.884 385.629 423.607C384.651 423.386 383.618 423.303 382.641 423.026C381.943 422.833 381.217 422.694 380.519 422.445C379.905 422.225 379.29 421.948 378.676 421.755C377.392 421.34 376.136 420.842 374.908 420.289C373.735 419.764 372.563 419.156 371.445 418.519C370.468 417.966 369.547 417.331 368.626 416.694C367.76 416.114 366.923 415.506 366.113 414.815C365.526 414.317 364.829 413.985 364.326 413.405C364.102 413.073 363.684 412.907 363.349 412.575ZM423.347 422.501C423.654 422.28 423.905 422.114 424.129 421.92C424.966 421.257 425.748 420.566 426.474 419.791C426.809 419.432 426.809 419.405 426.39 419.073C425.971 418.713 425.553 418.326 425.134 417.939C423.487 416.445 422.006 414.786 420.416 413.239C419.857 412.685 419.606 412.685 418.992 413.239C418.321 413.874 417.595 414.455 416.87 415.035C414.552 416.833 412.123 418.464 409.471 419.736C408.438 420.234 407.405 420.732 406.316 421.064C405.06 421.45 403.804 421.948 402.52 422.308C401.598 422.584 400.649 422.806 399.728 422.999C399.057 423.138 398.388 423.275 397.689 423.386C396.377 423.58 395.037 423.745 393.696 423.856C393.054 423.911 393.027 423.884 393.027 424.548C393.027 427.284 393.027 430.022 393.054 432.759C393.054 433.672 393.306 433.865 394.256 433.782C394.841 433.727 395.456 433.644 396.043 433.616C396.991 433.589 397.941 433.561 398.89 433.34C399.448 433.201 399.588 433.035 399.42 432.483C399.336 432.206 399.252 431.902 399.225 431.625C399.197 430.962 399.001 430.326 398.862 429.663C398.694 428.916 398.638 428.169 398.415 427.45C398.304 427.091 398.359 426.676 398.359 426.289C398.359 425.93 398.834 425.376 399.169 425.293C399.951 425.044 400.9 425.542 401.039 426.372C401.207 427.34 401.402 428.308 401.654 429.248C401.905 430.216 402.128 431.211 402.436 432.151C402.547 432.51 402.743 432.51 402.994 432.427C403.943 432.04 404.949 431.902 405.925 431.653C406.372 431.542 406.428 431.432 406.316 430.99C405.925 429.497 405.395 428.031 404.976 426.538C404.865 426.095 404.781 425.653 404.641 425.21C404.306 424.27 404.836 423.497 405.842 423.386C406.512 423.331 407.015 423.607 407.154 424.216C407.321 424.851 407.573 425.488 407.741 426.123C408.103 427.395 408.634 428.611 408.941 429.911C409.025 430.299 409.276 430.353 409.694 430.326C410.002 430.299 410.253 430.105 410.532 430.022C411.481 429.663 412.431 429.331 413.324 428.806C413.742 428.557 413.855 428.225 413.631 427.838C413.184 427.064 412.905 426.234 412.431 425.459C411.816 424.464 411.258 423.414 410.783 422.308C410.7 422.142 410.616 421.948 410.728 421.782C410.923 421.506 411.118 421.201 411.37 421.008C411.844 420.593 412.236 420.62 412.737 420.981C413.017 421.174 413.212 421.45 413.379 421.755C414.273 423.358 415.166 424.934 416.06 426.538C416.395 427.118 416.534 427.147 417.065 426.815C418.182 426.123 419.298 425.432 420.387 424.741C420.834 424.464 420.918 424.133 420.582 423.745C419.857 422.916 419.187 422.031 418.545 421.118C417.874 420.178 417.149 419.266 416.59 418.243C416.423 417.939 416.339 417.634 416.479 417.385C416.786 416.806 417.26 416.335 417.931 416.225C418.461 416.142 418.824 416.528 419.103 416.943C419.131 416.972 419.159 416.999 419.187 417.055C420.248 418.464 421.197 419.957 422.314 421.34C422.732 421.699 423.04 422.086 423.347 422.501ZM439.959 367.422C439.707 366.537 439.344 365.735 439.122 364.906C439.009 364.464 438.758 364.076 438.619 363.661C438.535 363.441 438.395 363.358 438.199 363.441C437.39 363.773 436.553 363.993 435.771 364.381C434.849 364.851 433.928 365.266 432.979 365.681C432.225 366.013 431.527 365.874 430.969 365.266C430.717 364.989 430.438 364.657 430.55 364.242C430.717 363.634 430.996 363.109 431.638 362.86C433.258 362.197 434.793 361.339 436.496 360.814C437.056 360.648 437.138 360.316 436.888 359.818C436.553 359.183 436.19 358.547 435.883 357.883C435.743 357.578 435.548 357.468 435.24 357.524C435.017 357.551 434.822 357.634 434.598 357.744C432.7 358.851 430.885 360.15 428.959 361.228C428.512 361.477 428.066 361.782 427.619 362.031C427.479 362.114 427.311 362.251 427.227 362.39C427.143 362.528 427.34 362.611 427.395 362.722C427.619 363.219 427.869 363.717 428.121 364.215C428.763 365.515 429.433 366.814 429.88 368.168C430.298 369.441 430.801 370.685 431.108 371.984C431.416 373.228 431.806 374.445 431.89 375.717C431.89 375.856 431.918 375.993 431.946 376.132C432.169 377.127 432.253 378.123 432.364 379.118C432.448 379.699 432.393 380.28 432.448 380.833C432.477 381.302 432.532 381.302 433.007 381.331C433.146 381.331 433.286 381.331 433.425 381.331C435.854 381.331 438.256 381.331 440.685 381.331C441.048 381.331 441.438 381.331 441.801 381.331C442.052 381.331 442.164 381.248 442.164 380.97C442.136 379.865 442.164 378.759 441.996 377.652C441.941 377.293 441.801 377.155 441.41 377.155C439.959 377.183 438.562 377.515 437.111 377.486C436.999 377.486 436.888 377.542 436.775 377.598C436.106 377.791 435.436 377.764 434.766 377.735C434.459 377.735 434.291 377.515 434.151 377.349C433.677 376.685 434.012 375.358 434.766 375.026C435.073 374.888 435.436 374.722 435.743 374.722C437.083 374.722 438.395 374.307 439.764 374.39C440.154 374.418 440.545 374.363 440.936 374.39C441.243 374.418 441.327 374.28 441.327 373.975C441.354 372.842 441.048 371.764 440.769 370.685C440.712 370.464 440.573 370.408 440.349 370.464C439.986 370.547 439.651 370.713 439.288 370.768C438.199 370.961 437.222 371.432 436.19 371.791C435.603 371.984 435.045 372.206 434.403 372.206C433.788 372.206 433.174 371.735 432.979 371.127C432.783 370.574 433.09 370.022 433.621 369.607C434.096 369.247 434.654 369.053 435.185 368.915C436.832 368.445 438.367 367.919 439.959 367.422ZM345.62 381.331C346.961 381.331 348.328 381.331 349.669 381.331C349.836 381.331 350.004 381.331 350.143 381.331C350.311 381.331 350.422 381.248 350.394 381.082C350.338 380.445 350.646 379.865 350.618 379.228C350.59 378.289 350.981 377.376 350.953 376.436C350.953 376.381 350.953 376.353 350.981 376.298C351.288 375.607 351.26 374.86 351.399 374.141C351.595 373.145 351.791 372.15 352.098 371.238C352.517 369.993 352.823 368.722 353.354 367.505C353.996 366.067 354.583 364.574 355.364 363.192C355.531 362.888 355.923 362.639 355.755 362.28C355.588 361.948 355.169 361.865 354.862 361.699C353.438 360.98 352.041 360.177 350.646 359.32C349.752 358.768 348.915 358.076 347.909 357.661C347.463 357.468 347.435 357.468 347.24 357.939C347.212 358.022 347.156 358.105 347.1 358.187C346.821 358.768 346.514 359.349 346.235 359.957C346.067 360.316 346.123 360.455 346.514 360.62C347.714 361.145 348.915 361.726 350.059 362.363C350.674 362.694 351.316 362.998 351.874 363.413C352.041 363.551 352.293 363.634 352.32 363.91C352.404 364.519 352.32 365.1 351.846 365.542C351.372 365.984 350.757 366.013 350.227 365.791C349.39 365.459 348.58 365.017 347.77 364.63C346.988 364.242 346.206 363.856 345.453 363.468C345.201 363.358 344.951 363.33 344.699 363.385C344.42 363.441 344.532 363.717 344.448 363.883C344.113 364.519 343.974 365.21 343.722 365.874C343.554 366.289 343.332 366.703 343.303 367.174C343.275 367.45 343.303 367.699 343.582 367.782C344.448 368.085 345.314 368.334 346.179 368.611C346.793 368.805 347.407 368.97 347.993 369.219C348.217 369.302 348.412 369.385 348.635 369.441C349.92 369.827 350.338 370.934 349.445 372.04C349.194 372.344 348.887 372.51 348.385 372.316C347.966 372.15 347.491 372.067 347.072 371.93C346.29 371.708 345.48 371.486 344.699 371.238C344.057 371.017 343.359 370.878 342.745 370.602C342.605 370.547 342.354 370.491 342.298 370.768C342.019 371.735 341.879 372.731 341.712 373.699C341.628 374.141 341.851 374.363 342.326 374.39C342.688 374.418 343.08 374.445 343.443 374.417C344.867 374.417 346.262 374.666 347.659 374.777C348.97 374.887 349.417 376.105 348.719 377.237C348.469 377.652 348.049 377.764 347.603 377.764C346.737 377.791 345.899 377.569 345.034 377.486C344.504 377.432 343.974 377.432 343.443 377.32C342.801 377.21 342.158 377.237 341.488 377.183C341.209 377.155 341.042 377.293 340.985 377.542C340.93 377.791 340.874 378.04 340.874 378.289C340.846 379.118 340.819 379.948 340.819 380.777C340.819 381.331 340.819 381.331 341.405 381.331C342.829 381.331 344.224 381.331 345.62 381.331ZM356.146 404.197C356.006 404.224 355.811 404.197 355.672 404.39C355.531 404.611 355.28 404.694 355.057 404.805C354.331 405.219 353.577 405.607 352.851 405.994C351.846 406.519 350.869 407.156 349.864 407.653C349.306 407.93 348.803 408.261 348.217 408.51C347.743 408.732 347.714 408.925 348.049 409.34C348.272 409.616 348.469 409.893 348.664 410.169C349.417 411.275 350.088 412.464 350.925 413.515C351.316 413.985 351.707 414.455 352.07 414.925C352.628 415.672 353.214 416.391 353.885 417.055C354.303 417.468 354.47 417.441 354.917 417.026C355.113 416.86 355.225 416.64 355.392 416.445C356.536 415.367 357.681 414.261 358.826 413.21C359.58 412.519 360.389 411.883 361.144 411.192C361.562 410.805 361.534 410.722 361.171 410.308C360.446 409.478 359.747 408.62 359.022 407.764C358.212 406.768 357.459 405.717 356.815 404.611C356.649 404.335 356.481 404.169 356.146 404.197ZM426.921 404.28C426.725 404.169 426.642 404.363 426.501 404.473C426.334 404.639 426.222 404.833 426.083 405.026C425.245 406.27 424.408 407.515 423.487 408.676C423.011 409.284 422.509 409.865 422.006 410.473C421.672 410.916 421.7 411.053 422.118 411.358C423.431 412.353 424.576 413.542 425.832 414.62C426.725 415.423 427.535 416.335 428.4 417.136C428.903 417.58 428.987 417.551 429.433 417.055C430.55 415.782 431.611 414.483 432.616 413.127C433.398 412.077 434.151 411.053 434.849 409.948C435.575 408.786 435.491 409.035 434.459 408.427C432.309 407.183 430.132 405.966 427.982 404.694C427.674 404.473 427.367 404.224 426.921 404.28ZM348.999 354.731C349.278 354.731 349.362 354.897 349.501 354.98C351.819 356.362 353.996 357.939 356.202 359.486C356.509 359.681 356.733 360.04 357.123 360.04C357.57 360.04 357.597 359.542 357.821 359.266C358.686 358.159 359.525 357.053 360.446 356.002C360.864 355.505 360.864 355.477 360.389 355.007C359.049 353.68 357.738 352.353 356.425 350.998C355.839 350.39 355.225 349.836 354.61 349.256C354.164 348.841 353.717 348.869 353.326 349.311C352.991 349.726 352.628 350.141 352.293 350.556C351.232 351.883 350.254 353.348 348.999 354.731ZM422.147 355.505C422.761 356.28 423.374 356.998 423.961 357.744C424.492 358.408 425.022 359.072 425.58 359.735C425.721 359.901 425.832 360.04 426.139 359.818C426.418 359.569 426.781 359.376 427.088 359.155C429.182 357.578 431.388 356.168 433.593 354.814C433.845 354.675 433.872 354.565 433.704 354.343C433.119 353.542 432.504 352.74 431.918 351.91C431.276 351.026 430.466 350.307 429.88 349.367C429.769 349.201 429.601 349.09 429.433 348.952C429.014 348.675 428.875 348.675 428.568 349.062C428.177 349.616 427.674 350.058 427.227 350.528C425.58 352.215 423.905 353.818 422.147 355.505ZM395.623 383.155C395.623 381.109 393.641 379.035 391.687 379.091C389.398 379.174 387.583 380.722 387.527 383.1C387.471 384.98 389.677 387.192 391.659 387.192C393.696 387.192 395.735 385.145 395.623 383.155Z" fill="#E9CC97"/>
<path d="M391.524 380.998C392.808 380.832 393.59 382.159 393.674 383.153C393.758 384.038 392.725 385.2 391.636 385.2C390.463 385.173 389.513 384.37 389.486 383.292C389.402 382.159 390.35 380.859 391.524 380.998Z" fill="#E9CC97"/>
<path d="M225.025 568.583V514.82H233.783V561.081H256.441V568.583H225.025Z" fill="#E9CC97"/>
<path d="M300.004 527.875V568.583H293.253L292.086 563.103H291.612C290.761 564.501 289.678 565.666 288.365 566.597C287.051 567.505 285.592 568.178 283.987 568.619C282.381 569.085 280.691 569.318 278.915 569.318C275.875 569.318 273.271 568.803 271.107 567.774C268.966 566.719 267.325 565.101 266.181 562.919C265.038 560.737 264.467 557.918 264.467 554.461V527.875H273.077V552.844C273.077 556.007 273.709 558.372 274.975 559.941C276.263 561.51 278.258 562.294 280.958 562.294C283.561 562.294 285.628 561.756 287.161 560.676C288.693 559.598 289.775 558.005 290.408 555.895C291.065 553.787 291.394 551.201 291.394 548.136V527.875H300.004Z" fill="#E9CC97"/>
<path d="M321.241 547.769L307.74 527.875H317.519L326.749 542.18L336.017 527.875H345.76L332.186 547.769L346.452 568.583H336.637L326.749 553.322L316.825 568.583H307.084L321.241 547.769Z" fill="#E9CC97"/>
<path d="M369.73 569.318C365.911 569.318 362.603 568.571 359.806 567.075C357.008 565.58 354.856 563.288 353.348 560.199C351.839 557.109 351.086 553.188 351.086 548.431C351.086 543.479 351.913 539.434 353.567 536.296C355.221 533.158 357.508 530.841 360.427 529.346C363.37 527.85 366.738 527.103 370.533 527.103C372.941 527.103 375.118 527.348 377.064 527.838C379.034 528.304 380.701 528.88 382.062 529.566L379.509 536.48C378.025 535.867 376.505 535.353 374.947 534.935C373.391 534.518 371.895 534.31 370.46 534.31C368.101 534.31 366.131 534.838 364.549 535.891C362.992 536.946 361.825 538.515 361.047 540.599C360.292 542.682 359.916 545.268 359.916 548.358C359.916 551.349 360.304 553.874 361.083 555.933C361.862 557.967 363.017 559.513 364.549 560.566C366.082 561.596 367.967 562.111 370.204 562.111C372.418 562.111 374.4 561.841 376.152 561.301C377.904 560.763 379.557 560.064 381.114 559.206V566.707C379.581 567.59 377.94 568.24 376.188 568.657C374.437 569.098 372.285 569.318 369.73 569.318Z" fill="#E9CC97"/>
<path d="M399.174 511.363V525.742C399.174 527.237 399.125 528.696 399.027 530.118C398.954 531.539 398.869 532.643 398.772 533.427H399.247C400.098 532.005 401.144 530.841 402.385 529.934C403.625 529.002 405.011 528.303 406.543 527.837C408.101 527.372 409.754 527.139 411.506 527.139C414.595 527.139 417.222 527.666 419.387 528.72C421.552 529.75 423.206 531.355 424.349 533.537C425.516 535.719 426.101 538.551 426.101 542.033V568.583H417.526V543.65C417.526 540.487 416.881 538.122 415.592 536.553C414.303 534.96 412.309 534.162 409.609 534.162C407.005 534.162 404.938 534.714 403.406 535.818C401.897 536.896 400.815 538.502 400.159 540.635C399.501 542.743 399.174 545.317 399.174 548.358V568.583H390.6V511.363H399.174Z" fill="#E9CC97"/>
<path d="M473.863 548.137C473.863 551.521 473.425 554.523 472.549 557.147C471.673 559.77 470.397 561.988 468.718 563.803C467.039 565.592 465.021 566.965 462.661 567.921C460.302 568.853 457.638 569.318 454.671 569.318C451.898 569.318 449.356 568.853 447.045 567.921C444.734 566.965 442.728 565.592 441.025 563.803C439.347 561.988 438.045 559.77 437.121 557.147C436.197 554.523 435.734 551.521 435.734 548.137C435.734 543.65 436.501 539.851 438.033 536.738C439.59 533.599 441.803 531.209 444.674 529.566C447.544 527.924 450.961 527.103 454.927 527.103C458.648 527.103 461.932 527.924 464.778 529.566C467.624 531.209 469.849 533.599 471.455 536.738C473.06 539.875 473.863 543.675 473.863 548.137ZM444.564 548.137C444.564 551.104 444.917 553.641 445.622 555.749C446.352 557.857 447.471 559.475 448.979 560.604C450.487 561.706 452.433 562.258 454.817 562.258C457.201 562.258 459.147 561.706 460.655 560.604C462.163 559.475 463.269 557.857 463.975 555.749C464.68 553.641 465.033 551.104 465.033 548.137C465.033 545.171 464.68 542.658 463.975 540.599C463.269 538.515 462.163 536.933 460.655 535.855C459.147 534.751 457.189 534.2 454.78 534.2C451.229 534.2 448.638 535.401 447.009 537.804C445.38 540.206 444.564 543.65 444.564 548.137Z" fill="#E9CC97"/>
<path d="M504.765 527.103C509.314 527.103 512.853 528.292 515.383 530.67C517.937 533.023 519.214 536.811 519.214 542.033V568.583H510.64V543.65C510.64 540.488 509.994 538.123 508.706 536.554C507.417 534.96 505.422 534.163 502.722 534.163C498.806 534.163 496.082 535.376 494.549 537.804C493.04 540.231 492.287 543.749 492.287 548.358V568.583H483.713V527.875H490.39L491.593 533.391H492.068C492.943 531.97 494.027 530.805 495.315 529.898C496.629 528.966 498.088 528.267 499.694 527.801C501.323 527.335 503.014 527.103 504.765 527.103Z" fill="#E9CC97"/>
<path d="M566.974 548.137C566.974 551.521 566.536 554.523 565.66 557.147C564.785 559.77 563.508 561.988 561.83 563.803C560.152 565.592 558.132 566.965 555.773 567.921C553.413 568.853 550.75 569.318 547.782 569.318C545.009 569.318 542.467 568.853 540.157 567.921C537.846 566.965 535.839 565.592 534.136 563.803C532.458 561.988 531.157 559.77 530.232 557.147C529.308 554.523 528.846 551.521 528.846 548.137C528.846 543.65 529.612 539.851 531.145 536.738C532.701 533.599 534.915 531.209 537.785 529.566C540.655 527.924 544.072 527.103 548.038 527.103C551.76 527.103 555.043 527.924 557.889 529.566C560.735 531.209 562.961 533.599 564.566 536.738C566.171 539.875 566.974 543.675 566.974 548.137ZM537.676 548.137C537.676 551.104 538.029 553.641 538.734 555.749C539.464 557.857 540.582 559.475 542.09 560.604C543.599 561.706 545.545 562.258 547.929 562.258C550.312 562.258 552.258 561.706 553.766 560.604C555.274 559.475 556.382 557.857 557.086 555.749C557.792 553.641 558.144 551.104 558.144 548.137C558.144 545.171 557.792 542.658 557.086 540.599C556.382 538.515 555.274 536.933 553.766 535.855C552.258 534.751 550.3 534.2 547.892 534.2C544.34 534.2 541.75 535.401 540.12 537.804C538.491 540.206 537.676 543.65 537.676 548.137Z" fill="#E9CC97"/>
</g>
<defs>
<linearGradient id="paint0_linear_190_1903" x1="3.15176e-06" y1="29.5455" x2="1289.46" y2="-263.619" gradientUnits="userSpaceOnUse">
<stop stop-color="#1B120D"/>
<stop offset="1" stop-color="#964315"/>
</linearGradient>
<clipPath id="clip0_190_1903">
<rect width="792" height="900" fill="white"/>
</clipPath>
</defs>
</svg>
