<svg width="192" height="54" viewBox="0 0 192 54" fill="none" xmlns="http://www.w3.org/2000/svg">
<path d="M18.803 3.50742C18.956 3.52584 19.0995 3.44295 19.2335 3.3969C19.5013 3.314 19.7788 3.24953 20.0466 3.17584C20.2188 3.12058 20.4006 3.09295 20.5728 3.04689C20.7737 2.99163 20.9937 2.97321 21.1946 2.90873C21.3764 2.84426 21.5773 2.80742 21.7782 2.79821C22.0843 2.77979 22.3713 2.67847 22.6775 2.68768C22.7827 2.68768 22.8401 2.64163 22.8592 2.54952C22.9358 2.12583 23.1367 1.75741 23.3854 1.42583C23.8063 0.863979 24.3516 0.449502 25.0309 0.210026C25.5475 0.0258138 26.0641 -0.0202404 26.6094 0.00739144C26.9824 0.0258127 27.3268 0.117919 27.6712 0.237657C27.9678 0.338973 28.2261 0.513976 28.4653 0.707398C28.7523 0.946874 29.0584 1.17714 29.2306 1.51793C29.3741 1.79425 29.5463 2.05215 29.5941 2.36531C29.6228 2.5311 29.7089 2.64163 29.9098 2.66926C30.1394 2.69689 30.3786 2.73373 30.6178 2.77058C31.1439 2.85347 31.6605 2.97321 32.1771 3.08374C32.6363 3.18505 33.086 3.314 33.5356 3.45216C34.1 3.62716 34.6549 3.81137 35.2098 4.0048C35.535 4.11532 35.8507 4.25348 36.1664 4.39164C36.6447 4.58507 37.1231 4.77849 37.5823 4.99954C37.9841 5.19297 38.3859 5.37718 38.7781 5.59823C39.0747 5.76402 39.3904 5.92981 39.6869 6.09561C39.7922 6.15087 39.8783 6.25219 40.0026 6.27982C40.0218 6.30745 40.06 6.30745 40.0887 6.29824C40.1079 6.40877 40.2131 6.39956 40.2801 6.42719C40.2801 6.49166 40.3279 6.48245 40.3757 6.48245C40.4427 6.58377 40.5479 6.64824 40.6723 6.66666C40.6914 6.76798 40.768 6.76798 40.8541 6.76798C40.8541 6.85088 40.9115 6.85088 40.9689 6.85088C40.9784 6.88772 40.9976 6.91535 41.0358 6.93377C41.3611 7.14562 41.6864 7.36667 42.0116 7.58772C42.1551 7.68904 42.2795 7.81799 42.4517 7.89168L42.4613 7.9101L42.4804 7.90089C42.49 7.94694 42.5282 7.96536 42.5665 7.96536H42.5761C42.6048 8.06668 42.6622 8.14957 42.7865 8.14957C42.8822 8.27852 42.997 8.39826 43.1596 8.45352C43.1596 8.50879 43.1979 8.518 43.2457 8.50879C43.2553 8.57326 43.3031 8.6101 43.3701 8.6101C43.3605 8.67458 43.3988 8.693 43.4562 8.68379C43.638 8.92326 43.8771 9.08906 44.1354 9.24564C44.1928 9.38379 44.3268 9.44827 44.432 9.54959C44.5659 9.66932 44.6329 9.84433 44.7764 9.92722C44.8912 9.9917 44.9773 10.0838 45.073 10.1575C45.073 10.1851 45.0825 10.1943 45.1112 10.1851C45.1017 10.2496 45.1495 10.2772 45.1878 10.3233C45.4174 10.572 45.7139 10.7562 45.934 11.0141C45.9722 11.0509 45.9914 11.1062 46.0583 11.1062C46.0679 11.2075 46.1349 11.2535 46.221 11.2812C46.221 11.3364 46.2592 11.3641 46.2879 11.4009C46.4888 11.6404 46.6897 11.8707 46.8906 12.1009C46.9959 12.2207 47.0628 12.3588 47.1968 12.4509L47.2063 12.4601C47.2063 12.5246 47.2255 12.5615 47.2924 12.5615C47.2924 12.6167 47.302 12.6628 47.3785 12.6536C47.3881 12.6812 47.3976 12.7088 47.4168 12.7365C47.4359 12.8378 47.4838 12.9022 47.589 12.9391L47.6081 12.9299C47.6081 12.9299 47.5986 12.9391 47.589 12.9391C47.7325 13.2246 47.9143 13.4733 48.1439 13.6944C48.1343 13.7404 48.163 13.7865 48.1821 13.8233C48.4213 14.118 48.5935 14.4588 48.8135 14.772C48.9092 14.901 48.9379 15.076 49.1005 15.1681L49.1101 15.1773C49.1292 15.3154 49.1675 15.4536 49.311 15.5273C49.3205 15.6746 49.3875 15.7944 49.5119 15.8865C49.531 16.0339 49.5884 16.1628 49.7128 16.2549C49.7702 16.5312 49.9424 16.7615 50.0763 17.001C50.0763 17.0102 50.0859 17.0102 50.0954 17.0102L50.0859 17.0194L50.0954 17.0286C50.105 17.1668 50.1624 17.2957 50.2676 17.3878C50.2581 17.4431 50.2772 17.4983 50.3059 17.5444C50.392 17.7655 50.4781 17.9773 50.5929 18.1891C50.5833 18.2628 50.6599 18.2997 50.679 18.3641C50.7077 18.4747 50.7842 18.6589 50.8416 18.7326C50.8416 18.7694 50.8416 18.797 50.8703 18.8247C50.8608 18.8891 50.8608 18.9536 50.8895 18.9997C50.9756 19.1563 51.0138 19.322 51.0712 19.4878C51.1765 19.801 51.2913 20.1142 51.3869 20.4365C51.473 20.7313 51.5783 21.026 51.6452 21.33C51.6739 21.4681 51.7122 21.6155 51.76 21.7444C51.8748 22.0484 51.9322 22.3615 51.9992 22.6655C52.0566 22.905 52.0949 23.1629 52.1427 23.4023C52.2097 23.78 52.2862 24.1668 52.3149 24.5537C52.3245 24.6181 52.3149 24.6826 52.3914 24.7379C52.5732 24.8668 52.7454 25.0234 52.975 25.0879C52.975 25.1339 53.0037 25.1524 53.042 25.1708C53.5299 25.4747 53.903 25.88 54.2282 26.3405C54.6109 26.8655 54.8405 27.4458 54.9075 28.0813C54.9362 28.3116 55.0031 28.5327 54.9744 28.7629C54.917 29.2235 54.8788 29.684 54.7257 30.1353C54.5631 30.6235 54.2952 31.0472 53.9699 31.4432C53.5873 31.913 53.0994 32.263 52.5062 32.4748C52.2958 32.5485 52.181 32.6866 52.2288 32.9077C52.1044 33.4327 52.0183 33.9669 51.8653 34.4919C51.7792 34.7867 51.7026 35.0814 51.6357 35.3761C51.5496 35.7169 51.4443 36.0577 51.32 36.3893C51.2339 36.6288 51.1573 36.8591 51.0808 37.0985C50.9851 37.4025 50.8703 37.6972 50.746 37.992C50.5451 38.4709 50.3346 38.9407 50.1241 39.4104C49.7893 40.1472 49.4545 40.8749 49.0144 41.5565C48.9857 41.6025 48.957 41.6486 48.9666 41.7038C48.7561 41.8604 48.6604 42.0999 48.5169 42.3025C48.4691 42.3762 48.3543 42.4315 48.4022 42.5512C48.2682 42.6341 48.0578 42.9473 48.0195 43.0946L48.0099 43.1038C47.8951 43.1683 47.7994 43.242 47.7516 43.3617C47.7229 43.4354 47.6751 43.4907 47.6273 43.546C47.2829 43.942 46.9576 44.3565 46.5941 44.7433C46.2688 45.0933 45.9531 45.471 45.6278 45.821C45.4461 46.0144 45.2452 46.1894 45.0634 46.3828C44.5755 46.8802 44.0302 47.3131 43.4945 47.7644C43.1118 48.0868 42.7004 48.3907 42.2891 48.6855C42.2125 48.7407 42.1073 48.796 42.069 48.8973C42.0116 48.8789 41.9829 48.9249 41.9447 48.9526C41.7055 49.1184 41.4759 49.3026 41.2367 49.4684C40.6532 49.8736 40.0409 50.2237 39.4286 50.5737C38.9216 50.8684 38.3954 51.1355 37.8597 51.375C37.4197 51.5684 36.9892 51.771 36.5395 51.9552C36.0899 52.1395 35.6307 52.3145 35.1715 52.4802C34.9419 52.5631 34.7123 52.6552 34.4636 52.7105C34.3105 52.7474 34.167 52.8118 34.0139 52.8487C33.7556 52.9224 33.4878 52.996 33.2295 53.0697C33.0668 53.1158 32.8946 53.1618 32.7224 53.1987C32.4928 53.2447 32.2728 53.3184 32.0432 53.3645C31.8423 53.4013 31.6318 53.4105 31.4405 53.475C31.1918 53.5579 30.9143 53.4934 30.6847 53.6224C30.3595 53.5947 30.0629 53.7237 29.7376 53.7237C29.6707 53.7237 29.5846 53.7145 29.5654 53.8066C29.5367 53.7881 29.508 53.7881 29.4698 53.8066C29.2784 53.7697 29.0871 53.8066 28.9053 53.8158C28.6088 53.8342 28.3218 53.9171 28.0156 53.9079C27.8243 53.8987 27.633 53.9171 27.4416 53.9355C27.3842 53.9355 27.3077 53.9263 27.2694 54C27.2407 53.9816 27.212 53.9816 27.1738 54C27.0494 53.9079 27.0016 53.9079 26.8772 54C26.8102 53.9816 26.7528 53.9816 26.6859 54C26.6572 53.9539 26.6189 53.9447 26.5902 54C26.5615 53.9816 26.5328 53.9816 26.5041 54C26.3989 53.8987 26.3702 53.8987 26.3032 54C26.2076 54 26.1215 54 26.0258 54C25.9014 53.8987 25.658 54 25.658 54L25.6431 54C25.6431 54 25.4709 53.9263 25.3848 53.9171C25.1552 53.9079 24.9256 53.9171 24.696 53.9079C24.4856 53.8987 24.256 53.9263 24.0551 53.871C23.7585 53.7974 23.4619 53.8066 23.1654 53.8158C23.1367 53.7974 23.0984 53.7974 23.0697 53.8066C23.0601 53.7421 23.0027 53.7237 22.9453 53.7145C22.5722 53.6684 22.1991 53.6039 21.826 53.5395C21.3764 53.4658 20.9268 53.3737 20.4867 53.2724C20.0945 53.1803 19.7118 53.0881 19.3196 52.996C18.9369 52.9039 18.5638 52.8026 18.2003 52.6737C17.7793 52.5263 17.3393 52.4066 16.9279 52.2316C16.4878 52.0566 16.0382 51.8908 15.6077 51.6881C15.1581 51.4763 14.7085 51.2552 14.2588 51.0342C13.8666 50.8315 13.4839 50.6197 13.1108 50.4079C12.6899 50.1684 12.2785 49.9105 11.8672 49.6526C11.4654 49.4039 11.0636 49.146 10.6905 48.8605C10.4991 48.7131 10.3078 48.5565 10.1069 48.4092C9.5903 48.0223 9.11197 47.5894 8.60493 47.1933C8.10747 46.7973 7.65784 46.346 7.2082 45.9039C6.83511 45.5354 6.46201 45.1762 6.11761 44.771C5.68711 44.2644 5.29488 43.7302 4.90265 43.196C4.87395 43.1591 4.86438 43.1131 4.79741 43.1223L4.78785 43.1131C4.79741 43.0394 4.76871 42.9841 4.71131 42.9288C4.61565 42.8183 4.53911 42.6986 4.45301 42.5788C4.06078 42.0446 3.72595 41.4644 3.38155 40.9025C2.92235 40.1472 2.53969 39.3551 2.18572 38.5538C2.04222 38.2222 1.91785 37.8814 1.77436 37.5406C1.56389 37.0433 1.37256 36.5275 1.22906 36.0025C1.20992 35.9472 1.18122 35.9104 1.13339 35.8735C1.14296 35.8367 1.13339 35.809 1.12382 35.7814C1.13339 35.5972 1.04729 35.4314 0.989891 35.2564C0.903791 34.9617 0.817691 34.6669 0.760291 34.3722C0.722024 34.1603 0.664625 33.9577 0.616791 33.7551C0.568958 33.4972 0.511559 33.2301 0.463726 32.9722C0.387193 32.5669 0.301093 32.1616 0.25326 31.7564C0.243694 31.6919 0.205426 31.6458 0.16716 31.5906C0.186293 31.5077 0.176727 31.434 0.157594 31.3603C0.19586 31.1485 0.100193 30.955 0.0906262 30.7524C0.0523597 30.1077 0.0427942 29.4721 0.0140943 28.8274C-0.00503896 28.2103 -0.0146062 27.5932 0.0523603 26.9761C0.100193 26.5708 0.0523603 26.1471 0.148027 25.7418C0.176727 25.6405 0.176727 25.53 0.148027 25.4195C0.16716 25.355 0.176727 25.2905 0.157594 25.2353C0.22456 25.1063 0.243693 24.9774 0.243693 24.83C0.25326 24.6089 0.243692 24.3879 0.329792 24.176C0.358492 24.1116 0.358493 24.0287 0.339359 23.9458C0.358493 23.8997 0.358493 23.8537 0.348927 23.7984C0.377627 23.7616 0.415892 23.7247 0.425459 23.6879C0.435025 23.4852 0.501993 23.2918 0.540259 23.0892C0.607226 22.7208 0.702891 22.3708 0.788991 22.0115C0.836824 21.7997 0.922924 21.5879 0.913358 21.3668C0.932491 21.3392 0.932491 21.3115 0.922925 21.2747C0.999458 21.2471 0.999457 21.1826 1.00902 21.1181C1.01859 21.0536 1.01859 20.9984 1.04729 20.9339C1.15252 20.676 1.20992 20.4089 1.28646 20.151C1.41082 19.7181 1.56389 19.2944 1.71695 18.8799C1.87959 18.4562 2.06135 18.0326 2.24312 17.6181C2.50142 17.0562 2.76928 16.4944 3.05628 15.9417C3.16152 15.7391 3.28588 15.5457 3.40068 15.3523C3.51548 15.1588 3.63985 14.9654 3.76421 14.772C3.88858 14.5786 4.01295 14.3759 4.15645 14.1917C4.29038 14.0167 4.38605 13.8141 4.53911 13.6483C4.67305 13.5009 4.76871 13.3167 4.89308 13.1694C5.01745 13.022 5.09398 12.8562 5.22791 12.7088C5.36184 12.5707 5.48621 12.3957 5.60101 12.2299C5.72538 12.0549 5.91671 11.9167 5.99324 11.7049C6.06021 11.6957 6.08891 11.668 6.07934 11.6036C6.18458 11.5759 6.23241 11.5022 6.27068 11.4009C6.39504 11.3457 6.46201 11.2443 6.51941 11.143C6.56724 11.1154 6.62464 11.1062 6.62464 11.0417C6.71074 10.9496 6.79684 10.8483 6.88294 10.7562C6.94034 10.7101 7.02644 10.6733 7.03601 10.5812C7.10297 10.5812 7.12211 10.5443 7.13167 10.4891C7.23691 10.4799 7.25604 10.3878 7.29431 10.3233C7.34214 10.3049 7.4091 10.2956 7.39954 10.222L7.40911 10.2127C7.50477 10.2127 7.52391 10.1299 7.56217 10.0654C7.7248 9.94564 7.87787 9.83511 7.9831 9.66011C8.05007 9.66011 8.07877 9.62327 8.0979 9.56801C8.26054 9.4759 8.3849 9.34695 8.49014 9.20879C8.5571 9.218 8.57624 9.16274 8.5858 9.11669C8.69104 9.09827 8.758 9.03379 8.79627 8.94168C8.94933 8.88642 9.06413 8.7851 9.14067 8.65616C9.20763 8.66537 9.22677 8.61931 9.23633 8.56405C9.37027 8.50879 9.4755 8.41668 9.58073 8.32457C9.65727 8.2601 9.77207 8.23247 9.80077 8.11273C9.85816 8.11273 9.906 8.10352 9.89643 8.02983C9.9634 8.02062 10.0208 8.01141 10.0304 7.92852H10.0399C10.1547 7.90089 10.2408 7.83641 10.2982 7.7351C10.3652 7.74431 10.4035 7.70746 10.4226 7.6522C10.5374 7.62457 10.6331 7.5693 10.6809 7.45878C10.7287 7.45878 10.7957 7.46799 10.767 7.38509C10.8053 7.40351 10.834 7.38509 10.8531 7.36667C10.9583 7.34825 11.0349 7.29299 11.0731 7.19167C11.1401 7.19167 11.1784 7.16404 11.1879 7.09956C11.2453 7.09035 11.3123 7.09035 11.3219 7.00746L11.3314 6.99825C11.4558 6.97983 11.5323 6.90614 11.6089 6.82324C11.6567 6.81403 11.7332 6.83246 11.7237 6.74956C11.8767 6.68509 12.0202 6.62061 12.1063 6.47324C12.2977 6.44561 12.4412 6.32587 12.5847 6.20613C12.6708 6.18771 12.7569 6.1785 12.776 6.08639C12.7856 6.09561 12.7951 6.09561 12.8047 6.07718C12.8621 6.07718 12.9291 6.07718 12.9386 6.0035L12.9482 5.99429C13.0056 5.99429 13.0726 6.0035 13.0917 5.92061C13.1204 5.93903 13.13 5.9206 13.1395 5.90218C13.2448 5.86534 13.35 5.8285 13.417 5.72718C13.4457 5.72718 13.4839 5.72718 13.5126 5.70876C13.6753 5.61666 13.8379 5.52455 14.0101 5.43244C14.0675 5.44165 14.1249 5.43244 14.1249 5.35876C14.211 5.34955 14.2971 5.36797 14.3354 5.25744C14.3641 5.26665 14.3832 5.25744 14.3928 5.23902C14.4597 5.24823 14.5076 5.22981 14.5171 5.16533C14.5458 5.17454 14.5649 5.17455 14.5841 5.15612C14.6415 5.16533 14.6893 5.14691 14.6989 5.08244C14.7658 5.07323 14.8615 5.11007 14.8902 5.00875C14.9572 4.98112 15.0529 5.00875 15.0911 4.91665H15.1102L15.1198 4.89823C15.1485 4.88902 15.1868 4.87981 15.2155 4.87059C15.2729 4.87059 15.3398 4.87981 15.3494 4.79691C15.3685 4.7877 15.3877 4.7877 15.4068 4.77849C15.4451 4.7877 15.4929 4.77849 15.5216 4.75086C15.5599 4.73244 15.6077 4.7048 15.646 4.68638C15.7129 4.69559 15.7608 4.66796 15.7703 4.60349C15.799 4.6127 15.8182 4.6127 15.8373 4.59428C15.9808 4.57585 16.1052 4.5298 16.2104 4.42848C16.3252 4.42848 16.4113 4.36401 16.507 4.31796C16.5644 4.31796 16.6313 4.32717 16.6409 4.24427C16.6983 4.25348 16.7461 4.23506 16.794 4.21664C16.8609 4.22585 16.9088 4.20743 16.9183 4.14296C16.9566 4.16138 16.9949 4.14296 17.0331 4.12454C17.0618 4.12454 17.0905 4.12454 17.0905 4.08769C17.1288 4.0969 17.1479 4.06927 17.1671 4.04164C17.234 4.03243 17.2532 4.01401 17.3488 3.96795C17.368 3.95874 17.3871 3.95874 17.4062 3.94953C17.4732 3.94032 17.5593 3.97716 17.588 3.87585C17.6263 3.89427 17.655 3.86664 17.6932 3.85743C17.7698 3.85743 17.8367 3.86664 17.8654 3.77453C17.8941 3.78374 17.9133 3.78374 17.9324 3.76532C17.9994 3.76532 18.0855 3.79295 18.1142 3.69164C18.1524 3.68243 18.1811 3.68243 18.2194 3.67322C18.2864 3.67322 18.3725 3.70085 18.4012 3.59953C18.4394 3.59032 18.4681 3.59032 18.5064 3.58111C18.5734 3.58111 18.6595 3.60874 18.6882 3.50742C18.7073 3.52584 18.7551 3.51663 18.803 3.50742ZM16.153 46.6223C16.0765 46.521 15.9617 46.4841 15.8469 46.4473C15.8373 46.4289 15.8182 46.4289 15.8086 46.4381C15.799 46.4197 15.799 46.3828 15.7799 46.3736C15.4546 46.171 15.139 45.9776 14.8041 45.7841C14.2684 45.471 13.7327 45.1394 13.2448 44.7618C13.0821 44.6328 12.9386 44.4854 12.7377 44.4118C12.7377 44.3749 12.7186 44.3473 12.6803 44.3196C12.4699 44.1446 12.269 43.9696 12.0681 43.7946C11.628 43.417 11.2262 42.9933 10.8148 42.5973L10.8053 42.5881C10.6044 42.3486 10.4035 42.1183 10.1834 41.8973C10.1547 41.8604 10.1356 41.8236 10.0782 41.8328C10.0686 41.8051 10.0782 41.7683 10.0591 41.7499C9.906 41.5749 9.7625 41.4091 9.59986 41.2433C9.5042 41.142 9.39896 41.1512 9.32243 41.2617C9.2746 41.3354 9.20763 41.3999 9.14067 41.4736C8.8728 41.7499 8.54753 41.9617 8.2701 42.2288C8.22227 42.2749 8.1266 42.3025 8.13617 42.3946C7.99267 42.4407 7.89701 42.5512 7.77264 42.6341C7.68654 42.6894 7.61957 42.7538 7.50477 42.7723C7.20821 42.8275 6.83511 42.4867 6.89251 42.1828C6.92121 42.0354 7.00731 41.9249 7.11254 41.842C7.33257 41.6486 7.56217 41.4644 7.79177 41.2894C8.14574 41.0222 8.4997 40.7367 8.8441 40.4512C8.9015 40.4051 8.9302 40.3499 8.8728 40.2762C8.83453 40.2301 8.8154 40.1657 8.77714 40.1196C8.53797 39.8249 8.31793 39.5117 8.13617 39.1801C7.897 38.7656 7.6961 38.3327 7.44737 37.9275C7.1508 37.4485 6.92121 36.9512 6.68204 36.4446C6.43331 35.938 6.24198 35.413 6.04108 34.888C5.95498 34.6669 5.88801 34.4459 5.82104 34.2156C5.77321 34.0406 5.70624 33.8748 5.64884 33.6998C5.57231 33.4511 5.50534 33.2024 5.45751 32.9538C5.41924 32.788 5.40011 32.6222 5.35228 32.4656C5.27574 32.2169 5.23748 31.959 5.19921 31.7103C5.17051 31.5722 5.16094 31.4248 5.13225 31.2774C5.09398 31.0932 5.07485 31.0748 4.89308 31.13C4.67305 31.1945 4.45302 31.1761 4.23298 31.1669C4.00338 31.1577 3.78335 31.0656 3.62072 30.9458C3.33372 30.7432 3.18065 30.4393 3.09455 30.1077C3.02758 29.8221 2.98932 29.5366 2.99888 29.2419C3.00845 29.0669 2.98932 29.0669 2.80755 29.0669C2.32922 29.0669 1.85089 29.0669 1.37256 29.0669C1.17166 29.0669 1.17166 29.0669 1.17166 29.2603C1.16209 29.8314 1.28646 30.3932 1.28646 30.955C1.28646 30.9735 1.29602 30.9827 1.29602 31.0011C1.38212 31.3603 1.37256 31.7287 1.43952 32.0972C1.48736 32.3458 1.56389 32.5853 1.57346 32.8432C1.57346 32.8801 1.60216 32.9169 1.64042 32.9353C1.62129 33.0919 1.63086 33.2393 1.67869 33.3867C1.75522 33.5985 1.75522 33.8195 1.83176 34.0314C1.89872 34.2432 1.93699 34.4643 1.98482 34.6761C2.04222 34.9617 2.13789 35.238 2.21442 35.5143C2.30052 35.8275 2.43445 36.1314 2.53012 36.4446C2.53012 36.463 2.56839 36.463 2.58752 36.4722C2.56839 36.5367 2.58752 36.5919 2.60665 36.6472C2.76929 37.0617 2.92235 37.4854 3.10412 37.8906C3.34328 38.4433 3.59202 38.9867 3.85988 39.5209C4.09905 39.9999 4.36691 40.4604 4.63478 40.9209C5.07484 41.6854 5.59145 42.3946 6.14631 43.0854C6.43331 43.4446 6.72031 43.8131 7.01687 44.1631C7.2082 44.3933 7.43781 44.596 7.64827 44.8078C8.22227 45.4065 8.8154 45.996 9.4468 46.5302C10.3843 47.3407 11.3888 48.0776 12.4316 48.7592C13.3022 49.3394 14.1919 49.8921 15.1581 50.3065C15.3398 50.3894 15.512 50.5184 15.7225 50.5276C15.8182 50.6381 15.9425 50.6934 16.086 50.7026C16.153 50.7394 16.22 50.7855 16.2965 50.8131C16.9183 51.0434 17.521 51.2921 18.162 51.4855C18.4968 51.5868 18.8317 51.7158 19.1665 51.8263C19.6353 51.9829 20.1232 52.0934 20.6015 52.2131C20.7641 52.25 20.9268 52.2684 21.0894 52.3145C21.3286 52.3881 21.5869 52.4158 21.8356 52.4618C22.0843 52.5079 22.3426 52.5355 22.5818 52.5908C22.9262 52.6645 23.2706 52.6921 23.615 52.7289C24.1699 52.7842 24.7152 52.8395 25.2796 52.8487C26.4467 52.8671 27.6043 52.8487 28.7618 52.7381C28.8192 52.7289 28.8766 52.7289 28.9245 52.7105C29.0967 52.6645 29.2689 52.6552 29.4411 52.646C29.8046 52.6368 30.1681 52.5631 30.5317 52.5079C30.723 52.4803 30.9143 52.471 31.0961 52.425C31.3066 52.3697 31.5075 52.3237 31.7179 52.2776C32.0432 52.2039 32.3685 52.1487 32.6937 52.0566C33.1529 51.9276 33.6026 51.7895 34.0426 51.6329C34.6836 51.421 35.315 51.1908 35.9464 50.9421C36.9222 50.5644 37.8406 50.0763 38.7494 49.5881C39.3617 49.2565 39.9835 48.9249 40.5575 48.5105C41.2559 48.0131 41.9447 47.4973 42.6239 46.9723C42.7578 46.871 42.9396 46.8157 42.9874 46.6315C43.1405 46.5855 43.2457 46.4749 43.3605 46.3736C43.8389 45.9683 44.2598 45.517 44.7094 45.0841C45.1208 44.6881 45.4843 44.2552 45.8574 43.8223C46.0488 43.6012 46.2592 43.3802 46.4123 43.1315C46.4219 43.1131 46.4219 43.1038 46.4314 43.0854C46.4793 43.067 46.508 43.0394 46.5367 43.0025C46.6706 42.7999 46.8141 42.6065 46.9576 42.4038C47.3116 41.9065 47.656 41.4091 47.9621 40.8841C48.3065 40.3038 48.6031 39.7051 48.89 39.0972C48.9762 38.913 49.1866 38.4893 49.1866 38.4893C49.3397 38.1209 49.5023 37.7525 49.6649 37.3841C49.7319 37.2183 49.818 37.0525 49.8658 36.8775C49.9519 36.5367 50.0763 36.2143 50.1911 35.8827C50.325 35.5143 50.4111 35.1367 50.5259 34.7682C50.5738 34.6209 50.7173 33.9853 50.7173 33.9853C50.7651 33.6353 50.8799 33.3038 50.9469 32.963C51.0138 32.5761 51.1095 32.1893 51.1286 31.784C51.1286 31.7564 51.1382 31.7195 51.1382 31.6919C51.2243 31.1853 51.3104 30.6787 51.32 30.1721C51.32 30.0616 51.3008 29.9511 51.3391 29.8498C51.4061 29.6656 51.3965 29.4721 51.3965 29.2787C51.3965 29.0577 51.3869 29.0577 51.1765 29.0577C50.7077 29.0485 50.2389 29.0485 49.7702 29.0485C49.6171 29.0485 49.6075 29.0577 49.6075 29.205C49.6075 29.2419 49.6075 29.2787 49.6171 29.3156C49.6267 29.7392 49.531 30.1445 49.3205 30.5129C49.1962 30.734 49.024 30.9458 48.7944 31.0379C48.4595 31.1761 48.096 31.2129 47.7325 31.0932C47.6177 31.0564 47.5125 31.0932 47.5125 31.1945C47.5125 31.3787 47.4072 31.5353 47.4168 31.7103C47.4168 31.9406 47.3403 32.1524 47.2924 32.3551C47.2159 32.6682 47.1489 32.9906 47.0533 33.3038C46.9576 33.6261 46.8715 33.9485 46.7758 34.2617C46.7184 34.4367 46.4793 35.1182 46.4793 35.1182C46.3453 35.5143 46.1731 35.8919 46.0201 36.2788C45.9914 36.288 45.8192 36.6748 45.8096 36.7117C45.7713 36.8959 45.6565 37.0617 45.5704 37.2275C45.2643 37.817 44.939 38.3972 44.5755 38.9683C44.3363 39.3367 44.0972 39.7051 43.8484 40.0736C43.7815 40.1657 43.7719 40.2762 43.7049 40.3591C43.6858 40.3867 43.6858 40.4236 43.7145 40.442C43.858 40.4972 43.925 40.6538 44.0589 40.7091C44.1833 40.7643 44.2885 40.8472 44.3842 40.9209C44.7286 41.188 45.0443 41.4828 45.3982 41.7315C45.513 41.8144 45.6183 41.9065 45.6852 42.0262C45.7809 42.2012 45.7426 42.5236 45.4748 42.6802C45.2834 42.7999 44.9582 42.7815 44.7955 42.6157C44.6903 42.5144 44.5946 42.4131 44.4511 42.367C44.4511 42.3394 44.4511 42.3025 44.4224 42.2841C44.0398 41.9709 43.7049 41.6025 43.3318 41.2709C43.064 41.0315 43.064 41.0315 42.8631 41.3262C42.6526 41.5657 42.3178 41.9525 42.1169 42.192C42.1169 42.192 41.7151 42.6249 41.6672 42.6802C40.7393 43.6657 39.6774 44.4946 38.5868 45.296C37.8693 45.8302 37.0753 46.2539 36.2908 46.6776C35.8125 46.9355 35.3054 47.1473 34.7888 47.3499C34.3775 47.5157 33.9565 47.6631 33.5452 47.8289C33.1434 47.9947 32.7224 48.1236 32.3015 48.2434C31.8901 48.3539 31.4788 48.4552 31.0674 48.5565C30.5221 48.6947 29.9672 48.796 29.4124 48.8697C29.068 48.9249 28.7044 48.9342 28.3505 48.9618C27.8913 48.9986 27.4321 48.9802 26.9633 49.0079C26.4467 49.0447 25.9301 49.0631 25.4135 49.0263C25.0787 48.9986 24.7439 48.9986 24.4186 48.9802C24.0264 48.9618 23.6533 48.8789 23.261 48.8513C23.0793 48.8328 22.8784 48.8144 22.6966 48.7592C22.4287 48.6763 22.1513 48.6763 21.8834 48.6118C21.6538 48.5565 21.4242 48.5013 21.1946 48.4552C20.9268 48.3999 20.6685 48.3078 20.4006 48.2526C20.1327 48.1881 19.8744 48.096 19.6066 48.0315C19.2717 47.9394 18.956 47.8105 18.6403 47.6815C18.3055 47.5341 17.9515 47.4328 17.6263 47.267C17.3871 47.1473 17.1479 47.0091 16.8705 46.9631C16.8609 46.8526 16.7461 46.8618 16.6792 46.8341C16.5261 46.7512 16.3922 46.6407 16.2104 46.6131L16.2008 46.5947L16.153 46.6223ZM52.5158 30.1998C52.4967 30.4393 52.4297 30.9643 52.3436 31.1945C52.3245 31.2406 52.3053 31.3143 52.3627 31.3419C52.4201 31.3695 52.4775 31.3419 52.5254 31.2866C52.6306 31.1761 52.7454 31.084 52.8506 30.9735C53.1089 30.6972 53.329 30.3932 53.4629 30.0432C53.482 30.0156 53.482 29.9787 53.482 29.9511C53.6064 29.8037 53.6351 29.6287 53.6638 29.4537C53.6829 29.3524 53.6829 29.2603 53.7021 29.159C53.7786 28.809 53.7882 28.459 53.6638 28.1182C53.6638 28.0445 53.6542 27.9616 53.6542 27.8879C53.616 27.6577 53.5203 27.4458 53.4246 27.234C53.2811 26.93 53.0707 26.6721 52.8793 26.3958C52.7741 26.2484 52.6689 26.0826 52.4488 26.0458C52.4201 26.2116 52.4967 26.7826 52.4967 26.7826C52.5349 27.6484 52.5158 28.5142 52.5158 29.38C52.5158 29.6471 52.5158 29.9235 52.5158 30.1998ZM26.2554 6.38114C25.6623 6.38114 25.0787 6.38114 24.4856 6.38114C24.3325 6.38114 24.1794 6.38114 24.0359 6.38114C23.9307 6.38114 23.8446 6.32587 23.835 6.24298C23.8159 6.07719 23.7681 5.90218 23.8733 5.75481C23.9403 5.6535 23.9307 5.60744 23.835 5.53376C23.6341 5.35876 23.4332 5.17455 23.2802 4.95349C23.0697 4.65875 22.8975 4.34559 22.821 3.99559C22.7731 3.80216 22.7444 3.78374 22.5435 3.81137C22.5053 3.81137 22.467 3.82979 22.4287 3.82979C22.1896 3.88506 21.9504 3.93111 21.7112 3.98638C21.3955 4.06006 21.0798 4.12453 20.7641 4.19822C20.4484 4.28111 20.1232 4.36401 19.8075 4.45612C19.5492 4.53901 19.2813 4.60349 19.023 4.69559C18.8125 4.76007 18.6116 4.83375 18.4012 4.90744C18.0185 5.03639 17.6358 5.16534 17.2532 5.31271C16.9183 5.44165 16.5835 5.60744 16.2487 5.73639C15.7129 5.93903 15.1868 6.18771 14.6702 6.4364C14.1823 6.67587 13.704 6.93377 13.2352 7.20088C12.5655 7.59694 11.915 8.0022 11.2932 8.46273C10.8053 8.82195 10.3556 9.22721 9.88686 9.60485C9.15023 10.2128 8.45187 10.8575 7.7822 11.5391C7.45694 11.8614 7.1508 12.2022 6.87337 12.5615C6.59594 12.9115 6.28024 13.2338 6.00281 13.593C5.79234 13.8602 5.62014 14.1549 5.39054 14.4128C5.30444 14.5049 5.28531 14.6431 5.14181 14.6983C5.06528 15.0483 4.78784 15.2878 4.62521 15.5825C4.31908 16.126 3.97468 16.6418 3.70682 17.1944C3.54418 17.5352 3.40068 17.8852 3.24762 18.2352C3.12325 18.5299 2.97975 18.8247 2.87452 19.1378C2.75015 19.5247 2.57795 19.9023 2.45359 20.2892C2.33879 20.63 2.20485 20.9615 2.11875 21.3023C1.99439 21.7536 1.87959 22.1958 1.79349 22.6563C1.76479 22.8313 1.74566 23.0063 1.68826 23.1721C1.60216 23.4576 1.56389 23.7524 1.52562 24.0471C1.48736 24.3234 1.44909 24.6089 1.40126 24.8853C1.33429 25.2168 1.36299 25.5576 1.25776 25.88C1.26732 26.5432 1.16209 27.1971 1.16209 27.8511C1.16209 28.0169 1.14296 28.0353 1.34386 28.0353C1.76479 28.0353 2.18572 28.0353 2.60665 28.0353C2.96062 28.0353 2.97975 28.0353 2.97018 27.6945C2.97018 27.3537 3.06585 27.0313 3.20935 26.7274C3.41025 26.2853 3.80248 26.0918 4.27125 26.009C4.32865 25.9997 4.41475 25.9905 4.46258 26.0182C4.58695 26.0826 4.72088 26.0734 4.85481 26.1011C5.02701 26.1379 5.07485 26.1103 5.09398 25.9537C5.13225 25.6958 5.17051 25.4379 5.18008 25.18C5.18965 24.9221 5.23748 24.6642 5.30444 24.4063C5.38098 24.0839 5.46708 23.7524 5.53404 23.43C5.60101 23.1352 5.67754 22.8313 5.77321 22.5458C5.90714 22.1129 6.06021 21.68 6.21327 21.2563C6.44287 20.6115 6.72031 19.9944 7.01687 19.3773C7.33257 18.7326 7.70567 18.1155 8.0979 17.5076C8.2988 17.1944 8.5284 16.8997 8.758 16.6049C8.85367 16.476 8.86324 16.4023 8.76757 16.3562C8.5571 16.2457 8.40404 16.0707 8.22227 15.9417C7.8109 15.6562 7.45694 15.3154 7.07427 15.0115C6.89251 14.8641 6.82554 14.4957 6.93077 14.2931C7.09341 13.9707 7.60044 13.9338 7.83004 14.1549C8.25097 14.5602 8.7006 14.9378 9.14067 15.3154C9.2459 15.4075 9.332 15.5825 9.46593 15.5733C9.59987 15.5549 9.68597 15.3891 9.77207 15.2786C10.2121 14.7352 10.7096 14.247 11.2071 13.7496C11.982 12.9851 12.8143 12.2943 13.6753 11.6312C14.1153 11.2904 14.6032 10.9957 15.0815 10.7009C15.5407 10.4246 15.9999 10.1299 16.4974 9.89959C17.234 9.54959 17.9707 9.20879 18.7456 8.93247C19.3483 8.71142 19.9605 8.50879 20.5824 8.32457C20.678 8.29694 20.7641 8.24168 20.8694 8.22326C21.0894 8.18642 21.3094 8.11273 21.539 8.07589C21.7208 8.03905 21.9026 7.98378 22.0939 7.96536C22.3331 7.92852 22.5818 7.88246 22.8114 7.83641C23.1271 7.77194 23.4428 7.7351 23.7489 7.69825C24.3325 7.62457 24.9161 7.5693 25.5092 7.57852C25.9875 7.58773 26.4659 7.57852 26.9442 7.57852C27.5851 7.5693 28.2165 7.6522 28.8479 7.69825C28.8671 7.69825 28.8958 7.69825 28.9149 7.70746C29.2497 7.80878 29.6037 7.80878 29.9481 7.86404C30.1968 7.90089 30.4551 7.93773 30.6943 7.99299C31.1248 8.0851 31.5553 8.18642 31.9762 8.31536C32.3206 8.41668 32.6746 8.518 33.0094 8.63774C33.526 8.82195 34.0235 9.02458 34.5305 9.24564C35.4298 9.64169 36.3004 10.1022 37.1518 10.5812C37.5727 10.8207 37.9745 11.0878 38.3763 11.3549C38.7111 11.5759 39.0364 11.8246 39.3617 12.0641C40.3183 12.7641 41.1985 13.547 42.0116 14.3944C42.3178 14.7167 42.5952 15.0575 42.8726 15.3983C43.0544 15.6286 43.1022 15.6286 43.3223 15.4352C43.5901 15.2049 43.8484 14.9562 44.1163 14.726C44.365 14.5233 44.5946 14.2931 44.8721 14.1181C44.9964 14.0444 45.3313 14.0259 45.4556 14.0996C45.7618 14.2838 45.8192 14.6891 45.5609 14.9286C45.293 15.1773 45.006 15.3891 44.7094 15.601C44.3937 15.822 44.1163 16.0891 43.8197 16.3286C43.7241 16.4023 43.7336 16.4668 43.8006 16.5589C43.9441 16.7523 44.0876 16.9549 44.212 17.1576C44.7477 18.0141 45.2834 18.8707 45.7044 19.7826C45.8861 20.1694 46.0775 20.5471 46.2114 20.9523C46.3549 21.3576 46.508 21.7629 46.6323 22.1773C46.7663 22.6194 46.9289 23.0523 47.015 23.5129C47.0437 23.6787 47.0628 23.8629 47.1202 24.0287C47.1968 24.2405 47.2255 24.4616 47.2637 24.6734C47.3116 24.9313 47.369 25.18 47.3977 25.4379C47.4168 25.6221 47.4646 25.7971 47.4742 25.9813C47.4838 26.1379 47.5412 26.1655 47.7038 26.1379C47.7899 26.1195 47.876 26.1195 47.9621 26.1011C48.4404 25.9997 48.804 26.2024 49.1005 26.5247C49.4258 26.884 49.5214 27.3261 49.5693 27.7774C49.5788 27.8419 49.5693 27.8971 49.5693 27.9616C49.5693 28.0445 49.6075 28.0721 49.6841 28.0629C49.7702 28.0537 49.8563 28.0537 49.9424 28.0537C50.3059 28.0537 50.679 28.0629 51.0425 28.0721C51.3678 28.0813 51.3678 28.0721 51.3487 27.7774C51.3295 27.3445 51.3104 26.9024 51.2913 26.4695C51.2817 26.2761 51.3104 26.0826 51.2626 25.8984C51.1669 25.5208 51.186 25.1247 51.1095 24.7379C51.0617 24.4892 51.0234 24.2221 50.966 23.9734C50.8895 23.605 50.8225 23.2366 50.7268 22.8773C50.6025 22.3892 50.4877 21.901 50.3442 21.4221C50.3059 21.2931 50.2485 21.1642 50.2294 21.026C50.1815 20.7497 50.0763 20.4826 49.9998 20.2155C49.9137 19.9207 49.7797 19.6352 49.6649 19.3405C49.4545 18.7694 49.2057 18.2168 48.957 17.6641C48.7561 17.2128 48.5074 16.7707 48.2682 16.3378C47.9908 15.8404 47.6942 15.3615 47.3977 14.8733C47.1394 14.4404 46.8332 14.0259 46.5271 13.6115C46.1157 13.0496 45.6661 12.5246 45.1973 12.018C44.9964 11.8062 44.7955 11.6036 44.5946 11.3917C44.2598 11.0325 43.8963 10.7009 43.5327 10.3693C43.0066 9.89038 42.4517 9.42985 41.8873 8.99695C41.562 8.74826 41.2367 8.49958 40.8923 8.26931C40.1557 7.78115 39.4095 7.32062 38.6442 6.87851C38.0511 6.52851 37.4196 6.23376 36.7882 5.94824C36.3004 5.72718 35.8029 5.52455 35.3054 5.32192C34.9419 5.17455 34.5688 5.05481 34.2053 4.92586C33.8704 4.80612 33.526 4.7048 33.1816 4.59428C32.9233 4.51138 32.6746 4.42849 32.4163 4.37322C32.1102 4.30875 31.8136 4.20743 31.4979 4.14296C31.2683 4.0969 31.0291 4.05085 30.7995 4.0048C30.4934 3.94032 30.1777 3.90348 29.862 3.84822C29.8046 3.83901 29.7759 3.83901 29.7472 3.88506C29.7089 3.94032 29.6898 3.99559 29.6802 4.05085C29.6515 4.36401 29.4985 4.63112 29.3167 4.87059C29.1349 5.11007 28.9723 5.36797 28.714 5.55218C28.5801 5.64429 28.5801 5.71797 28.6662 5.85613C28.7618 5.99429 28.7236 6.14166 28.6757 6.27982C28.6279 6.42719 28.4748 6.40877 28.3505 6.40877C27.6425 6.38113 26.9537 6.38114 26.2554 6.38114ZM6.11761 28.5419C6.13674 29.159 6.11761 29.8037 6.19414 30.4485C6.24198 30.8998 6.28981 31.3419 6.38548 31.784C6.42374 31.9406 6.47157 32.0972 6.49071 32.2537C6.50984 32.484 6.60551 32.6959 6.65334 32.9169C6.71074 33.184 6.80641 33.4419 6.87337 33.709C6.96904 34.0682 7.09341 34.4182 7.22734 34.759C7.36127 35.1182 7.50477 35.4683 7.65784 35.8183C7.78221 36.1038 7.88744 36.3985 8.0405 36.6748C8.20314 36.988 8.3849 37.292 8.5284 37.6051C8.5858 37.7248 8.60493 37.863 8.7006 37.9735C8.9302 38.2406 9.09283 38.5538 9.2746 38.8578C9.46593 39.1893 9.66683 39.5117 9.89643 39.8249C10.2408 40.2946 10.6235 40.7367 11.0253 41.1788C11.3984 41.5933 11.7619 42.0262 12.1829 42.4131C13.0343 43.2052 13.924 43.942 14.8998 44.5868C15.3111 44.8631 15.7416 45.1118 16.1626 45.3697C16.66 45.6736 17.1766 45.9315 17.7028 46.171C18.0089 46.3091 18.3151 46.4473 18.6403 46.5578C19.0613 46.7052 19.4822 46.8526 19.9127 46.9907C20.2284 47.092 20.5441 47.1934 20.8598 47.2947C21.1277 47.3776 21.4051 47.442 21.6825 47.5157C21.9313 47.571 22.18 47.617 22.4287 47.6631C22.6679 47.7091 22.9071 47.7552 23.1558 47.8013C23.4141 47.8473 23.6724 47.9026 23.9307 47.9302C24.3995 47.9855 24.8778 48.0499 25.3561 48.0407C26.1406 48.0315 26.9155 48.0684 27.6999 48.0131C28.1017 47.9855 28.5035 47.921 28.9053 47.8749C29.3932 47.8197 29.8811 47.7276 30.369 47.6631C30.5221 47.6447 30.6847 47.6078 30.8282 47.5526C31.0961 47.4605 31.3735 47.396 31.6414 47.3131C32.0815 47.1749 32.5407 47.0644 32.9712 46.9078C33.5452 46.7052 34.1192 46.4841 34.6836 46.2355C35.3246 45.9499 35.9368 45.6276 36.5491 45.296C37.2857 44.8907 37.9458 44.3933 38.6155 43.9052C38.9025 43.7025 39.1799 43.4815 39.4573 43.2512C39.8878 42.892 40.2992 42.5236 40.6914 42.1275C41.1698 41.6486 41.5907 41.1236 42.0308 40.5986C42.356 40.2117 42.6717 39.8157 42.9492 39.4012C43.2936 38.8854 43.5997 38.342 43.9345 37.8077C44.1546 37.4669 44.3268 37.1077 44.5085 36.7393C44.7094 36.3248 44.8912 35.8919 45.073 35.4683C45.1495 35.2933 45.2165 35.1182 45.2739 34.934C45.36 34.6669 45.4461 34.3998 45.5322 34.1327C45.6374 33.8103 45.7618 33.488 45.8383 33.1472C45.9244 32.7511 46.0009 32.3551 46.0583 31.959C46.1157 31.5445 46.2018 31.1301 46.2401 30.7156C46.2401 30.6972 46.2401 30.6695 46.2497 30.6511C46.3836 30.2274 46.2975 29.7853 46.4123 29.3616C46.3932 28.6156 46.4697 27.8603 46.3453 27.1142C46.2784 26.7366 46.3166 26.359 46.2497 25.9721C46.1923 25.6405 46.1062 25.3182 46.1253 24.9774C46.1253 24.9497 46.1157 24.9129 46.1062 24.8853C46.0105 24.6458 46.0105 24.3879 45.9627 24.1484C45.9148 23.9366 45.867 23.7339 45.8287 23.5221C45.8 23.3839 45.7618 23.2458 45.7139 23.1076C45.6278 22.8681 45.5513 22.6379 45.4652 22.3984C45.36 22.0944 45.2643 21.7813 45.1399 21.4773C44.939 20.98 44.719 20.4918 44.499 20.0036C44.2407 19.4326 43.9537 18.8615 43.6093 18.3365C43.3031 17.8576 42.9683 17.397 42.6239 16.9365C42.2412 16.4207 41.8299 15.9233 41.3898 15.4628C40.7775 14.8273 40.1557 14.2009 39.4573 13.6483C38.9407 13.243 38.4337 12.8101 37.8884 12.4233C37.0178 11.8154 36.109 11.272 35.1428 10.8206C34.2531 10.4062 33.3634 10.0009 32.4259 9.68774C31.9858 9.54037 31.5457 9.41143 31.1057 9.28248C30.6656 9.15353 30.216 9.07063 29.7663 9.00616C29.3837 8.9509 29.001 8.85879 28.6183 8.83116C28.0252 8.77589 27.4321 8.693 26.8294 8.71142C26.1214 8.73905 25.4135 8.68379 24.7056 8.7851C24.3134 8.84037 23.9116 8.868 23.5289 8.92326C23.1175 8.97853 22.7062 9.05221 22.2948 9.15353C21.8834 9.25485 21.4625 9.33774 21.0511 9.43906C20.678 9.53116 20.3049 9.63248 19.9414 9.75222C19.2909 9.95485 18.669 10.2312 18.0472 10.5075C17.3775 10.8022 16.7079 11.1154 16.0765 11.493C15.4068 11.8983 14.718 12.2759 14.0962 12.7641C13.5509 13.1878 13.0056 13.6207 12.5081 14.0904C12.1829 14.4036 11.848 14.7167 11.5419 15.0575C11.2645 15.3523 11.0253 15.6839 10.7096 15.9417C10.5757 16.2365 10.3269 16.4391 10.1356 16.697C9.86773 17.0747 9.5903 17.4431 9.31286 17.8115C9.16936 18.0141 9.02587 18.226 8.9015 18.4378C8.7006 18.7602 8.51884 19.0918 8.3275 19.4234C8.14574 19.7365 7.96397 20.0497 7.83004 20.3905C7.71524 20.676 7.59087 20.9523 7.48564 21.2379C7.38041 21.505 7.27517 21.7813 7.19864 22.0576C7.09341 22.426 6.97861 22.7852 6.86381 23.1444C6.72988 23.5958 6.63421 24.0563 6.52898 24.5168C6.44288 24.876 6.39504 25.2353 6.33764 25.5945C6.26111 26.1011 6.21327 26.6169 6.15587 27.1234C6.09847 27.5563 6.11761 28.0353 6.11761 28.5419ZM25.7292 3.24953C25.7292 2.64163 25.7292 2.04294 25.7292 1.43504C25.7292 1.19556 25.7197 1.17714 25.4709 1.2324C25.0404 1.32451 24.696 1.54556 24.409 1.85873C24.0264 2.2732 23.8924 2.789 23.8446 3.314C23.8159 3.61795 23.9403 3.91269 24.0646 4.18901C24.2177 4.52059 24.476 4.77849 24.696 5.05481C24.8395 5.22981 25.0117 5.30349 25.2318 5.27586C25.3274 5.26665 25.4231 5.27586 25.5188 5.27586C25.7292 5.27586 25.7292 5.27586 25.7292 5.07323C25.7292 4.45612 25.7292 3.85743 25.7292 3.24953ZM26.7815 3.2219C26.7911 3.7469 26.7911 4.26269 26.7911 4.7877C26.7911 4.93507 26.7241 5.1377 26.8198 5.22981C26.925 5.34034 27.1355 5.25744 27.2981 5.26665C27.4416 5.28507 27.5564 5.2206 27.6712 5.14691C27.9391 4.97191 28.1209 4.72322 28.2931 4.47454C28.5609 4.0969 28.6757 3.664 28.6566 3.21268C28.647 3.02847 28.6279 2.84426 28.5705 2.66926C28.4366 2.2732 28.2261 1.9232 27.9104 1.63767C27.6521 1.40741 27.346 1.22319 26.9729 1.19556C26.7911 1.17714 26.7815 1.18635 26.7815 1.36135C26.7815 1.97846 26.7815 2.60478 26.7815 3.2219ZM4.96005 28.6524C4.96005 28.4682 4.96005 28.284 4.96005 28.0998C4.96005 27.9063 4.96961 27.7129 4.96961 27.5287C4.97918 27.0313 4.97918 27.0221 4.44345 27.0958C4.25211 27.1234 4.12775 27.2432 4.11818 27.4182C4.09905 28.1366 4.07992 28.855 4.11818 29.5827C4.13732 29.9603 4.45301 30.2643 4.81655 30.2274C4.98874 30.209 5.00788 30.1998 4.99831 30.034C4.96005 29.5735 4.96005 29.1129 4.96005 28.6524ZM48.4117 28.6063C48.4117 28.2195 48.4117 27.8419 48.4022 27.455C48.4022 27.1971 48.2682 27.0866 48.0004 27.0866C47.9143 27.0866 47.8282 27.0958 47.7421 27.0958C47.6368 27.0958 47.5986 27.1511 47.5986 27.2432C47.5986 27.2984 47.6081 27.3537 47.6081 27.3997C47.6177 28.1642 47.6847 28.9287 47.5699 29.6932C47.5029 30.1537 47.5794 30.2182 48.0673 30.1169C48.3065 30.0708 48.4117 29.9603 48.4117 29.7208C48.4213 29.3616 48.4117 28.984 48.4117 28.6063Z" fill="#964315"/>
<path d="M36.8212 8.91227C36.7924 8.78332 36.8786 8.67279 36.9264 8.55305C37.0317 8.31358 37.1752 8.09252 37.2997 7.85304C37.3475 7.76094 37.4336 7.67804 37.5102 7.61357C37.7877 7.3833 38.1131 7.48462 38.2758 7.80699C38.4002 8.05568 38.3045 8.25831 38.2184 8.46095C38.1131 8.70963 37.9504 8.93069 37.7781 9.15174C37.6824 9.28069 37.558 9.3728 37.4049 9.40964C37.1083 9.49253 36.7924 9.17937 36.8212 8.91227Z" fill="#964315"/>
<path d="M47.1337 16.7964C47.3251 16.7964 47.574 16.953 47.6218 17.128C47.6697 17.3122 47.6505 17.478 47.4878 17.6254C47.1625 17.9109 46.7988 18.1044 46.3777 18.2333C46.2246 18.2794 45.9662 18.1596 45.8514 18.003C45.7557 17.8649 45.7653 17.6991 45.8801 17.5425C46.0619 17.303 46.3012 17.128 46.5691 16.9899C46.6744 16.9346 46.7892 16.907 46.8849 16.8517C46.9711 16.7964 47.0572 16.7964 47.1337 16.7964Z" fill="#964315"/>
<path d="M14.6888 7.57687C14.8706 7.54924 15.0046 7.65055 15.1003 7.7795C15.3204 8.08345 15.5118 8.39661 15.6458 8.74662C15.7032 8.89399 15.7128 9.05978 15.5979 9.20715C15.3874 9.49268 15.1099 9.50189 14.8993 9.29004C14.6027 8.98609 14.373 8.59004 14.2199 8.20319C14.1337 8.08345 14.0955 7.96372 14.2103 7.83477C14.3347 7.67819 14.4687 7.55845 14.6888 7.57687Z" fill="#964315"/>
<path d="M5.37515 16.7875C5.69096 16.7782 5.92063 16.9532 6.15988 17.119C6.36085 17.2664 6.52353 17.4506 6.64794 17.6717C6.77235 17.9019 6.64794 18.1506 6.37999 18.1783C6.18859 18.1967 6.00676 18.1783 5.82493 18.0954C5.52827 17.9664 5.25074 17.819 5.01149 17.6072C4.88709 17.4875 4.77225 17.3493 4.82967 17.1467C4.89666 16.9256 5.12633 16.7506 5.37515 16.7875Z" fill="#964315"/>
<path d="M44.3959 13.3517C44.4246 13.7662 44.0226 14.0333 43.6973 14.0241C43.257 14.0149 42.97 13.7294 42.9508 13.3241C42.9317 12.9372 43.3623 12.6701 43.7068 12.6701C44.0513 12.6701 44.415 12.9465 44.3959 13.3517Z" fill="#964315"/>
<path d="M9.55688 13.361C9.57602 13.7571 9.16452 14.0886 8.74344 13.9597C8.6286 13.9229 8.52334 13.9044 8.41807 13.84C8.19796 13.7018 8.11183 13.4715 8.19796 13.2413C8.28409 13.0018 8.4085 12.8268 8.66689 12.7163C8.94441 12.5873 9.36549 12.79 9.47075 13.0294C9.49946 13.14 9.58559 13.2413 9.55688 13.361Z" fill="#964315"/>
<path d="M46.2539 38.3492C46.3974 38.3123 46.5123 38.3952 46.6367 38.4413C46.9525 38.5518 47.2492 38.6992 47.4884 38.9479C47.6989 39.1505 47.6415 39.4268 47.4501 39.611C47.2874 39.7676 46.9621 39.8229 46.7419 39.7031C46.5027 39.5742 46.2443 39.4452 46.0338 39.261C45.9285 39.1689 45.8424 39.0584 45.7945 38.911C45.7467 38.7637 45.7754 38.6531 45.8615 38.5518C45.9572 38.4321 46.0625 38.3123 46.2539 38.3492Z" fill="#964315"/>
<path d="M26.7554 51.0049C26.7554 51.1615 26.765 51.3088 26.7554 51.4654C26.7363 51.7509 26.5736 51.8891 26.2865 51.8799C26.2291 51.8799 26.1717 51.8799 26.1238 51.8707C25.9611 51.8523 25.8559 51.7509 25.8176 51.5944C25.7506 51.2996 25.741 51.0049 25.7984 50.7101C25.8176 50.6088 25.8176 50.4983 25.8272 50.3878C25.8463 50.2036 25.9898 50.0562 26.1717 50.0286C26.3535 50.0009 26.6502 50.0838 26.7076 50.2772C26.7363 50.397 26.7841 50.5075 26.7746 50.6365C26.7554 50.7654 26.765 50.8851 26.7554 51.0049C26.765 51.0049 26.765 51.0049 26.7554 51.0049Z" fill="#964315"/>
<path d="M5.25019 39.7308C5.08751 39.7677 4.98224 39.6295 4.90568 39.4914C4.81955 39.344 4.80998 39.1598 4.92482 39.0124C5.02052 38.8743 5.14493 38.7729 5.30761 38.6993C5.51815 38.6072 5.71912 38.515 5.92009 38.4229C6.02535 38.3677 6.13062 38.3677 6.24546 38.3677C6.43686 38.3677 6.5517 38.4598 6.63783 38.6164C6.70482 38.7545 6.70482 38.8927 6.60912 39.0216C6.56127 39.0861 6.51342 39.1414 6.456 39.1874C6.19761 39.4085 5.90095 39.5743 5.57557 39.7032C5.47987 39.7216 5.38417 39.7216 5.25019 39.7308Z" fill="#964315"/>
<path d="M15.1207 47.376C15.5322 47.376 15.781 47.7996 15.5991 48.122C15.446 48.3891 15.2833 48.647 15.1111 48.8957C14.9771 49.0799 14.8048 49.1628 14.6039 49.1076C14.3838 49.0431 14.2115 48.822 14.2211 48.6102C14.2307 48.4536 14.2689 48.3062 14.3646 48.1865C14.4986 48.0115 14.6039 47.8181 14.7379 47.6339C14.8336 47.4957 14.9388 47.3575 15.1207 47.376Z" fill="#964315"/>
<path d="M37.3357 47.3665C37.4505 47.3665 37.5463 47.3849 37.6324 47.477C37.9099 47.7718 38.1109 48.1218 38.2831 48.4718C38.2927 48.4994 38.3118 48.5178 38.3023 48.5547C38.2544 48.7389 37.9003 49.006 37.6994 49.006C37.5654 49.006 37.4697 48.9691 37.4027 48.8678C37.2017 48.5823 37.0008 48.2968 36.8476 47.9744C36.7328 47.7533 36.9816 47.3389 37.3357 47.3665Z" fill="#964315"/>
<path d="M18.2609 49.5402C18.2609 49.8902 18.0025 50.1481 17.6388 50.1389C17.2178 50.1389 16.9307 49.881 16.9307 49.4941C16.9307 49.1533 17.2656 48.8494 17.6293 48.8586C17.9355 48.8678 18.2992 49.1165 18.2609 49.5402Z" fill="#964315"/>
<path d="M43.6968 42.8715C43.9265 42.8715 44.204 43.0834 44.2806 43.286C44.472 43.7834 44.1083 44.1242 43.716 44.2071C43.4767 44.2531 43.2758 44.1058 43.1418 43.9216C42.9121 43.6176 43.0365 43.1663 43.3906 42.9821C43.4959 42.9176 43.5916 42.8347 43.6968 42.8715Z" fill="#964315"/>
<path d="M8.87321 44.161C8.4617 44.1887 8.16504 43.8755 8.16504 43.5071C8.16504 43.1571 8.53827 42.8992 8.86364 42.89C9.2273 42.8808 9.52396 43.1847 9.53353 43.5531C9.5431 43.8755 9.23686 44.161 8.87321 44.161Z" fill="#964315"/>
<path d="M35.2901 48.9601C35.2806 49.0246 35.3093 49.043 35.3763 49.0338C35.3763 49.089 35.4146 49.1351 35.4433 49.1812C35.5198 49.3377 35.5964 49.4943 35.539 49.6785C35.4624 49.9548 35.1562 50.2035 34.7638 50.1114C34.5628 50.0654 34.3619 49.9733 34.2853 49.7798C34.1992 49.5588 34.2279 49.3193 34.4001 49.1351C34.5628 48.9509 34.7829 48.8496 35.0509 48.9048C35.1179 48.9233 35.204 48.9417 35.2901 48.9601Z" fill="#964315"/>
<path d="M45.7068 28.2544C45.7068 28.6228 45.7163 29.0097 45.7068 29.3873C45.6972 29.7649 45.6494 30.1518 45.6015 30.5294C45.5728 30.7505 45.5728 30.9807 45.5154 31.2018C45.4485 31.4781 45.4293 31.7544 45.3719 32.0308C45.2763 32.4452 45.171 32.8597 45.0562 33.2742C44.8745 33.9005 44.6831 34.5268 44.4344 35.1347C44.2239 35.6413 43.9848 36.1295 43.7456 36.6269C43.2864 37.6032 42.7124 38.515 42.0523 39.3716C41.6027 39.9703 41.1052 40.5414 40.6078 41.1032C40.2251 41.5361 39.8042 41.9137 39.3832 42.3098C39.1919 42.494 38.9623 42.6506 38.7423 42.798C38.5509 42.9269 38.3883 43.1019 38.2065 43.2401C37.9004 43.4795 37.5943 43.7098 37.2881 43.9401C36.8959 44.2348 36.475 44.4743 36.0445 44.7046C35.5566 44.9717 35.0687 45.2572 34.5425 45.4598C34.0833 45.6348 33.6337 45.8375 33.1745 46.0125C32.7631 46.1598 32.3517 46.3164 31.9308 46.4454C31.5673 46.5559 31.2133 46.6756 30.8498 46.7677C30.5341 46.8506 30.2184 46.9151 29.9123 46.998C29.654 47.0625 29.3861 47.0717 29.1278 47.1454C28.9173 47.2098 28.6877 47.1914 28.4677 47.2098C27.6641 47.2835 26.8701 47.3204 26.0665 47.2927C25.5116 47.2743 24.9472 47.2927 24.3923 47.2283C24.1244 47.2006 23.847 47.2098 23.5887 47.1546C23.3687 47.1085 23.1391 47.0901 22.919 47.0256C22.7086 46.9612 22.479 46.9612 22.2685 46.8967C21.9624 46.8046 21.6467 46.7493 21.3405 46.648C21.197 46.6019 21.0535 46.5743 20.91 46.5375C20.5465 46.4454 20.2021 46.3164 19.8481 46.1875C19.4942 46.0585 19.1498 45.9296 18.7958 45.8098C18.2505 45.6072 17.7339 45.3677 17.2078 45.119C16.452 44.7506 15.7441 44.2993 15.0457 43.8388C14.73 43.6269 14.4334 43.3874 14.1273 43.148C13.9073 42.973 13.6681 42.8164 13.4672 42.6322C13.2185 42.4203 12.9697 42.1993 12.7401 41.969C12.08 41.3058 11.4582 40.6058 10.8746 39.8782C10.4728 39.3624 10.0806 38.8374 9.7362 38.2848C9.53531 37.9624 9.33441 37.6308 9.12394 37.3084C8.89434 36.94 8.72214 36.5255 8.52124 36.1387C8.30121 35.6874 8.10988 35.2268 7.91854 34.7663C7.78461 34.4255 7.66981 34.0847 7.56458 33.7347C7.47848 33.4492 7.39238 33.1729 7.30628 32.8873C7.26801 32.74 7.22974 32.5926 7.20104 32.4452C7.16278 32.2334 7.11495 32.0215 7.06711 31.8189C7.00015 31.5334 7.02885 31.2386 6.91405 30.9623C6.90448 30.9439 6.90448 30.9163 6.90448 30.8979C6.84708 30.1242 6.77055 29.3597 6.78011 28.586C6.78968 27.9689 6.77055 27.3426 6.81838 26.7254C6.84708 26.4307 6.85665 26.1268 6.91405 25.8412C6.98101 25.4912 7.04798 25.1504 7.11495 24.8004C7.17235 24.5241 7.26801 24.257 7.33498 23.9899C7.40195 23.6859 7.52631 23.4004 7.57415 23.0873C7.59328 22.9491 7.65068 22.8201 7.68894 22.6912C7.79418 22.3228 7.91855 21.9543 8.05248 21.5951C8.28208 20.9872 8.54994 20.3978 8.84651 19.8175C9.00914 19.5043 9.21004 19.2004 9.36311 18.878C9.43964 18.7122 9.57357 18.5648 9.68837 18.4083C9.83187 18.1964 9.9658 17.9754 10.1189 17.7727C10.2815 17.5609 10.4633 17.3583 10.6068 17.1372C10.9033 16.6859 11.2669 16.2898 11.6208 15.8938C12.0992 15.3595 12.6445 14.8806 13.1611 14.3832C13.6872 13.8674 14.2517 13.3977 14.8448 12.9648C15.1414 12.7437 15.4762 12.5779 15.7823 12.3753C16.3659 11.9977 16.9877 11.6845 17.6096 11.3898C18.1644 11.1227 18.7384 10.8832 19.3124 10.6529C19.7525 10.4779 20.2021 10.3213 20.6613 10.1924C20.9483 10.1187 21.2353 10.0358 21.5223 9.96213C21.838 9.88845 22.1633 9.82397 22.4885 9.73187C22.6703 9.6766 22.8712 9.66739 23.0625 9.62134C23.3687 9.54765 23.6844 9.53844 23.9905 9.47397C24.2488 9.41871 24.5071 9.43713 24.775 9.40949C25.5403 9.30818 26.3152 9.33581 27.0901 9.35423C27.5684 9.36344 28.0468 9.40028 28.5155 9.5016C28.5538 9.51081 28.5921 9.51081 28.6303 9.51081C29.0034 9.52002 29.3574 9.62134 29.7209 9.6766C30.0653 9.73187 30.4001 9.81476 30.735 9.89766C31.1272 9.99897 31.529 10.0819 31.9117 10.2292C32.1221 10.3121 32.3422 10.3674 32.5622 10.4319C32.9449 10.5516 33.3084 10.699 33.6815 10.8371C34.2172 11.0398 34.7243 11.3069 35.2409 11.5556C35.7192 11.795 36.1784 12.0622 36.6376 12.3293C37.5847 12.8635 38.4074 13.5635 39.2206 14.2635C39.7659 14.7332 40.2825 15.249 40.7704 15.774C41.2487 16.2898 41.7366 16.8148 42.1576 17.3767C42.4828 17.8096 42.7507 18.2885 43.0377 18.7491C43.3821 19.3017 43.6882 19.8727 43.9656 20.4622C44.1665 20.8767 44.3292 21.3096 44.5014 21.7333C44.7118 22.2491 44.8649 22.7833 45.0275 23.3083C45.1615 23.7412 45.2763 24.1833 45.3624 24.6346C45.4006 24.8373 45.4006 25.0583 45.5059 25.261C45.5154 25.2702 45.525 25.2886 45.5154 25.307C45.4867 25.6017 45.6111 25.8781 45.6207 26.1728C45.6589 26.8544 45.7546 27.5452 45.7068 28.2544ZM25.9899 46.9612C26.8414 46.9059 27.6067 46.9427 28.372 46.8506C28.8982 46.7862 29.4243 46.7217 29.9505 46.6204C30.4384 46.5283 30.9167 46.3901 31.3951 46.2612C31.9021 46.123 32.4091 45.9664 32.9066 45.7822C33.5189 45.5519 34.1216 45.3032 34.7051 45.0177C35.2217 44.7598 35.7288 44.4927 36.2358 44.198C36.7046 43.9216 37.1638 43.6269 37.5943 43.2861C37.9482 43.0006 38.2926 42.7243 38.6466 42.4387C39.0962 42.0795 39.498 41.6835 39.8998 41.2782C40.2155 40.9743 40.493 40.6335 40.78 40.3111C41.1339 39.9058 41.4783 39.5006 41.8131 39.0769C42.1097 38.69 42.368 38.2755 42.6263 37.8611C42.9133 37.4005 43.1908 36.9308 43.4204 36.4426C43.7074 35.8255 44.0039 35.2084 44.2335 34.5637C44.3674 34.186 44.4727 33.8084 44.5875 33.4308C44.6831 33.1084 44.7597 32.786 44.8458 32.4637C44.8936 32.261 44.951 32.0492 44.9797 31.8373C45.018 31.5794 45.0658 31.3215 45.1136 31.0729C45.171 30.7321 45.2093 30.3913 45.2476 30.0505C45.305 29.4702 45.2954 28.8899 45.2858 28.3005C45.2858 28.1807 45.3624 28.0794 45.3337 27.9597C45.2763 27.6926 45.2858 27.4162 45.2858 27.1491C45.2858 26.707 45.171 26.2833 45.1519 25.8504C45.1423 25.6662 45.0849 25.4728 45.0754 25.2886C45.0754 25.2702 45.0754 25.2425 45.0658 25.2241C44.951 25.0123 44.9797 24.7728 44.9223 24.5517C44.8745 24.3675 44.8266 24.1649 44.7884 23.9715C44.7597 23.8333 44.731 23.6859 44.6736 23.557C44.5588 23.3175 44.5014 23.0504 44.4344 22.8017C44.3196 22.378 44.1378 21.9728 43.9848 21.5675C43.8891 21.3188 43.7743 21.0793 43.6786 20.8399C43.4777 20.3333 43.2099 19.8543 42.9324 19.3846C42.7411 19.053 42.5593 18.7214 42.3297 18.4083C42.1001 18.0859 41.8993 17.7451 41.6601 17.4319C40.9522 16.5017 40.1486 15.6451 39.2684 14.8622C38.7614 14.4016 38.2257 13.9687 37.6708 13.5727C37.2116 13.2411 36.7428 12.9095 36.2454 12.624C35.7192 12.3293 35.1835 12.0253 34.6382 11.7582C34.045 11.4635 33.4232 11.2056 32.7918 10.9845C32.4857 10.874 32.17 10.7727 31.8638 10.6621C31.6247 10.57 31.3759 10.5056 31.1176 10.4503C30.8306 10.3858 30.5436 10.2937 30.2566 10.2292C30.0462 10.174 29.8262 10.1371 29.6061 10.1003C29.3383 10.0542 29.0608 10.0082 28.793 9.96213C28.3242 9.87924 27.8459 9.84239 27.3771 9.82397C26.4109 9.78713 25.4446 9.75029 24.4688 9.87003C23.9522 9.9345 23.4452 10.045 22.919 10.0911C22.8999 10.0911 22.8712 10.1003 22.8521 10.1095C22.6416 10.2016 22.4024 10.1924 22.1824 10.2569C22.0676 10.2937 21.9432 10.3398 21.8189 10.349C21.5223 10.3766 21.2449 10.4963 20.9579 10.57C20.6135 10.6529 20.2786 10.8003 19.9342 10.9016C19.475 11.0398 19.0445 11.2516 18.6045 11.4174C18.2983 11.5279 18.0113 11.6937 17.7243 11.8319C17.0356 12.1543 16.3946 12.5503 15.7441 12.9464C15.1892 13.2872 14.663 13.6648 14.1847 14.0977C13.5342 14.6872 12.8836 15.2951 12.2618 15.9214C11.9365 16.2438 11.6304 16.5938 11.353 16.9438C10.932 17.4872 10.5302 18.0398 10.1093 18.5833C10.071 18.6385 10.0232 18.703 10.0041 18.7583C9.89884 19.0346 9.7075 19.2648 9.55444 19.5227C9.19091 20.1399 8.89434 20.7846 8.62648 21.4478C8.50211 21.7609 8.38731 22.0833 8.28208 22.4057C8.20554 22.6267 8.12901 22.8478 8.06204 23.078C7.99508 23.3267 7.88984 23.5662 7.83244 23.8149C7.74634 24.1557 7.63154 24.4873 7.55501 24.8281C7.51675 25.0307 7.48804 25.2333 7.44021 25.436C7.36368 25.7307 7.35411 26.0439 7.29671 26.3386C7.22974 26.7162 7.22975 27.1123 7.21061 27.5083C7.17235 28.2083 7.14364 28.9176 7.24888 29.6176C7.31584 30.0413 7.28715 30.4742 7.35411 30.8979C7.40194 31.2018 7.45934 31.4965 7.49761 31.8097C7.51674 31.9663 7.54544 32.1321 7.59328 32.2794C7.69851 32.5742 7.73678 32.8873 7.84201 33.1821C7.92811 33.44 7.98551 33.7163 8.07161 33.9742C8.24381 34.4439 8.41601 34.9045 8.59777 35.365C8.83694 35.9637 9.15264 36.5347 9.4492 37.1058C9.6214 37.4374 9.851 37.7321 10.0328 38.0545C10.2815 38.4874 10.5685 38.8927 10.8651 39.2887C11.2669 39.8414 11.7356 40.3479 12.2044 40.8545C12.5392 41.2229 12.9123 41.5545 13.2567 41.9045C13.4098 42.0611 13.582 42.1993 13.7351 42.3466C14.0508 42.6414 14.3856 42.9177 14.7396 43.1572C15.2083 43.4795 15.6675 43.8111 16.1554 44.1151C16.4807 44.3177 16.7964 44.5388 17.1408 44.7046C17.7435 44.9809 18.3366 45.294 18.9584 45.5335C19.3698 45.6901 19.7716 45.8651 20.1925 46.0033C20.6613 46.1598 21.1396 46.298 21.618 46.4177C22.0006 46.5098 22.3833 46.5927 22.766 46.6848C22.9573 46.7309 23.1391 46.7401 23.3304 46.7862C23.7226 46.8783 24.1149 46.9059 24.5071 46.9335C24.7558 46.9519 25.0046 46.9427 25.2437 46.9519C25.5116 46.9335 25.7986 46.9519 25.9899 46.9612Z" fill="#964315"/>
<path d="M7.84281 28.494C7.77585 27.794 7.91935 27.0571 7.94805 26.3111C8.07241 26.0716 8.01501 25.8045 8.09154 25.5466C8.15851 25.3347 8.16808 25.0953 8.21591 24.8742C8.29244 24.5426 8.36898 24.2203 8.46464 23.8979C8.51248 23.7413 8.54118 23.5755 8.59858 23.4189C8.68468 23.1702 8.74207 22.9031 8.82817 22.6545C8.96211 22.286 9.09604 21.9176 9.25867 21.5492C9.50741 20.9689 9.78484 20.3979 10.1005 19.8452C10.5502 19.0531 11.0859 18.3163 11.6408 17.5886C12.2435 16.7965 12.9227 16.0873 13.6402 15.3965C14.1664 14.8991 14.7308 14.4386 15.3144 14.0057C16.0319 13.4715 16.8163 13.0386 17.6103 12.6333C18.0504 12.4123 18.4809 12.1728 18.9401 11.9794C19.2462 11.8504 19.5524 11.7215 19.8776 11.6294C20.1742 11.5465 20.4612 11.4267 20.7578 11.3254C21.0161 11.2333 21.2744 11.1596 21.5327 11.0767C21.8388 10.9846 22.1449 10.9294 22.4511 10.8372C22.6041 10.7912 22.7668 10.7728 22.9198 10.7544C23.1781 10.7175 23.4364 10.6715 23.6947 10.6254C24.0583 10.5517 24.4218 10.5701 24.7758 10.4872C24.9193 10.4504 25.0628 10.4596 25.2063 10.4596C25.8855 10.4596 26.5647 10.4596 27.2344 10.4596C27.6457 10.4596 28.0667 10.5149 28.4685 10.5701C28.7363 10.607 29.0138 10.6438 29.2816 10.6991C29.5112 10.7544 29.76 10.8096 29.9991 10.828C30.1713 10.8465 30.3435 10.8925 30.5062 10.9386C30.774 11.0122 31.0515 11.0767 31.3193 11.178C31.6255 11.2978 31.9603 11.3807 32.276 11.482C32.6013 11.5925 32.9265 11.7123 33.2422 11.832C33.8162 12.0623 34.3807 12.3294 34.926 12.6149C35.5382 12.9373 36.1409 13.2873 36.7245 13.6649C37.1645 13.9596 37.5855 14.2912 37.9968 14.6136C38.7048 15.1754 39.3266 15.811 39.9484 16.4557C40.2928 16.8057 40.6277 17.1741 40.9242 17.561C41.2878 18.0399 41.6226 18.5281 41.9479 19.0347C42.2636 19.5321 42.5697 20.0294 42.8184 20.5544C43.048 21.0334 43.2489 21.5308 43.469 22.0097C43.6603 22.4242 43.7655 22.8663 43.909 23.2992C44.0047 23.5847 44.0621 23.8887 44.1482 24.1834C44.2821 24.6532 44.3587 25.1321 44.4352 25.6111C44.5213 26.1269 44.5691 26.6427 44.6361 27.1492C44.7126 27.794 44.6935 28.4387 44.6744 29.0835C44.6648 29.4979 44.6457 29.9124 44.5883 30.3177C44.5213 30.7598 44.5022 31.2019 44.4065 31.6348C44.3491 31.9019 44.2726 32.169 44.196 32.4269C44.1386 32.6203 44.0812 32.823 44.0334 33.0256C43.976 33.2651 43.909 33.4953 43.8229 33.7256C43.6794 34.1125 43.5359 34.5085 43.3829 34.8954C43.1246 35.5401 42.8376 36.1756 42.4836 36.7927C42.1583 37.3638 41.8235 37.9256 41.4408 38.4599C41.0964 38.948 40.7042 39.3993 40.312 39.8507C39.7093 40.5322 39.0779 41.1954 38.3891 41.7941C37.8916 42.227 37.375 42.6415 36.8106 43.0007C36.3896 43.2678 35.9687 43.5257 35.5478 43.7836C35.0312 44.106 34.4572 44.3362 33.9119 44.6125C33.5005 44.8152 33.07 44.981 32.6395 45.1376C32.3143 45.2573 31.989 45.3586 31.6637 45.4599C31.4054 45.5428 31.1376 45.6165 30.8793 45.6902C30.6975 45.7454 30.5062 45.8007 30.3053 45.8191C30.1522 45.8283 29.9896 45.8744 29.8461 45.9204C29.626 45.9941 29.3773 45.9481 29.1764 46.0678C29.1668 46.077 29.1477 46.0678 29.1286 46.077C28.6215 46.1415 28.1241 46.1968 27.6075 46.1783C27.5309 46.1783 27.4448 46.1876 27.3683 46.1968C27.3683 46.1968 26.5073 46.2612 26.3638 46.2612C26.1342 46.2612 25.9046 46.2612 25.675 46.2612C25.0723 46.252 24.4696 46.1784 23.8765 46.1139C23.5799 46.0862 23.2929 46.0494 23.0059 45.9849C22.7763 45.9389 22.5372 45.9205 22.3171 45.8376C22.1832 45.7915 22.0301 45.7731 21.8866 45.7362C21.4944 45.6349 21.1022 45.506 20.7195 45.3862C20.3177 45.2573 19.9159 45.1099 19.5141 44.981C19.2749 44.8981 19.0358 44.806 18.7966 44.6954C18.4905 44.5481 18.1843 44.4283 17.8782 44.2718C17.5529 44.0968 17.2277 43.9217 16.912 43.7375C16.558 43.5257 16.204 43.3046 15.8692 43.0652C15.5535 42.8349 15.2378 42.6046 14.9413 42.3559C14.6447 42.1165 14.3768 41.8494 14.0611 41.6283C13.7741 41.4257 13.5254 41.1678 13.2862 40.9099C12.8175 40.4033 12.3391 39.9151 11.9086 39.3809C11.679 39.0862 11.4207 38.8099 11.1911 38.5151C10.8946 38.1283 10.6458 37.7138 10.3971 37.2993C10.244 37.0322 10.091 36.7651 9.92834 36.498C9.68917 36.1296 9.51697 35.7243 9.34477 35.319C9.16301 34.8861 9.01951 34.4348 8.84731 33.9927C8.72294 33.6796 8.63684 33.3664 8.51248 33.0532C8.45508 32.9151 8.44551 32.7677 8.41681 32.6295C8.37854 32.4177 8.32114 32.2059 8.27331 32.0032C8.21591 31.7914 8.22548 31.5611 8.12981 31.3585C8.12024 31.3493 8.12024 31.3309 8.12024 31.3124C8.12981 30.9808 7.98631 30.6677 8.00545 30.3361C8.01501 30.1795 8.01501 30.0137 7.93848 29.8572C7.90978 29.8019 7.91934 29.7374 7.91934 29.6729C7.84281 29.2953 7.84281 28.9177 7.84281 28.494ZM32.2473 24.8926C32.2186 24.9018 32.1899 24.9018 32.1708 24.9111C31.8646 25.1505 31.5298 25.3624 31.2141 25.5834C31.0323 25.7124 30.8219 25.7953 30.6975 25.9795C30.6114 25.9795 30.554 26.0347 30.4966 26.0808C30.2192 26.2834 29.9322 26.4676 29.6547 26.6703C29.5591 26.744 29.406 26.7716 29.3582 26.9005C29.3199 26.9098 29.2816 26.9005 29.2721 26.9466C29.0138 27.0571 28.8129 27.2598 28.5833 27.3979C28.5067 27.444 28.4876 27.5177 28.5259 27.6006C28.6502 27.84 28.6981 28.0979 28.7076 28.365C28.7172 28.6506 28.6981 28.9269 28.6215 29.2032C28.5354 29.415 28.4493 29.6453 28.2963 29.8111C28.0093 30.1335 27.7223 30.4558 27.2822 30.6216C27.1483 30.6677 26.9856 30.6861 26.89 30.8058C26.7656 30.8703 26.8134 30.9808 26.8134 31.073C26.8039 34.269 26.7943 37.4743 26.7943 40.6704C26.7943 40.7349 26.7943 40.7901 26.8039 40.8546C26.8134 40.9007 26.8517 40.9099 26.89 40.9007C26.9091 40.9099 26.9378 40.9283 26.9569 40.9283C27.4353 40.9375 27.904 40.8454 28.3728 40.7809C28.7076 40.7349 29.0329 40.6244 29.3582 40.5507C29.8078 40.4494 30.2574 40.3204 30.6879 40.1454C31.5394 39.8138 32.3717 39.427 33.1466 38.9572C33.6823 38.6257 34.1893 38.2664 34.6677 37.8612C35.0025 37.5756 35.3373 37.2717 35.653 36.9585C36.0835 36.5256 36.4662 36.0651 36.8393 35.5861C37.2315 35.0796 37.5568 34.5269 37.8533 33.9651C38.0542 33.5782 38.2264 33.1822 38.3891 32.7769C38.5134 32.4545 38.6187 32.1138 38.7239 31.7914C38.7717 31.6532 38.8196 31.4966 38.8387 31.3493C38.8578 31.1374 38.9248 30.9256 38.9726 30.7229C39.0396 30.4466 39.0587 30.1611 39.1161 29.8848C39.164 29.6453 39.164 29.3966 39.2022 29.1571C39.2309 28.9453 39.2214 28.9361 39.0013 28.9361C38.4273 28.9361 37.8533 28.9361 37.2793 28.9361C37.1741 28.9361 37.0593 28.9269 36.9732 28.9637C36.8106 29.0282 36.6766 28.9914 36.5331 28.9453C36.1218 28.8164 35.9878 28.2821 36.3131 28.015C36.447 27.9045 36.5905 27.8308 36.7819 27.84C37.5185 27.8492 38.2647 27.8492 39.0013 27.8492C39.2022 27.8492 39.2405 27.8124 39.2022 27.6374C39.1066 27.2321 39.1544 26.8177 39.0492 26.4124C38.9918 26.2005 38.9726 25.9703 38.9152 25.7584C38.8387 25.4361 38.7717 25.1137 38.6665 24.7913C38.59 24.5426 38.5134 24.2939 38.4273 24.0545C38.2169 23.5203 37.9873 22.9952 37.7003 22.4887C37.3176 21.8163 36.9062 21.1716 36.3992 20.5821C35.9305 20.0294 35.4234 19.5229 34.8494 19.0623C34.4381 18.7307 34.0171 18.4084 33.5771 18.1136C33.0126 17.736 32.4195 17.4044 31.7881 17.1373C31.3385 16.9439 30.8793 16.7689 30.4296 16.5939C29.98 16.4189 29.5208 16.2807 29.0616 16.1702C28.612 16.0689 28.1528 15.9676 27.684 15.9491C27.5788 15.9491 27.4735 15.9307 27.3779 15.9123C27.1961 15.8754 27.0143 15.8754 26.8326 15.8754C26.7943 15.9399 26.8039 16.0044 26.8039 16.0597C26.8039 16.907 26.8039 17.7452 26.8039 18.5926C26.8039 18.6663 26.8039 18.7492 26.7943 18.8228C26.7656 19.0715 26.3734 19.3018 26.1342 19.2097C25.8281 19.0899 25.742 18.9702 25.7324 18.6478C25.7324 17.9847 25.7324 17.3123 25.7324 16.6491C25.7324 16.4373 25.7324 16.2162 25.7324 16.0044C25.7324 15.9031 25.6942 15.8662 25.5889 15.8754C25.1967 15.9123 24.7949 15.9399 24.4027 15.9768C24.3835 15.9768 24.3548 15.9952 24.3357 15.9952C24.0965 16.0412 23.8574 16.1057 23.6182 16.1333C23.4269 16.161 23.2547 16.2255 23.0633 16.2623C22.8146 16.3176 22.5754 16.4281 22.3267 16.4926C21.9345 16.6031 21.5614 16.7597 21.1883 16.9162C20.6908 17.1189 20.222 17.3584 19.7533 17.6163C19.2941 17.8742 18.8157 18.1228 18.4139 18.4636C17.7921 18.9702 17.1511 19.4584 16.5963 20.0571C16.0127 20.6834 15.4579 21.3373 15.0274 22.065C14.7212 22.59 14.4629 23.1334 14.2238 23.6953C14.042 24.1189 13.9176 24.5518 13.7837 24.9847C13.7454 25.1137 13.6785 25.2426 13.6689 25.3808C13.6593 25.5926 13.5828 25.7953 13.5445 26.0071C13.4776 26.3295 13.4297 26.6519 13.3915 26.9742C13.3628 27.1953 13.3628 27.4163 13.3149 27.6374C13.2767 27.8124 13.3054 27.84 13.4967 27.84C14.0898 27.84 14.6925 27.84 15.2857 27.8308C15.4483 27.8308 15.6014 27.8124 15.764 27.8216C15.9936 27.8308 16.1371 27.9506 16.2232 28.1256C16.271 28.2361 16.3858 28.3558 16.3284 28.4848C16.271 28.6321 16.204 28.7795 16.0127 28.8624C15.8405 28.9361 15.6779 28.9637 15.5057 28.9453C14.903 28.89 14.2907 28.9453 13.688 28.9269C13.248 28.9177 13.248 28.9269 13.3149 29.3506C13.3723 29.7098 13.401 30.0782 13.4584 30.4466C13.4967 30.6953 13.5445 30.944 13.6019 31.1835C13.6593 31.4598 13.755 31.7269 13.8315 31.994C13.975 32.4822 14.1664 32.9519 14.3768 33.4217C14.6638 34.0572 15.0465 34.6559 15.4387 35.2361C15.9649 36.019 16.5963 36.7191 17.2946 37.3638C18.1461 38.1467 19.074 38.8283 20.0977 39.3809C20.9013 39.8138 21.7527 40.1638 22.6328 40.4217C22.8242 40.477 23.0236 40.5405 23.2547 40.6059C23.4173 40.652 23.5895 40.698 23.7521 40.7257C23.9722 40.7625 24.1826 40.7994 24.3931 40.8454C24.6705 40.9099 25.101 40.9467 25.3785 40.9375C25.6655 40.9559 25.6942 40.9283 25.6942 40.6612C25.6942 38.073 25.6846 35.494 25.6846 32.9059C25.6846 32.2611 25.6846 31.6164 25.6846 30.9716C25.6846 30.8611 25.6655 30.7966 25.5411 30.7506C25.3019 30.6585 25.0532 30.5848 24.8523 30.419C24.7566 30.3453 24.5904 30.2048 24.5904 30.2048C24.5808 30.1864 24.5462 30.1611 24.5366 30.1519C24.2879 29.9585 24.1348 29.6914 24.0104 29.4243C23.8669 29.1203 23.7713 28.8071 23.7808 28.4571C23.7904 28.144 23.8287 27.84 23.9626 27.5453C23.9913 27.49 24.0104 27.4163 23.9626 27.3703C23.7713 27.2229 23.5053 27.0075 23.4077 26.9005H23.3982C23.2929 26.7808 22.9977 26.5516 22.9007 26.4769C22.518 26.1821 22.1258 25.8874 21.7336 25.6019C21.657 25.5466 21.5996 25.4545 21.4944 25.4361L21.4848 25.4268C21.4753 25.4084 21.4753 25.3808 21.4561 25.3624C21.0639 25.0676 20.6717 24.7913 20.289 24.4874C20.002 24.2571 19.715 24.0268 19.4184 23.8058C19.2941 23.7137 19.1506 23.6308 19.074 23.4742C18.9688 23.2439 19.0166 23.0413 19.141 22.8479C19.1697 22.8479 19.1888 22.8295 19.1793 22.7926C19.2271 22.7742 19.2845 22.765 19.3323 22.7374C19.4854 22.6452 19.6385 22.636 19.8011 22.7374C19.8394 22.765 19.8968 22.7558 19.935 22.7742C19.935 22.7926 19.935 22.811 19.9446 22.8202C20.3464 23.1334 20.7386 23.465 21.15 23.7689C21.7527 24.211 22.3171 24.69 22.9007 25.1413C23.4556 25.5742 24.0104 26.0163 24.5557 26.4584C24.6992 26.569 24.6992 26.569 24.8619 26.4769C25.2637 26.2374 25.6846 26.0624 26.1629 26.0624C26.3351 26.0624 26.5169 26.044 26.6891 26.09C27.0048 26.1821 27.33 26.2834 27.5979 26.4861C27.6936 26.5598 27.7988 26.5505 27.904 26.4953C27.9614 26.4676 28.0093 26.4308 28.0571 26.394C28.3058 26.2282 28.5546 26.0532 28.8033 25.8874C29.4634 25.4361 30.1235 24.9847 30.774 24.5242C31.0515 24.3308 31.3289 24.1374 31.6063 23.9532C32.2569 23.5295 32.8883 23.0689 33.5197 22.6176C33.8928 22.3597 34.2467 22.0834 34.6198 21.8163C34.8016 21.6873 35.0121 21.7058 35.1843 21.7795C35.5382 21.9268 35.586 22.415 35.3086 22.6729C35.1651 22.811 34.9834 22.9031 34.8207 23.0229C34.5433 23.2255 34.2467 23.4005 33.9693 23.6032C33.8162 23.7137 33.644 23.7966 33.5197 23.9439C33.5005 23.9439 33.4718 23.9439 33.4527 23.9624C33.1179 24.1926 32.7926 24.4321 32.4578 24.6716C32.4195 24.7545 32.3047 24.7913 32.2473 24.8926ZM9.59351 30.9808C9.6796 31.0085 9.76571 30.9808 9.8518 30.9624C10.3588 30.8611 10.8754 30.8243 11.4016 30.7966C11.4016 30.8427 11.4399 30.8519 11.4781 30.8703C11.7077 30.9808 11.8034 31.1743 11.7651 31.4137C11.7364 31.5611 11.5642 31.6809 11.3346 31.6993C11.2677 31.7085 11.1911 31.7085 11.1242 31.7269C10.8754 31.8098 10.6171 31.819 10.3588 31.8743C10.0527 31.9295 9.73701 31.9848 9.43087 32.0401C9.28737 32.0677 9.28737 32.1322 9.26824 32.2427C9.23954 32.4453 9.36391 32.6111 9.39261 32.7953C9.42131 33.0072 9.51697 33.2006 9.57437 33.4032C9.58394 33.4401 9.61264 33.4493 9.64134 33.4493C9.7944 33.4493 9.94747 33.4861 10.0623 33.348C10.2249 33.3664 10.3684 33.2743 10.5119 33.2282C10.8946 33.1177 11.2581 32.9611 11.6408 32.8414C11.966 32.7401 12.0808 32.7585 12.3009 33.0348C12.3296 33.0809 12.3583 33.1177 12.387 33.1638C12.4731 33.3111 12.4444 33.523 12.2913 33.6059C12.1478 33.6796 12.0043 33.7624 11.8417 33.8085C11.5738 33.8822 11.3155 33.9651 11.0572 34.048C10.7415 34.1493 10.4354 34.2506 10.1197 34.3427C9.92834 34.398 9.9092 34.4256 9.97617 34.5822C10.1771 35.0335 10.378 35.4756 10.598 35.9177C10.6458 36.0098 10.6937 36.0283 10.7798 36.019C10.8467 36.019 10.9041 35.9914 10.9615 35.9638C11.4016 35.7427 11.8512 35.5309 12.2913 35.319C12.3774 35.2822 12.4731 35.2546 12.5305 35.1717C12.5496 35.1717 12.5783 35.1809 12.5974 35.1717C12.9323 34.9875 13.2862 34.8125 13.6402 34.6467C13.8028 34.573 13.7933 34.573 13.7167 34.4256C13.5637 34.1585 13.4106 33.8822 13.2958 33.6059C13.114 33.173 12.9418 32.7401 12.7983 32.2888C12.6835 31.9387 12.607 31.5887 12.5209 31.2387C12.4731 31.0269 12.4444 30.8151 12.4157 30.6032C12.3583 30.2256 12.2626 29.8572 12.253 29.4703C12.2435 29.3229 12.253 29.1756 12.253 29.0374C12.253 28.89 12.2243 28.8716 12.0713 28.8808C11.9182 28.89 11.7651 28.8993 11.6216 28.8993C10.7702 28.9085 9.91877 28.9269 9.06734 28.8993C8.83774 28.89 8.80904 28.9085 8.84731 29.1295C8.89514 29.415 8.92384 29.7098 8.91428 29.9953C8.90471 30.3085 9.01951 30.6124 9.00994 30.9348C9.00994 30.9808 9.01951 31.0361 9.07691 31.0361C9.23954 31.073 9.43087 31.1282 9.59351 30.9808ZM41.0869 28.9637C40.8764 28.9453 40.6755 28.9453 40.465 28.9637C40.2737 28.9545 40.2641 28.9545 40.2641 29.1111C40.2641 29.24 40.2737 29.369 40.2737 29.4979C40.245 29.6453 40.2354 29.7835 40.2641 29.9308C40.1589 30.0045 40.178 30.1243 40.178 30.2256C40.1876 30.5295 40.0919 30.8058 40.0441 31.1006C40.0058 31.3032 39.9771 31.5151 39.9006 31.7085C39.8432 31.8927 39.7858 32.0677 39.7284 32.2519C39.6232 32.5651 39.5179 32.8874 39.4031 33.1914C39.317 33.4124 39.2596 33.6335 39.1448 33.8453C39.0492 34.0296 38.9631 34.2138 38.8578 34.3888C38.7526 34.5638 38.7909 34.6559 38.9918 34.7388C39.0013 34.7388 39.0109 34.7388 39.0109 34.748C39.451 34.9598 39.9006 35.1533 40.3311 35.3835C40.7425 35.6046 41.173 35.798 41.5269 36.1019C41.6322 36.1941 41.7374 36.1572 41.8044 36.0283C41.9861 35.7151 42.1201 35.3743 42.2731 35.0519C42.3497 34.8954 42.4358 34.748 42.4932 34.573C42.541 34.4256 42.5506 34.4256 42.4166 34.3796C42.2157 34.3059 42.0244 34.2414 41.8235 34.1677C41.4887 34.048 41.1443 33.9375 40.8094 33.8177C40.6277 33.7532 40.4555 33.698 40.2833 33.6243C40.1302 33.5598 40.0441 33.3848 40.1111 33.2467C40.312 32.8414 40.4842 32.7124 40.9721 32.8598C41.1443 32.9151 41.2973 33.0256 41.4887 32.998C41.5748 33.0624 41.8522 33.1638 41.9957 33.173C42.0148 33.1914 42.0435 33.1914 42.0627 33.1822C42.0722 33.2098 42.0818 33.2467 42.1201 33.2467C42.3688 33.2927 42.5793 33.4217 42.828 33.523C42.8471 33.4309 42.9524 33.3664 42.9237 33.2559C42.9619 33.2006 42.9715 33.1361 42.9619 33.0717C42.9906 33.0624 43.0193 33.044 43.0289 33.0164C43.0767 32.7585 43.1533 32.5006 43.2298 32.2519C43.2776 32.0769 43.2298 32.0216 43.0385 31.994C42.7897 31.9664 42.541 31.948 42.2827 31.8927C41.9 31.8098 41.5078 31.7637 41.1156 31.6901C40.9816 31.6624 40.819 31.6348 40.7616 31.4966C40.599 31.1098 40.8286 30.7782 41.2399 30.7966C41.5174 30.8058 41.7948 30.8519 42.0627 30.9072C42.4549 30.9901 42.8567 30.944 43.2394 31.0637C43.2585 31.073 43.2872 31.0637 43.3063 31.073C43.3829 31.073 43.4211 31.0545 43.4498 30.9624C43.5455 30.6769 43.5264 30.3729 43.5742 30.0782C43.622 29.7743 43.6029 29.4703 43.6125 29.1571C43.622 28.9361 43.6125 28.9269 43.3733 28.9361C43.3542 28.9361 43.3446 28.9453 43.3255 28.9453C43.0193 28.9269 42.7228 28.9269 42.4166 28.9453C42.321 28.9269 42.2253 28.9269 42.1296 28.9453C41.967 28.9269 41.8044 28.9269 41.6417 28.9453C41.46 28.9453 41.2782 28.9453 41.0869 28.9637ZM26.7752 14.761C27.1674 14.7978 27.5309 14.8162 27.8945 14.8531C28.1432 14.8807 28.3824 14.9175 28.6215 14.9728C28.8416 15.0281 29.0712 15.0465 29.2912 15.1018C29.5878 15.1847 29.8939 15.2399 30.1809 15.332C30.7358 15.5162 31.3002 15.6728 31.8264 15.9307C32.276 16.1518 32.7448 16.336 33.1944 16.5662C33.5675 16.7597 33.9023 16.9991 34.2563 17.2202C34.6198 17.4413 34.926 17.7176 35.2799 17.9478C35.4808 18.0768 35.6339 18.261 35.8157 18.4084C36.1409 18.6663 36.0261 18.7123 36.3322 18.3623C36.7245 17.911 37.1454 17.4965 37.5568 17.0544C37.7959 16.7873 38.0542 16.5294 38.2934 16.2715C38.3317 16.2347 38.3699 16.1978 38.3221 16.1333C38.0447 15.8294 37.7481 15.5347 37.3941 15.3044C37.1933 15.1662 37.1837 15.1754 37.0306 15.3597C36.801 15.636 36.581 15.9215 36.3418 16.1886C36.1792 16.3636 36.0261 16.5386 35.9018 16.7412C35.7774 16.9347 35.6052 17.0636 35.433 17.2018C35.3565 17.257 35.2704 17.2663 35.1938 17.2018C35.079 17.1189 34.9642 17.036 34.8686 16.9439C34.6964 16.7689 34.6772 16.6123 34.859 16.4465C35.2034 16.1241 35.4713 15.7465 35.7487 15.3781C35.9496 15.1294 36.1887 14.9083 36.3514 14.6136C35.9687 14.282 35.5382 14.0057 35.0886 13.7662C34.9547 13.6925 34.8112 13.7202 34.7538 13.8583C34.639 14.107 34.4859 14.3373 34.352 14.5768C34.1511 14.9452 33.9406 15.3228 33.6919 15.6636C33.5579 15.8478 33.4049 15.9123 33.204 15.8478C33.07 15.811 32.9744 15.7004 32.8883 15.5991C32.7926 15.4886 32.783 15.3781 32.85 15.2583C33.1944 14.6412 33.5197 14.0149 33.9215 13.4254C34.0363 13.2504 34.0171 13.186 33.8162 13.0938C33.6345 13.0109 33.4527 12.9188 33.2614 12.8359C33.0413 12.7438 32.8117 12.6517 32.5917 12.5596C32.4482 12.5044 32.3908 12.5412 32.3334 12.6794C32.2569 12.882 32.1995 13.1031 32.1229 13.3057C31.9507 13.7662 31.7977 14.236 31.6637 14.7057C31.6255 14.8439 31.5394 14.9636 31.4054 15.0097C31.2141 15.0741 31.0419 15.0004 30.8793 14.8807C30.7358 14.7794 30.6688 14.6689 30.6975 14.4939C30.7358 14.2728 30.8219 14.0517 30.8793 13.8307C31.0132 13.3702 31.1758 12.9188 31.348 12.4767C31.4341 12.2465 31.3863 12.1452 31.1376 12.0807C30.8219 12.007 30.5157 11.9149 30.2096 11.8136C30.1331 11.7859 30.047 11.7951 30.047 11.8873C30.0374 12.0254 29.9513 12.1452 29.9513 12.2833C29.9417 12.532 29.8461 12.7715 29.8078 13.0202C29.7695 13.2412 29.7026 13.4531 29.6739 13.6649C29.6547 13.8399 29.5591 13.9965 29.5591 14.1807C29.5591 14.2544 29.4825 14.3004 29.4347 14.3373C29.2816 14.457 28.9755 14.457 28.8224 14.3281C28.6885 14.2175 28.5928 14.0978 28.6215 13.9044C28.6502 13.6557 28.7076 13.407 28.7555 13.1583C28.7937 12.9833 28.7937 12.8083 28.8416 12.6425C28.9277 12.3478 28.9659 12.0438 29.0329 11.7491C29.052 11.6386 29.0042 11.6109 28.899 11.5833C28.5833 11.5004 28.2484 11.5188 27.9327 11.4636C27.6362 11.4083 27.33 11.4267 27.0239 11.4267C26.8421 11.4267 26.823 11.4544 26.8134 11.6294C26.8134 11.6662 26.8134 11.703 26.8134 11.7399C26.8134 12.6333 26.8134 13.5175 26.8134 14.411C26.7752 14.5399 26.7752 14.6412 26.7752 14.761ZM18.4139 13.2504C18.5383 13.3149 18.5574 13.407 18.6053 13.4807C18.9592 14.0241 19.2941 14.5768 19.5811 15.1478C19.6289 15.2399 19.7054 15.3504 19.6672 15.4702C19.6002 15.6728 19.4471 15.8018 19.2462 15.857C19.0549 15.9123 18.921 15.8202 18.8062 15.6728C18.6244 15.461 18.4905 15.2215 18.3565 14.982C18.1461 14.6044 17.9547 14.2083 17.706 13.8491C17.6199 13.7202 17.5529 13.711 17.419 13.7754C17.3233 13.8307 17.2277 13.8767 17.132 13.932C16.8641 14.0886 16.6345 14.2912 16.3476 14.411C16.2136 14.4662 16.2041 14.632 16.3093 14.761C16.558 15.0649 16.8259 15.3597 17.0746 15.6728C17.2659 15.9215 17.486 16.1426 17.6486 16.4097C17.706 16.5018 17.7921 16.6031 17.773 16.7228C17.7538 16.8978 17.4477 17.1281 17.2755 17.1465C17.0363 17.1741 16.8833 17.0544 16.7589 16.8886C16.4528 16.4557 16.118 16.0505 15.7736 15.6544C15.6779 15.5439 15.5918 15.4333 15.4866 15.332C15.3526 15.2031 15.2665 15.2031 15.1517 15.3136C14.8552 15.5899 14.5203 15.8202 14.2333 16.1057C14.1281 16.2162 14.1281 16.3268 14.262 16.382C14.3194 16.4097 14.3673 16.4557 14.4055 16.4926C15.0465 17.1281 15.6779 17.7636 16.2519 18.4452C16.3188 18.5281 16.3763 18.5373 16.4623 18.4728C16.5771 18.3899 16.7015 18.3163 16.8163 18.2149C17.1224 17.9386 17.4477 17.7084 17.7921 17.4781C18.1078 17.2755 18.4139 17.0452 18.7392 16.861C19.2654 16.5755 19.782 16.2899 20.3368 16.0689C20.8439 15.8662 21.3509 15.6452 21.8771 15.4794C22.2215 15.3689 22.5754 15.2583 22.9294 15.1662C23.3886 15.0465 23.8478 14.936 24.307 14.8531C24.6418 14.7886 24.9958 14.7333 25.3498 14.7518C25.4167 14.7518 25.4933 14.7518 25.5602 14.7518C25.675 14.7518 25.7228 14.7057 25.7133 14.5952C25.7133 14.5675 25.7133 14.5307 25.7133 14.5031C25.7133 13.6557 25.7133 12.7991 25.7133 11.9517C25.7133 11.8412 25.7133 11.7399 25.7037 11.6294C25.6942 11.5096 25.6368 11.4544 25.5124 11.4451C25.4646 11.4451 25.4167 11.4451 25.3689 11.4451C24.9001 11.4083 24.4505 11.5373 23.9913 11.528C23.8574 11.528 23.7234 11.5465 23.5991 11.6017C23.4269 11.6754 23.3886 11.7215 23.4651 11.8873C23.5034 11.9794 23.5225 12.0807 23.5321 12.1728C23.5608 12.3662 23.6086 12.5596 23.6469 12.7531C23.7043 13.0386 23.7904 13.3149 23.8191 13.6004C23.8287 13.6557 23.8382 13.7017 23.8669 13.7478C23.9243 13.8491 23.9243 13.9596 23.8956 14.061C23.8287 14.2544 23.5417 14.4018 23.2929 14.3741C23.1303 14.3557 22.8911 14.1439 22.8624 13.9781C22.805 13.6557 22.7572 13.3333 22.6711 13.011C22.6424 12.9188 22.5754 12.8359 22.5754 12.7346C22.585 12.4859 22.4989 12.2557 22.4798 12.007C22.4702 11.8965 22.4224 11.8596 22.3171 11.8596C22.0588 11.8596 21.8197 11.9425 21.5805 12.0162C21.4561 12.053 21.3222 12.0715 21.2074 12.1544C21.1404 12.2004 21.0543 12.2557 21.083 12.3202C21.1691 12.5044 21.217 12.6978 21.2839 12.8912C21.3605 13.1031 21.4466 13.3149 21.5135 13.536C21.5996 13.8215 21.6762 14.0978 21.791 14.3741C21.8962 14.6412 21.8005 14.8439 21.504 14.982C21.2839 15.0833 20.9874 15.0004 20.8726 14.7794C20.8247 14.6965 20.796 14.5952 20.7673 14.5031C20.6908 14.2544 20.6238 14.0057 20.5186 13.7662C20.3847 13.4438 20.2603 13.1123 20.1838 12.7715C20.1646 12.6794 20.1264 12.6057 20.0594 12.5504C19.9924 12.4952 19.935 12.5688 19.8681 12.5965C19.8489 12.6057 19.8394 12.6057 19.8202 12.6057C19.3515 12.7899 18.9114 13.0017 18.4139 13.2504ZM16.5867 38.2572C16.491 38.3493 16.3954 38.423 16.3189 38.5059C16.118 38.7362 15.8979 38.9572 15.6875 39.1783C15.257 39.6204 14.7882 40.0164 14.3481 40.4401C14.1951 40.5875 14.1951 40.6059 14.3481 40.7441C14.616 40.9836 14.8839 41.2323 15.1613 41.4717C15.3144 41.6099 15.3622 41.6007 15.4961 41.4349C15.6875 41.1954 15.8788 40.9559 16.0605 40.7165C16.2901 40.4033 16.5484 40.1086 16.7493 39.777C16.845 39.6204 16.9789 39.5099 17.2085 39.5375C17.4094 39.5651 17.5147 39.648 17.6103 39.8046C17.7251 39.9888 17.7347 40.0257 17.6008 40.1822C17.4573 40.3665 17.3329 40.5507 17.1798 40.7349C16.8737 41.1033 16.625 41.5178 16.2806 41.8586C16.2328 41.9046 16.1849 41.9691 16.1562 42.0244C16.118 42.098 16.1084 42.1625 16.2136 42.227C16.6345 42.5033 17.0555 42.7796 17.486 43.0467C17.6677 43.1573 17.6773 43.1573 17.7825 42.9731C17.8878 42.7704 17.9834 42.5586 18.0887 42.3559C18.28 41.9691 18.4905 41.5823 18.7392 41.223C18.9592 40.9099 19.1601 40.8638 19.495 41.1033C19.6767 41.2323 19.6863 41.3336 19.5906 41.5362C19.5715 41.5823 19.5524 41.6191 19.5332 41.6559C19.208 42.2638 18.921 42.881 18.5574 43.4704C18.5192 43.5257 18.5192 43.581 18.6053 43.6178C18.7583 43.6915 18.9018 43.7928 19.0549 43.8665C19.3419 44.0046 19.6385 44.1336 19.935 44.2625C20.1072 44.3362 20.1264 44.3362 20.1933 44.1704C20.222 44.0875 20.2603 44.0139 20.2794 43.931C20.3655 43.581 20.4899 43.2494 20.5856 42.8994C20.6621 42.6231 20.7673 42.3467 20.8534 42.0704C20.8917 41.9415 20.9874 41.8678 21.1213 41.8586C21.4083 41.8402 21.5901 42.0059 21.7623 42.1994C21.8005 42.2362 21.8005 42.2915 21.7814 42.3283C21.7049 42.4388 21.7144 42.5678 21.6762 42.6783C21.5135 43.1573 21.3509 43.6362 21.1978 44.1152C21.1691 44.1981 21.1213 44.281 21.1213 44.3731C21.1117 44.5389 21.1404 44.5757 21.2935 44.6218C21.4944 44.6862 21.6953 44.7507 21.9058 44.806C22.011 44.8336 22.1162 44.8889 22.2215 44.8981C22.4128 44.9257 22.4511 44.9073 22.4798 44.7323C22.5085 44.5573 22.5659 44.3915 22.6041 44.2165C22.6807 43.8204 22.7763 43.4244 22.872 43.0283C22.9198 42.8257 22.9868 42.6231 23.2355 42.5309C23.4173 42.4573 23.5704 42.4849 23.7139 42.5862C23.8287 42.6783 23.8478 42.7981 23.8287 42.9362C23.8 43.1665 23.7426 43.3875 23.7139 43.6178C23.6852 43.9217 23.5991 44.2165 23.5512 44.5204C23.5225 44.6862 23.513 44.852 23.5034 45.027C23.5034 45.1007 23.5225 45.1652 23.6182 45.1652C23.8765 45.1836 24.1348 45.2757 24.3931 45.2665C24.4696 45.2665 24.5462 45.2849 24.6323 45.3033C24.9384 45.3494 25.2445 45.3678 25.5602 45.3494C25.6846 45.3402 25.7324 45.2849 25.7229 45.1744C25.7229 45.1283 25.7229 45.0823 25.7229 45.0362C25.7229 44.2165 25.7229 43.3967 25.7229 42.577C25.7229 42.4481 25.7229 42.3191 25.7229 42.1902C25.7229 42.0888 25.6941 42.0244 25.5698 42.0336C25.5411 42.0336 25.5028 42.0336 25.4741 42.0336C25.0532 42.0428 24.6323 42.0244 24.2209 41.9323C23.8861 41.8586 23.5321 41.8309 23.1973 41.7388C22.9581 41.6744 22.7094 41.6283 22.4702 41.5454C22.2597 41.4717 22.0493 41.3796 21.8388 41.3151C21.3987 41.177 20.9682 41.0112 20.5473 40.827C20.1455 40.652 19.7437 40.4493 19.361 40.2375C19.0262 40.0533 18.7105 39.8415 18.3948 39.6296C18.0982 39.4362 17.8112 39.2336 17.5338 39.0033C17.3329 38.8375 17.0937 38.727 16.9215 38.5335C16.845 38.423 16.7015 38.3678 16.5867 38.2572ZM37.1454 41.5638C37.2506 41.4902 37.3367 41.4349 37.4133 41.3704C37.7003 41.1494 37.9681 40.9191 38.2169 40.6612C38.3317 40.5415 38.3317 40.5322 38.1882 40.4217C38.0447 40.302 37.9012 40.173 37.7577 40.0441C37.1932 39.5467 36.6862 38.9941 36.1409 38.4783C35.9496 38.2941 35.8635 38.2941 35.653 38.4783C35.4234 38.6901 35.1747 38.8835 34.926 39.077C34.1319 39.6757 33.2996 40.2191 32.3908 40.6428C32.0368 40.8086 31.6829 40.9744 31.3098 41.0849C30.8793 41.2138 30.4488 41.3796 30.0087 41.4994C29.693 41.5915 29.3677 41.6651 29.052 41.7296C28.8224 41.7757 28.5928 41.8217 28.3537 41.8586C27.904 41.923 27.4448 41.9783 26.9856 42.0152C26.7656 42.0336 26.7561 42.0244 26.7561 42.2454C26.7561 43.1573 26.756 44.0691 26.7656 44.981C26.7656 45.2849 26.8517 45.3494 27.177 45.3218C27.3779 45.3033 27.5883 45.2757 27.7892 45.2665C28.1145 45.2573 28.4398 45.2481 28.765 45.1744C28.9564 45.1283 29.0042 45.0731 28.9468 44.8889C28.9181 44.7968 28.8894 44.6954 28.8798 44.6033C28.8703 44.3823 28.8033 44.1704 28.7555 43.9494C28.6981 43.7007 28.6789 43.452 28.6024 43.2125C28.5641 43.0928 28.5833 42.9546 28.5833 42.8257C28.5833 42.706 28.7459 42.5217 28.8607 42.4941C29.1286 42.4112 29.4538 42.577 29.5017 42.8533C29.5591 43.1757 29.626 43.4981 29.7121 43.8112C29.7982 44.1336 29.8748 44.4652 29.98 44.7783C30.0183 44.8981 30.0852 44.8981 30.1713 44.8704C30.4966 44.7415 30.841 44.6954 31.1758 44.6125C31.3289 44.5757 31.348 44.5389 31.3098 44.3915C31.1758 43.8941 30.9941 43.406 30.8506 42.9086C30.8123 42.7612 30.7836 42.6138 30.7358 42.4665C30.621 42.1533 30.8027 41.8954 31.1471 41.8586C31.3767 41.8402 31.5489 41.9323 31.5968 42.1349C31.6542 42.3467 31.7403 42.5586 31.7977 42.7704C31.922 43.1941 32.1038 43.5994 32.209 44.0323C32.2377 44.1612 32.3238 44.1796 32.4673 44.1704C32.5726 44.1612 32.6587 44.0968 32.7543 44.0691C33.0796 43.9494 33.4049 43.8389 33.711 43.6639C33.8545 43.581 33.8928 43.4704 33.8162 43.3415C33.6632 43.0836 33.5675 42.8073 33.4049 42.5494C33.1944 42.2178 33.0031 41.8678 32.8404 41.4994C32.8117 41.4441 32.783 41.3796 32.8213 41.3244C32.8883 41.2323 32.9552 41.1309 33.0413 41.0665C33.204 40.9283 33.3379 40.9375 33.5101 41.0573C33.6058 41.1217 33.6727 41.2138 33.7301 41.3151C34.0363 41.8494 34.3424 42.3744 34.6485 42.9086C34.7633 43.102 34.8111 43.1112 34.9929 43.0007C35.3756 42.7704 35.7583 42.5402 36.1314 42.3099C36.2844 42.2178 36.3131 42.1073 36.1983 41.9783C35.9496 41.702 35.72 41.4073 35.4999 41.1033C35.2703 40.7901 35.0216 40.4862 34.8303 40.1454C34.7729 40.0441 34.7442 39.9428 34.792 39.8599C34.8973 39.6665 35.0599 39.5099 35.2895 39.473C35.4713 39.4454 35.5956 39.5744 35.6913 39.7125C35.7008 39.7217 35.7104 39.7309 35.72 39.7493C36.0835 40.2191 36.4088 40.7165 36.7914 41.177C36.9349 41.2967 37.0402 41.4257 37.1454 41.5638ZM42.8376 23.2163C42.7515 22.9216 42.6271 22.6545 42.5506 22.3781C42.5123 22.2308 42.4262 22.1018 42.3784 21.9637C42.3497 21.89 42.3018 21.8623 42.2349 21.89C41.9574 22.0005 41.6704 22.0742 41.4026 22.2031C41.0869 22.3597 40.7712 22.4979 40.4459 22.636C40.1876 22.7466 39.9484 22.7005 39.7571 22.4979C39.671 22.4058 39.5753 22.2952 39.6136 22.1571C39.671 21.9544 39.7667 21.7794 39.9867 21.6966C40.5416 21.4755 41.0677 21.19 41.6513 21.015C41.8426 20.9597 41.8713 20.8492 41.7852 20.6834C41.6704 20.4715 41.5461 20.2597 41.4408 20.0386C41.393 19.9373 41.326 19.9005 41.2208 19.9189C41.1443 19.9281 41.0773 19.9557 41.0008 19.9926C40.3502 20.361 39.7284 20.7939 39.0683 21.1531C38.9152 21.236 38.7622 21.3373 38.6091 21.4202C38.5613 21.4479 38.5039 21.4939 38.4752 21.54C38.4465 21.586 38.5134 21.6137 38.5326 21.6505C38.6091 21.8163 38.6952 21.9821 38.7813 22.1479C39.0013 22.5808 39.2309 23.0137 39.384 23.465C39.5275 23.8887 39.6997 24.3032 39.8049 24.7361C39.9102 25.1505 40.0441 25.5558 40.0728 25.9795C40.0728 26.0255 40.0824 26.0716 40.0919 26.1176C40.1685 26.4492 40.1972 26.7808 40.2354 27.1124C40.2641 27.3058 40.245 27.4992 40.2641 27.6834C40.2737 27.84 40.2928 27.84 40.4555 27.8492C40.5033 27.8492 40.5511 27.8492 40.599 27.8492C41.4313 27.8492 42.254 27.8492 43.0863 27.8492C43.2107 27.8492 43.3446 27.8492 43.469 27.8492C43.5551 27.8492 43.5933 27.8216 43.5933 27.7295C43.5838 27.3611 43.5933 26.9927 43.5359 26.6242C43.5168 26.5045 43.469 26.4584 43.335 26.4584C42.8376 26.4676 42.3592 26.5782 41.8618 26.569C41.8235 26.569 41.7852 26.5874 41.747 26.6058C41.5174 26.6703 41.2878 26.6611 41.0582 26.6519C40.9529 26.6519 40.8955 26.5782 40.8477 26.5229C40.6851 26.3019 40.7999 25.8597 41.0582 25.7492C41.1634 25.7032 41.2878 25.6479 41.393 25.6479C41.8522 25.6479 42.3018 25.5097 42.7706 25.5374C42.9045 25.5466 43.0385 25.5282 43.1724 25.5374C43.2776 25.5466 43.3063 25.5005 43.3063 25.3992C43.3159 25.0216 43.2107 24.6624 43.115 24.3032C43.0959 24.2295 43.048 24.211 42.9715 24.2295C42.8471 24.2571 42.7323 24.3124 42.608 24.3308C42.2349 24.3953 41.9 24.5518 41.5461 24.6716C41.3452 24.7361 41.1538 24.8097 40.9338 24.8097C40.7233 24.8097 40.5129 24.6532 40.4459 24.4505C40.3789 24.2663 40.4842 24.0821 40.6659 23.9439C40.8286 23.8242 41.0199 23.7597 41.2017 23.7137C41.7661 23.5571 42.2923 23.3821 42.8376 23.2163ZM10.5119 27.8492C10.9711 27.8492 11.4399 27.8492 11.8991 27.8492C11.9565 27.8492 12.0139 27.8492 12.0617 27.8492C12.1191 27.8492 12.1574 27.8216 12.1478 27.7663C12.1287 27.5545 12.2339 27.3611 12.2243 27.1492C12.2148 26.8361 12.3487 26.5321 12.3391 26.219C12.3391 26.2005 12.3391 26.1913 12.3487 26.1729C12.4539 25.9426 12.4444 25.694 12.4922 25.4545C12.5592 25.1229 12.6261 24.7913 12.7314 24.4874C12.8749 24.0729 12.9801 23.6492 13.1619 23.2439C13.3819 22.765 13.5828 22.2676 13.8507 21.8071C13.9081 21.7058 14.042 21.6229 13.9846 21.5031C13.9272 21.3926 13.7837 21.365 13.6785 21.3097C13.1906 21.0702 12.7122 20.8031 12.2339 20.5176C11.9278 20.3334 11.6408 20.1031 11.2964 19.965C11.1433 19.9005 11.1337 19.9005 11.0668 20.0571C11.0572 20.0847 11.0381 20.1123 11.0189 20.14C10.9233 20.3334 10.818 20.5268 10.7224 20.7294C10.665 20.8492 10.6841 20.8952 10.818 20.9505C11.2294 21.1255 11.6408 21.3189 12.033 21.5308C12.2435 21.6413 12.4635 21.7426 12.6548 21.8808C12.7122 21.9268 12.7983 21.9544 12.8079 22.0466C12.8366 22.2492 12.8079 22.4426 12.6453 22.59C12.4826 22.7374 12.2722 22.7466 12.0904 22.6729C11.8034 22.5623 11.526 22.415 11.2485 22.286C10.9807 22.1571 10.7128 22.0281 10.4545 21.8992C10.3684 21.8623 10.2823 21.8531 10.1962 21.8716C10.1005 21.89 10.1388 21.9821 10.1101 22.0373C9.99531 22.2492 9.94747 22.4795 9.86137 22.7005C9.80397 22.8387 9.72744 22.9768 9.71787 23.1334C9.70831 23.2255 9.71787 23.3084 9.81354 23.336C10.1101 23.4374 10.4067 23.5203 10.7032 23.6124C10.9137 23.6768 11.1242 23.7321 11.3251 23.815C11.4016 23.8426 11.4686 23.8703 11.5451 23.8887C11.9852 24.0176 12.1287 24.3861 11.8225 24.7545C11.7364 24.8558 11.6312 24.9111 11.459 24.8466C11.3155 24.7913 11.1529 24.7637 11.0094 24.7176C10.7415 24.6439 10.4641 24.5703 10.1962 24.4874C9.97617 24.4137 9.73701 24.3676 9.52654 24.2755C9.47871 24.2571 9.39261 24.2387 9.37347 24.3308C9.27781 24.6532 9.22997 24.9847 9.17257 25.3071C9.14387 25.4545 9.22041 25.5282 9.38304 25.5374C9.50741 25.5466 9.64134 25.5558 9.76571 25.5466C10.2536 25.5466 10.7319 25.6295 11.2103 25.6663C11.6599 25.7032 11.813 26.1084 11.5738 26.4861C11.4877 26.6242 11.3442 26.6611 11.1911 26.6611C10.8946 26.6703 10.6076 26.5966 10.311 26.569C10.1292 26.5505 9.94747 26.5505 9.76571 26.5137C9.54567 26.4769 9.32564 26.4861 9.09604 26.4676C9.00038 26.4584 8.94297 26.5045 8.92384 26.5874C8.90471 26.6703 8.88557 26.7532 8.88557 26.8361C8.87601 27.1124 8.86644 27.3887 8.86644 27.665C8.86644 27.8492 8.86644 27.8492 9.06734 27.8492C9.55524 27.8492 10.0336 27.8492 10.5119 27.8492ZM14.1185 35.4664C14.0707 35.4756 14.0037 35.4664 13.9559 35.5309C13.9081 35.6046 13.822 35.6322 13.7454 35.669C13.4967 35.8072 13.2384 35.9362 12.9897 36.0651C12.6453 36.2401 12.3104 36.4519 11.966 36.6177C11.7747 36.7098 11.6025 36.8204 11.4016 36.9033C11.239 36.977 11.2294 37.0414 11.3442 37.1796C11.4207 37.2717 11.4877 37.3638 11.5547 37.4559C11.813 37.8243 12.0426 38.2204 12.3296 38.5704C12.4635 38.727 12.5974 38.8835 12.7218 39.0401C12.9131 39.2888 13.114 39.5283 13.3436 39.7493C13.4871 39.8875 13.5445 39.8783 13.6976 39.7401C13.7646 39.6849 13.8028 39.6112 13.8602 39.5467C14.2525 39.1875 14.6447 38.8191 15.0369 38.4691C15.2952 38.2388 15.5727 38.027 15.831 37.7967C15.9745 37.6677 15.9649 37.6401 15.8405 37.502C15.5918 37.2256 15.3526 36.9401 15.1039 36.6546C14.8265 36.323 14.5682 35.973 14.3481 35.6046C14.2907 35.5125 14.2333 35.4572 14.1185 35.4664ZM38.3699 35.494C38.303 35.4572 38.2743 35.5217 38.2264 35.5585C38.169 35.6138 38.1308 35.6783 38.0829 35.7427C37.7959 36.1572 37.5089 36.5717 37.1932 36.9585C37.0306 37.1612 36.8584 37.3546 36.6862 37.5572C36.5714 37.7046 36.581 37.7506 36.7245 37.852C37.1741 38.1835 37.5663 38.5796 37.9968 38.9388C38.303 39.2059 38.5804 39.5099 38.877 39.777C39.0492 39.9243 39.0779 39.9151 39.2309 39.7493C39.6136 39.3257 39.9771 38.8928 40.3215 38.4414C40.5894 38.0914 40.8477 37.7506 41.0869 37.3822C41.3356 36.9954 41.3069 37.0783 40.9529 36.8756C40.2163 36.4612 39.4701 36.0559 38.7335 35.6322C38.6282 35.5585 38.523 35.4756 38.3699 35.494ZM11.6695 18.9886C11.7651 18.9886 11.7938 19.0439 11.8417 19.0715C12.6357 19.5321 13.3819 20.0571 14.1377 20.5729C14.2429 20.6373 14.3194 20.7571 14.4534 20.7571C14.6064 20.7571 14.616 20.5913 14.6925 20.4992C14.9891 20.1307 15.2761 19.7623 15.5918 19.4123C15.7353 19.2465 15.7353 19.2373 15.5727 19.0807C15.1135 18.6386 14.6638 18.1965 14.2142 17.7452C14.0133 17.5426 13.8028 17.3584 13.5924 17.1649C13.4393 17.0268 13.2862 17.036 13.1523 17.1834C13.0375 17.3215 12.9131 17.4597 12.7983 17.5978C12.4348 18.0399 12.1 18.5281 11.6695 18.9886ZM36.734 19.2465C36.9445 19.5044 37.155 19.7439 37.3559 19.9926C37.5376 20.2136 37.7194 20.4347 37.9107 20.6558C37.9586 20.711 37.9968 20.7571 38.1021 20.6834C38.1977 20.6005 38.3221 20.536 38.4273 20.4623C39.1448 19.9373 39.9006 19.4676 40.6564 19.0163C40.7425 18.9702 40.752 18.9334 40.6946 18.8597C40.4937 18.5926 40.2833 18.3255 40.0824 18.0492C39.8623 17.7544 39.5849 17.5149 39.384 17.2018C39.3457 17.1465 39.2883 17.1097 39.2309 17.0636C39.0874 16.9715 39.0396 16.9715 38.9344 17.1005C38.8004 17.2847 38.6282 17.432 38.4752 17.5886C37.9107 18.1505 37.3367 18.6847 36.734 19.2465ZM27.6457 28.4571C27.6457 27.7756 26.9665 27.0848 26.2969 27.1032C25.5124 27.1308 24.8906 27.6466 24.8714 28.4387C24.8523 29.065 25.6081 29.8019 26.2873 29.8019C26.9856 29.8019 27.684 29.1203 27.6457 28.4571Z" fill="#964315"/>
<path d="M26.2404 27.7385C26.6806 27.6832 26.9486 28.1254 26.9773 28.4569C27.006 28.7517 26.6519 29.1385 26.2787 29.1385C25.8768 29.1293 25.5514 28.8622 25.5418 28.503C25.5131 28.1254 25.8385 27.6925 26.2404 27.7385Z" fill="#964315"/>
<path d="M74.9746 36.4186V18.4889H77.9714V33.9168H85.7257V36.4186H74.9746Z" fill="#964315"/>
<path d="M100.635 22.8426V36.4186H98.3247L97.9252 34.5913H97.7628C97.4715 35.0573 97.101 35.4457 96.6515 35.7564C96.202 36.0589 95.7025 36.2837 95.1531 36.4309C94.6037 36.5862 94.0251 36.6639 93.4175 36.6639C92.3769 36.6639 91.4862 36.4922 90.7453 36.1488C90.0128 35.7972 89.4509 35.2576 89.0596 34.53C88.6684 33.8023 88.4727 32.8621 88.4727 31.7093V22.8426H91.4196V31.1697C91.4196 32.2244 91.636 33.0134 92.0689 33.5366C92.5101 34.0599 93.1927 34.3215 94.1167 34.3215C95.0074 34.3215 95.715 34.1416 96.2395 33.7819C96.7639 33.4221 97.1343 32.8907 97.3508 32.1876C97.5755 31.4845 97.6879 30.6219 97.6879 29.5999V22.8426H100.635Z" fill="#964315"/>
<path d="M107.902 29.4773L103.282 22.8426H106.628L109.788 27.6132L112.959 22.8426H116.293L111.648 29.4773L116.53 36.4186H113.171L109.788 31.3291L106.391 36.4186H103.057L107.902 29.4773Z" fill="#964315"/>
<path d="M124.497 36.6639C123.19 36.6639 122.058 36.4145 121.1 35.9158C120.143 35.4171 119.406 34.6526 118.89 33.6225C118.374 32.5923 118.116 31.2842 118.116 29.698C118.116 28.0465 118.399 26.6975 118.965 25.651C119.531 24.6045 120.314 23.8319 121.313 23.3331C122.32 22.8344 123.473 22.585 124.772 22.585C125.596 22.585 126.341 22.6668 127.007 22.8303C127.681 22.9856 128.251 23.1778 128.717 23.4067L127.843 25.7123C127.335 25.5079 126.815 25.3362 126.282 25.1972C125.75 25.0582 125.238 24.9887 124.747 24.9887C123.939 24.9887 123.265 25.1645 122.724 25.5161C122.191 25.8676 121.791 26.3909 121.525 27.0858C121.267 27.7808 121.138 28.6434 121.138 29.6735C121.138 30.671 121.271 31.5131 121.538 32.1999C121.804 32.8785 122.199 33.3935 122.724 33.7451C123.248 34.0885 123.893 34.2602 124.659 34.2602C125.417 34.2602 126.095 34.1702 126.695 33.9904C127.294 33.8105 127.86 33.5775 128.393 33.2913V35.7931C127.868 36.0875 127.306 36.3041 126.707 36.4431C126.108 36.5903 125.371 36.6639 124.497 36.6639Z" fill="#964315"/>
<path d="M134.574 17.3361V22.1313C134.574 22.63 134.557 23.1165 134.524 23.5907C134.499 24.0649 134.47 24.4328 134.436 24.6944H134.599C134.89 24.2202 135.248 23.8319 135.672 23.5293C136.097 23.2187 136.571 22.9856 137.096 22.8303C137.629 22.675 138.195 22.5973 138.794 22.5973C139.851 22.5973 140.75 22.7731 141.491 23.1246C142.232 23.468 142.798 24.0035 143.189 24.7312C143.589 25.4588 143.789 26.4032 143.789 27.5641V36.4186H140.854V28.1037C140.854 27.0491 140.634 26.2601 140.193 25.7368C139.751 25.2054 139.069 24.9397 138.145 24.9397C137.254 24.9397 136.547 25.1236 136.022 25.4916C135.506 25.8513 135.136 26.3868 134.911 27.0981C134.686 27.8012 134.574 28.6597 134.574 29.6735V36.4186H131.639V17.3361H134.574Z" fill="#964315"/>
<path d="M160.134 29.5999C160.134 30.7282 159.984 31.7297 159.684 32.6046C159.385 33.4794 158.948 34.2193 158.373 34.8243C157.799 35.4211 157.108 35.879 156.3 36.1979C155.493 36.5085 154.581 36.6639 153.566 36.6639C152.617 36.6639 151.747 36.5085 150.956 36.1979C150.165 35.879 149.479 35.4211 148.896 34.8243C148.321 34.2193 147.876 33.4794 147.56 32.6046C147.243 31.7297 147.085 30.7282 147.085 29.5999C147.085 28.1037 147.348 26.8365 147.872 25.7981C148.405 24.7516 149.162 23.9545 150.145 23.4067C151.127 22.8589 152.296 22.585 153.653 22.585C154.927 22.585 156.051 22.8589 157.025 23.4067C157.999 23.9545 158.76 24.7516 159.31 25.7981C159.859 26.8447 160.134 28.1119 160.134 29.5999ZM150.107 29.5999C150.107 30.5892 150.228 31.4354 150.469 32.1385C150.719 32.8417 151.102 33.3813 151.618 33.7574C152.134 34.1253 152.8 34.3092 153.616 34.3092C154.432 34.3092 155.098 34.1253 155.614 33.7574C156.13 33.3813 156.509 32.8417 156.75 32.1385C156.991 31.4354 157.112 30.5892 157.112 29.5999C157.112 28.6106 156.991 27.7726 156.75 27.0858C156.509 26.3909 156.13 25.8636 155.614 25.5038C155.098 25.1359 154.427 24.9519 153.603 24.9519C152.388 24.9519 151.501 25.3526 150.944 26.1538C150.386 26.955 150.107 28.1037 150.107 29.5999Z" fill="#964315"/>
<path d="M170.71 22.585C172.267 22.585 173.478 22.9816 174.344 23.7746C175.218 24.5595 175.655 25.8227 175.655 27.5641V36.4186H172.72V28.1037C172.72 27.0491 172.5 26.2601 172.059 25.7368C171.617 25.2054 170.935 24.9397 170.011 24.9397C168.671 24.9397 167.738 25.3444 167.214 26.1538C166.698 26.9632 166.44 28.1364 166.44 29.6735V36.4186H163.505V22.8426H165.79L166.202 24.6821H166.365C166.664 24.2079 167.035 23.8196 167.476 23.5171C167.926 23.2064 168.425 22.9734 168.974 22.818C169.532 22.6627 170.111 22.585 170.71 22.585Z" fill="#964315"/>
<path d="M192 29.5999C192 30.7282 191.85 31.7297 191.55 32.6046C191.251 33.4794 190.814 34.2193 190.239 34.8243C189.665 35.4211 188.974 35.879 188.167 36.1979C187.359 36.5085 186.448 36.6639 185.432 36.6639C184.483 36.6639 183.613 36.5085 182.822 36.1979C182.031 35.879 181.345 35.4211 180.762 34.8243C180.188 34.2193 179.742 33.4794 179.426 32.6046C179.11 31.7297 178.951 30.7282 178.951 29.5999C178.951 28.1037 179.214 26.8365 179.738 25.7981C180.271 24.7516 181.028 23.9545 182.011 23.4067C182.993 22.8589 184.162 22.585 185.519 22.585C186.793 22.585 187.917 22.8589 188.891 23.4067C189.865 23.9545 190.626 24.7516 191.176 25.7981C191.725 26.8447 192 28.1119 192 29.5999ZM181.973 29.5999C181.973 30.5892 182.094 31.4354 182.335 32.1385C182.585 32.8417 182.968 33.3813 183.484 33.7574C184 34.1253 184.666 34.3092 185.482 34.3092C186.298 34.3092 186.964 34.1253 187.48 33.7574C187.996 33.3813 188.375 32.8417 188.616 32.1385C188.857 31.4354 188.978 30.5892 188.978 29.5999C188.978 28.6106 188.857 27.7726 188.616 27.0858C188.375 26.3909 187.996 25.8636 187.48 25.5038C186.964 25.1359 186.294 24.9519 185.469 24.9519C184.254 24.9519 183.367 25.3526 182.81 26.1538C182.252 26.955 181.973 28.1037 181.973 29.5999Z" fill="#964315"/>
</svg>
