<svg width="330" height="330" viewBox="0 0 330 330" fill="none" xmlns="http://www.w3.org/2000/svg">
<path d="M112.857 21.4342C113.776 21.5468 114.637 21.0402 115.441 20.7587C117.049 20.2522 118.714 19.8581 120.322 19.4079C121.355 19.0701 122.446 18.9013 123.48 18.6198C124.685 18.2821 126.006 18.1695 127.212 17.7755C128.303 17.3815 129.509 17.1564 130.714 17.1001C132.552 16.9875 134.274 16.3683 136.112 16.4246C136.743 16.4246 137.088 16.1432 137.203 15.5803C137.662 12.9911 138.868 10.7396 140.361 8.71331C142.887 5.2798 146.16 2.74688 150.237 1.28342C153.338 0.157674 156.438 -0.123768 159.711 0.0450931C161.951 0.157667 164.018 0.720538 166.085 1.45227C167.865 2.07143 169.415 3.14089 170.85 4.32291C172.573 5.78638 174.41 7.19356 175.444 9.27618C176.305 10.9648 177.339 12.5408 177.626 14.4546C177.798 15.4678 178.315 16.1432 179.521 16.3121C180.899 16.4809 182.334 16.7061 183.77 16.9312C186.928 17.4378 190.029 18.1695 193.129 18.845C195.885 19.4641 198.584 20.2522 201.283 21.0965C204.67 22.1659 208.001 23.2917 211.331 24.4737C213.283 25.1491 215.178 25.9934 217.073 26.8377C219.944 28.0198 222.815 29.2018 225.571 30.5527C227.983 31.7347 230.394 32.8605 232.748 34.2114C234.528 35.2245 236.423 36.2377 238.203 37.2509C238.835 37.5886 239.352 38.2077 240.098 38.3766C240.213 38.5455 240.443 38.5454 240.615 38.4892C240.73 39.1646 241.361 39.1083 241.763 39.2772C241.763 39.6712 242.05 39.6149 242.337 39.6149C242.739 40.2341 243.371 40.6281 244.117 40.7407C244.232 41.3598 244.692 41.3598 245.208 41.3598C245.208 41.8664 245.553 41.8664 245.897 41.8664C245.955 42.0915 246.07 42.2604 246.299 42.373C248.252 43.6676 250.204 45.0185 252.156 46.3694C253.017 46.9885 253.764 47.7765 254.797 48.2268L254.855 48.3394L254.97 48.2831C255.027 48.5646 255.257 48.6771 255.486 48.6771H255.544C255.716 49.2963 256.061 49.8029 256.807 49.8029C257.381 50.5909 258.07 51.3226 259.046 51.6603C259.046 51.9981 259.276 52.0543 259.563 51.9981C259.621 52.3921 259.908 52.6172 260.31 52.6172C260.252 53.0112 260.482 53.1238 260.826 53.0675C261.917 54.531 263.353 55.5441 264.903 56.501C265.248 57.3453 266.052 57.7393 266.683 58.3585C267.487 59.0902 267.889 60.1597 268.75 60.6663C269.439 61.0603 269.956 61.6232 270.53 62.0735C270.53 62.2423 270.588 62.2986 270.76 62.2423C270.703 62.6363 270.99 62.8052 271.219 63.0866C272.597 64.6064 274.377 65.7321 275.698 67.3082C275.928 67.5333 276.043 67.871 276.444 67.871C276.502 68.4902 276.904 68.7716 277.421 68.9405C277.421 69.2782 277.65 69.4471 277.823 69.6722C279.028 71.1357 280.234 72.5428 281.44 73.95C282.072 74.6818 282.473 75.5261 283.277 76.0889L283.335 76.1452C283.335 76.5392 283.45 76.7644 283.852 76.7644C283.852 77.1021 283.909 77.3835 284.368 77.3273C284.426 77.4961 284.483 77.665 284.598 77.8338C284.713 78.453 285 78.847 285.632 79.0721L285.746 79.0159C285.746 79.0159 285.689 79.0721 285.632 79.0721C286.493 80.817 287.584 82.3368 288.962 83.6877C288.904 83.9691 289.077 84.2506 289.191 84.4757C290.627 86.2769 291.661 88.3595 292.981 90.2733C293.555 91.0613 293.728 92.1308 294.704 92.6936L294.761 92.7499C294.876 93.5942 295.106 94.4385 295.967 94.8888C296.024 95.7894 296.426 96.5211 297.173 97.084C297.288 97.9846 297.632 98.7726 298.379 99.3355C298.723 101.024 299.757 102.431 300.56 103.895C300.56 103.951 300.618 103.951 300.675 103.951L300.618 104.007L300.675 104.064C300.733 104.908 301.077 105.696 301.709 106.259C301.651 106.597 301.766 106.934 301.939 107.216C302.455 108.567 302.972 109.861 303.661 111.156C303.604 111.606 304.063 111.831 304.178 112.225C304.35 112.901 304.81 114.026 305.154 114.477C305.154 114.702 305.154 114.871 305.326 115.04C305.269 115.434 305.269 115.828 305.441 116.109C305.958 117.066 306.188 118.079 306.532 119.092C307.164 121.006 307.853 122.92 308.427 124.89C308.944 126.691 309.575 128.492 309.977 130.35C310.149 131.194 310.379 132.095 310.666 132.883C311.355 134.74 311.7 136.654 312.102 138.511C312.446 139.975 312.676 141.551 312.963 143.014C313.365 145.322 313.824 147.686 313.997 150.05C314.054 150.444 313.997 150.838 314.456 151.176C315.547 151.964 316.58 152.921 317.959 153.315C317.959 153.596 318.131 153.709 318.36 153.821C321.289 155.679 323.528 158.155 325.48 160.97C327.777 164.178 329.155 167.724 329.557 171.608C329.729 173.015 330.131 174.366 329.959 175.773C329.615 178.588 329.385 181.402 328.466 184.16C327.49 187.143 325.882 189.733 323.93 192.153C321.633 195.024 318.705 197.162 315.145 198.457C313.882 198.907 313.193 199.752 313.48 201.103C312.733 204.311 312.217 207.576 311.298 210.784C310.781 212.585 310.322 214.386 309.92 216.187C309.403 218.27 308.771 220.353 308.025 222.379C307.508 223.842 307.049 225.25 306.59 226.713C306.015 228.571 305.326 230.372 304.58 232.173C303.374 235.1 302.111 237.971 300.848 240.841C298.838 245.344 296.828 249.791 294.187 253.956C294.015 254.238 293.842 254.519 293.9 254.857C292.637 255.814 292.062 257.277 291.201 258.515C290.914 258.966 290.225 259.303 290.512 260.035C289.708 260.542 288.445 262.455 288.215 263.356L288.158 263.412C287.469 263.806 286.895 264.257 286.608 264.988C286.435 265.439 286.148 265.776 285.861 266.114C283.794 268.534 281.842 271.067 279.66 273.431C277.708 275.57 275.813 277.878 273.861 280.017C272.77 281.199 271.564 282.268 270.473 283.451C267.544 286.49 264.272 289.136 261.056 291.894C258.759 293.864 256.29 295.721 253.821 297.522C253.362 297.86 252.73 298.198 252.501 298.817C252.156 298.704 251.984 298.986 251.754 299.155C250.319 300.168 248.941 301.294 247.505 302.307C244.003 304.783 240.328 306.922 236.653 309.061C233.61 310.862 230.452 312.495 227.236 313.958C224.595 315.14 222.011 316.378 219.312 317.504C216.614 318.63 213.857 319.699 211.101 320.713C209.723 321.219 208.345 321.782 206.852 322.12C205.934 322.345 205.072 322.739 204.154 322.964C202.603 323.414 200.996 323.865 199.445 324.315C198.469 324.596 197.436 324.878 196.402 325.103C195.024 325.384 193.703 325.835 192.325 326.116C191.119 326.341 189.856 326.398 188.708 326.792C187.215 327.298 185.55 326.904 184.172 327.692C182.219 327.523 180.439 328.311 178.487 328.311C178.085 328.311 177.569 328.255 177.454 328.818C177.281 328.705 177.109 328.705 176.88 328.818C175.731 328.593 174.583 328.818 173.492 328.874C171.712 328.987 169.989 329.493 168.152 329.437C167.003 329.381 165.855 329.493 164.707 329.606C164.362 329.606 163.903 329.55 163.673 330C163.501 329.887 163.329 329.887 163.099 330C162.352 329.437 162.065 329.437 161.319 330C160.917 329.887 160.572 329.887 160.171 330C159.998 329.718 159.769 329.662 159.596 330C159.424 329.887 159.252 329.887 159.08 330C158.448 329.381 158.276 329.381 157.874 330C157.3 330 156.783 330 156.209 330C155.462 329.381 155.232 329.381 154.429 330C154.256 329.887 154.084 329.887 153.912 330C153.51 329.437 152.878 329.55 152.361 329.493C150.983 329.437 149.605 329.493 148.227 329.437C146.964 329.381 145.586 329.55 144.38 329.212C142.6 328.762 140.82 328.818 139.04 328.874C138.868 328.762 138.638 328.762 138.466 328.818C138.409 328.424 138.064 328.311 137.72 328.255C135.48 327.974 133.241 327.58 131.002 327.186C128.303 326.735 125.604 326.172 122.963 325.553C120.609 324.99 118.312 324.427 115.958 323.865C113.661 323.302 111.422 322.683 109.24 321.895C106.713 320.994 104.072 320.262 101.603 319.193C98.9616 318.123 96.2629 317.11 93.679 315.872C90.9803 314.577 88.2816 313.226 85.5829 311.875C83.2288 310.637 80.932 309.343 78.6926 308.048C76.1662 306.584 73.6972 305.008 71.2281 303.432C68.8165 301.913 66.4049 300.337 64.1656 298.592C63.0172 297.691 61.8688 296.734 60.663 295.834C57.5624 293.47 54.6914 290.824 51.6482 288.404C48.6624 285.983 45.9637 283.225 43.265 280.524C41.0256 278.272 38.7863 276.077 36.7192 273.6C34.1353 270.505 31.7811 267.24 29.4269 263.975C29.2547 263.75 29.1973 263.469 28.7953 263.525L28.7379 263.469C28.7953 263.018 28.6231 262.681 28.2786 262.343C27.7044 261.667 27.245 260.936 26.7282 260.204C24.374 256.939 22.3644 253.393 20.2973 249.96C17.5412 245.344 15.2444 240.504 13.1199 235.607C12.2586 233.58 11.5121 231.498 10.6509 229.415C9.38763 226.375 8.23925 223.223 7.37796 220.015C7.26312 219.677 7.09086 219.452 6.80377 219.227C6.86119 219.002 6.80376 218.833 6.74634 218.664C6.80376 217.538 6.28699 216.525 5.94248 215.456C5.42571 213.655 4.90893 211.853 4.56441 210.052C4.33474 208.758 3.99022 207.519 3.70312 206.281C3.41603 204.705 3.07152 203.073 2.78442 201.497C2.32507 199.02 1.8083 196.543 1.5212 194.067C1.46378 193.673 1.2341 193.391 1.00442 193.053C1.11926 192.547 1.06185 192.097 0.947008 191.646C1.17669 190.352 0.602486 189.17 0.545067 187.931C0.31539 183.991 0.257978 180.107 0.08572 176.167C-0.0291184 172.396 -0.0865411 168.625 0.315393 164.854C0.60249 162.377 0.315394 159.788 0.889586 157.311C1.06184 156.692 1.06184 156.017 0.889586 155.341C1.00442 154.947 1.06185 154.553 0.947008 154.215C1.34894 153.427 1.46378 152.639 1.46378 151.739C1.5212 150.388 1.46377 149.037 1.98055 147.742C2.15281 147.348 2.15281 146.842 2.03797 146.335C2.15281 146.054 2.15281 145.772 2.09539 145.435C2.26765 145.209 2.49732 144.984 2.55474 144.759C2.61216 143.521 3.0141 142.339 3.24378 141.101C3.64571 138.849 4.2199 136.71 4.73667 134.515C5.02377 133.22 5.54054 131.926 5.48312 130.575C5.59796 130.406 5.59796 130.237 5.54055 130.012C5.9999 129.843 5.9999 129.449 6.05731 129.055C6.11473 128.661 6.11473 128.323 6.28699 127.929C6.9186 126.353 7.26312 124.721 7.72247 123.145C8.46892 120.499 9.38763 117.91 10.3063 115.377C11.2825 112.788 12.3734 110.199 13.4644 107.666C15.0147 104.232 16.6224 100.799 18.345 97.4217C18.9766 96.1834 19.7231 95.0014 20.4121 93.8194C21.1012 92.6373 21.8476 91.4553 22.594 90.2733C23.3405 89.0912 24.0869 87.8529 24.9482 86.7272C25.7521 85.6577 26.3263 84.4194 27.245 83.4062C28.0489 82.5057 28.6231 81.3799 29.3695 80.4793C30.116 79.5787 30.5753 78.5656 31.3792 77.665C32.1831 76.8207 32.9295 75.7512 33.6185 74.738C34.365 73.6686 35.5134 72.8243 35.9727 71.5297C36.3747 71.4734 36.5469 71.3045 36.4895 70.9105C37.1211 70.7417 37.4082 70.2914 37.6379 69.6722C38.3843 69.3345 38.7863 68.7153 39.1308 68.0962C39.4179 67.9273 39.7624 67.871 39.7624 67.477C40.2792 66.9141 40.7959 66.295 41.3127 65.7321C41.6572 65.4507 42.174 65.2255 42.2314 64.6627C42.6334 64.6627 42.7482 64.4375 42.8056 64.0998C43.4372 64.0435 43.5521 63.4806 43.7818 63.0866C44.0689 62.974 44.4708 62.9178 44.4134 62.4675L44.4708 62.4112C45.045 62.4112 45.1598 61.9046 45.3895 61.5106C46.3656 60.7789 47.2843 60.1034 47.9159 59.0339C48.3179 59.0339 48.4901 58.8088 48.605 58.4711C49.5811 57.9082 50.3275 57.1202 50.9592 56.2759C51.3611 56.3322 51.4759 55.9944 51.5333 55.713C52.165 55.6004 52.5669 55.2064 52.7966 54.6436C53.7153 54.3058 54.4043 53.6867 54.8637 52.8987C55.2656 52.9549 55.3804 52.6735 55.4379 52.3358C56.2417 51.9981 56.8733 51.4352 57.5049 50.8723C57.9643 50.4783 58.6533 50.3094 58.8256 49.5777C59.1701 49.5777 59.4572 49.5214 59.3998 49.0711C59.8017 49.0149 60.1462 48.9586 60.2036 48.452H60.2611C60.9501 48.2831 61.4669 47.8891 61.8114 47.27C62.2133 47.3262 62.443 47.1011 62.5578 46.7634C63.2469 46.5945 63.8211 46.2568 64.1082 45.5813C64.3952 45.5813 64.7972 45.6376 64.6249 45.131C64.8546 45.2436 65.0268 45.131 65.1417 45.0185C65.7733 44.9059 66.2327 44.5682 66.4623 43.949C66.8643 43.949 67.0939 43.7802 67.1514 43.3861C67.4959 43.3299 67.8978 43.3298 67.9552 42.8233L68.0126 42.767C68.7591 42.6544 69.2185 42.2041 69.6778 41.6975C69.9649 41.6412 70.4243 41.7538 70.3668 41.2472C71.2855 40.8532 72.1468 40.4592 72.6636 39.5586C73.812 39.3898 74.6733 38.658 75.5346 37.9263C76.0513 37.8137 76.5681 37.7574 76.683 37.1946C76.7404 37.2508 76.7978 37.2509 76.8552 37.1383C77.1997 37.1383 77.6017 37.1383 77.6591 36.688L77.7165 36.6317C78.061 36.6317 78.4629 36.688 78.5778 36.1814C78.75 36.294 78.8075 36.1814 78.8649 36.0688C79.4965 35.8437 80.1281 35.6185 80.5301 34.9994C80.7023 34.9994 80.932 34.9994 81.1042 34.8868C82.0804 34.3239 83.0565 33.7611 84.09 33.1982C84.4345 33.2545 84.7791 33.1982 84.7791 32.7479C85.2958 32.6916 85.8126 32.8042 86.0423 32.1287C86.2145 32.185 86.3294 32.1287 86.3868 32.0162C86.7887 32.0724 87.0758 31.9599 87.1333 31.5659C87.3055 31.6221 87.4203 31.6221 87.5352 31.5096C87.8797 31.5659 88.1668 31.4533 88.2242 31.0593C88.6262 31.003 89.2003 31.2281 89.3726 30.609C89.7745 30.4401 90.3487 30.609 90.5784 30.0461H90.6932L90.7507 29.9335C90.9229 29.8772 91.1526 29.821 91.3249 29.7647C91.6694 29.7647 92.0713 29.821 92.1287 29.3144C92.2436 29.2581 92.3584 29.2581 92.4732 29.2018C92.7029 29.2581 92.99 29.2018 93.1623 29.0329C93.392 28.9204 93.679 28.7515 93.9087 28.6389C94.3107 28.6952 94.5977 28.5264 94.6552 28.1323C94.8274 28.1886 94.9423 28.1886 95.0571 28.0761C95.9184 27.9635 96.6648 27.682 97.2965 27.0629C97.9855 27.0629 98.5023 26.6689 99.0764 26.3874C99.421 26.3874 99.8229 26.4437 99.8803 25.9371C100.225 25.9934 100.512 25.8809 100.799 25.7683C101.201 25.8246 101.488 25.712 101.545 25.318C101.775 25.4306 102.005 25.318 102.235 25.2054C102.407 25.2054 102.579 25.2054 102.579 24.9803C102.809 25.0366 102.924 24.8677 103.038 24.6988C103.44 24.6425 103.555 24.53 104.129 24.2485C104.244 24.1922 104.359 24.1922 104.474 24.136C104.876 24.0797 105.393 24.3048 105.565 23.6857C105.794 23.7982 105.967 23.6294 106.196 23.5731C106.656 23.5731 107.058 23.6294 107.23 23.0665C107.402 23.1228 107.517 23.1228 107.632 23.0102C108.034 23.0102 108.551 23.1791 108.723 22.5599C108.953 22.5036 109.125 22.5036 109.354 22.4474C109.756 22.4474 110.273 22.6162 110.445 21.9971C110.675 21.9408 110.847 21.9408 111.077 21.8845C111.479 21.8845 111.996 22.0533 112.168 21.4342C112.283 21.5468 112.57 21.4905 112.857 21.4342ZM96.9519 284.914C96.4926 284.295 95.8036 284.07 95.1145 283.845C95.0571 283.732 94.9423 283.732 94.8849 283.788C94.8274 283.676 94.8274 283.451 94.7126 283.394C92.7603 282.156 90.8655 280.974 88.8558 279.792C85.6404 277.878 82.4249 275.852 79.4965 273.544C78.5204 272.756 77.6591 271.855 76.4533 271.405C76.4533 271.18 76.3384 271.011 76.1088 270.842C74.8455 269.773 73.6397 268.703 72.4339 267.634C69.7927 265.326 67.381 262.737 64.912 260.317L64.8546 260.26C63.6488 258.797 62.443 257.39 61.1223 256.039C60.9501 255.814 60.8352 255.588 60.4907 255.645C60.4333 255.476 60.4907 255.251 60.3759 255.138C59.4572 254.069 58.5959 253.055 57.6198 252.042C57.0456 251.423 56.414 251.479 55.9546 252.155C55.6675 252.605 55.2656 252.999 54.8637 253.449C53.2559 255.138 51.3037 256.433 49.6385 258.065C49.3514 258.346 48.7772 258.515 48.8346 259.078C47.9734 259.36 47.3992 260.035 46.6527 260.542C46.1359 260.879 45.734 261.273 45.045 261.386C43.265 261.724 41.0256 259.641 41.3701 257.784C41.5424 256.883 42.0592 256.208 42.6908 255.701C44.0114 254.519 45.3895 253.393 46.7675 252.324C48.8921 250.691 51.0166 248.947 53.0837 247.202C53.4282 246.92 53.6004 246.582 53.2559 246.132C53.0262 245.851 52.9114 245.457 52.6817 245.175C51.2463 243.374 49.9256 241.46 48.8346 239.434C47.3992 236.901 46.1933 234.256 44.7004 231.779C42.9205 228.852 41.5424 225.813 40.1069 222.717C38.614 219.621 37.4656 216.413 36.2598 213.204C35.7431 211.853 35.3411 210.502 34.9392 209.095C34.6521 208.026 34.2502 207.013 33.9056 205.943C33.4463 204.423 33.0443 202.904 32.7573 201.384C32.5276 200.371 32.4127 199.358 32.1256 198.401C31.6663 196.881 31.4366 195.305 31.2069 193.785C31.0347 192.941 30.9773 192.04 30.805 191.14C30.5753 190.014 30.4605 189.901 29.3695 190.239C28.0489 190.633 26.7282 190.521 25.4076 190.464C24.0295 190.408 22.7089 189.845 21.7328 189.113C20.0102 187.875 19.0915 186.018 18.5747 183.991C18.1728 182.246 17.9431 180.501 18.0005 178.7C18.0579 177.631 17.9431 177.631 16.8521 177.631C13.9812 177.631 11.1102 177.631 8.23925 177.631C7.03344 177.631 7.03344 177.631 7.03344 178.813C6.97602 182.303 7.72247 185.736 7.72247 189.17C7.72247 189.282 7.77989 189.339 7.77989 189.451C8.29667 191.646 8.23925 193.898 8.64118 196.149C8.92828 197.669 9.38763 199.132 9.44505 200.709C9.44505 200.934 9.61731 201.159 9.84699 201.271C9.73215 202.228 9.78957 203.129 10.0767 204.029C10.536 205.324 10.536 206.675 10.9954 207.97C11.3973 209.264 11.627 210.615 11.9141 211.91C12.2586 213.655 12.8328 215.343 13.2921 217.032C13.8089 218.946 14.6128 220.803 15.187 222.717C15.187 222.829 15.4166 222.829 15.5315 222.886C15.4166 223.28 15.5315 223.617 15.6463 223.955C16.6225 226.488 17.5412 229.077 18.6321 231.554C20.0676 234.931 21.5605 238.252 23.1682 241.517C24.6037 244.444 26.2115 247.258 27.8192 250.072C30.4605 254.744 33.5611 259.078 36.8914 263.3C38.614 265.495 40.3366 267.746 42.1166 269.885C43.265 271.293 44.643 272.531 45.9063 273.825C49.3514 277.484 52.9114 281.086 56.7011 284.351C62.3282 289.304 68.3572 293.807 74.6159 297.973C79.841 301.519 85.181 304.896 90.9803 307.429C92.0713 307.935 93.1048 308.723 94.3681 308.78C94.9423 309.455 95.6887 309.793 96.55 309.849C96.9519 310.074 97.3539 310.356 97.8132 310.525C101.545 311.932 105.163 313.452 109.01 314.634C111.02 315.253 113.029 316.041 115.039 316.716C117.853 317.673 120.781 318.349 123.652 319.08C124.628 319.305 125.604 319.418 126.58 319.699C128.016 320.15 129.566 320.319 131.059 320.6C132.552 320.881 134.102 321.05 135.538 321.388C137.605 321.838 139.672 322.007 141.739 322.232C145.069 322.57 148.342 322.908 151.73 322.964C158.735 323.077 165.683 322.964 172.63 322.289C172.975 322.232 173.32 322.232 173.607 322.12C174.64 321.838 175.674 321.782 176.707 321.726C178.889 321.669 181.071 321.219 183.253 320.881C184.401 320.713 185.55 320.656 186.641 320.375C187.904 320.037 189.11 319.756 190.373 319.474C192.325 319.024 194.278 318.686 196.23 318.123C198.986 317.335 201.685 316.491 204.326 315.534C208.173 314.24 211.963 312.832 215.752 311.313C221.609 309.005 227.121 306.022 232.576 303.038C236.251 301.012 239.983 298.986 243.428 296.453C247.62 293.413 251.754 290.261 255.831 287.053C256.635 286.434 257.726 286.096 258.013 284.97C258.932 284.689 259.563 284.013 260.252 283.394C263.123 280.918 265.65 278.16 268.348 275.514C270.817 273.094 272.999 270.448 275.239 267.803C276.387 266.452 277.65 265.101 278.569 263.581C278.626 263.469 278.626 263.412 278.684 263.3C278.971 263.187 279.143 263.018 279.315 262.793C280.119 261.555 280.981 260.373 281.842 259.134C283.966 256.095 286.033 253.055 287.871 249.847C289.938 246.301 291.718 242.642 293.441 238.927C293.957 237.802 295.22 235.213 295.22 235.213C296.139 232.961 297.115 230.71 298.091 228.458C298.493 227.445 299.01 226.432 299.297 225.362C299.814 223.28 300.56 221.31 301.25 219.283C302.053 217.032 302.57 214.724 303.259 212.473C303.546 211.572 304.408 207.688 304.408 207.688C304.695 205.549 305.384 203.523 305.786 201.44C306.188 199.076 306.762 196.712 306.877 194.236C306.877 194.067 306.934 193.842 306.934 193.673C307.451 190.577 307.968 187.481 308.025 184.385C308.025 183.71 307.91 183.034 308.14 182.415C308.542 181.289 308.484 180.107 308.484 178.925C308.484 177.575 308.427 177.575 307.164 177.575C304.35 177.518 301.537 177.518 298.723 177.518C297.804 177.518 297.747 177.575 297.747 178.475C297.747 178.7 297.747 178.925 297.804 179.151C297.862 181.74 297.288 184.216 296.024 186.468C295.278 187.819 294.244 189.113 292.866 189.676C290.857 190.521 288.675 190.746 286.493 190.014C285.804 189.789 285.172 190.014 285.172 190.633C285.172 191.759 284.541 192.716 284.598 193.785C284.598 195.192 284.139 196.487 283.852 197.725C283.392 199.639 282.99 201.609 282.416 203.523C281.842 205.493 281.325 207.463 280.751 209.377C280.406 210.446 278.971 214.611 278.971 214.611C278.167 217.032 277.133 219.34 276.215 221.704C276.043 221.76 275.009 224.124 274.952 224.349C274.722 225.475 274.033 226.488 273.516 227.501C271.679 231.104 269.726 234.65 267.544 238.139C266.109 240.391 264.673 242.642 263.181 244.894C262.779 245.457 262.721 246.132 262.319 246.639C262.204 246.808 262.204 247.033 262.377 247.145C263.238 247.483 263.64 248.44 264.444 248.778C265.19 249.115 265.822 249.622 266.396 250.072C268.463 251.705 270.358 253.506 272.482 255.026C273.172 255.532 273.803 256.095 274.205 256.827C274.779 257.896 274.55 259.866 272.942 260.823C271.793 261.555 269.841 261.442 268.865 260.429C268.233 259.81 267.659 259.191 266.798 258.909C266.798 258.74 266.798 258.515 266.626 258.403C264.329 256.489 262.319 254.238 260.08 252.211C258.472 250.748 258.472 250.748 257.266 252.549C256.003 254.012 253.994 256.376 252.788 257.84C252.788 257.84 250.376 260.485 250.089 260.823C244.519 266.846 238.146 271.912 231.6 276.809C227.294 280.073 222.528 282.663 217.819 285.252C214.948 286.828 211.905 288.122 208.805 289.361C206.336 290.374 203.809 291.274 201.34 292.288C198.928 293.301 196.402 294.089 193.876 294.82C191.407 295.496 188.938 296.115 186.469 296.734C183.196 297.579 179.865 298.198 176.535 298.648C174.468 298.986 172.286 299.042 170.161 299.211C167.405 299.436 164.649 299.323 161.836 299.492C158.735 299.717 155.634 299.83 152.534 299.605C150.524 299.436 148.514 299.436 146.562 299.323C144.208 299.211 141.969 298.704 139.614 298.535C138.523 298.423 137.318 298.31 136.227 297.973C134.619 297.466 132.954 297.466 131.346 297.072C129.968 296.734 128.59 296.397 127.212 296.115C125.604 295.777 124.054 295.214 122.446 294.877C120.838 294.483 119.288 293.92 117.68 293.526C115.671 292.963 113.776 292.175 111.881 291.387C109.871 290.486 107.747 289.867 105.795 288.854C104.359 288.122 102.924 287.278 101.258 286.997C101.201 286.321 100.512 286.377 100.11 286.209C99.1913 285.702 98.3874 285.027 97.2965 284.858L97.239 284.745L96.9519 284.914ZM315.202 184.554C315.088 186.018 314.686 189.226 314.169 190.633C314.054 190.915 313.939 191.365 314.284 191.534C314.628 191.703 314.973 191.534 315.26 191.196C315.891 190.521 316.581 189.958 317.212 189.282C318.762 187.594 320.083 185.736 320.887 183.597C321.002 183.428 321.002 183.203 321.002 183.034C321.748 182.134 321.92 181.064 322.093 179.995C322.208 179.376 322.208 178.813 322.322 178.194C322.782 176.055 322.839 173.916 322.093 171.833C322.093 171.383 322.035 170.876 322.035 170.426C321.806 169.019 321.231 167.724 320.657 166.43C319.796 164.572 318.533 162.996 317.384 161.308C316.753 160.407 316.121 159.394 314.8 159.169C314.628 160.182 315.088 163.672 315.088 163.672C315.317 168.963 315.202 174.254 315.202 179.545C315.202 181.177 315.202 182.866 315.202 184.554ZM157.587 38.9958C154.027 38.9958 150.524 38.9958 146.964 38.9958C146.045 38.9958 145.127 38.9958 144.265 38.9958C143.634 38.9958 143.117 38.658 143.06 38.1514C142.945 37.1383 142.658 36.0688 143.289 35.1682C143.691 34.5491 143.634 34.2676 143.06 33.8173C141.854 32.7479 140.648 31.6222 139.729 30.2713C138.466 28.4701 137.432 26.5563 136.973 24.4174C136.686 23.2354 136.514 23.1228 135.308 23.2917C135.078 23.2917 134.849 23.4042 134.619 23.4042C133.183 23.742 131.748 24.0234 130.312 24.3611C128.418 24.8114 126.523 25.2054 124.628 25.6557C122.733 26.1623 120.781 26.6689 118.886 27.2318C117.336 27.7383 115.728 28.1323 114.178 28.6952C112.914 29.0892 111.709 29.5395 110.445 29.9898C108.149 30.7778 105.852 31.5659 103.555 32.4665C101.545 33.2545 99.5358 34.2676 97.5261 35.0557C94.3106 36.294 91.1526 37.8137 88.052 39.3335C85.1236 40.7969 82.2526 42.373 79.4391 44.0053C75.4197 46.4256 71.5152 48.9023 67.783 51.7166C64.8546 53.9118 62.1559 56.3885 59.3423 58.6962C54.9211 62.4112 50.7295 66.3513 46.7101 70.5165C44.7579 72.4866 42.9205 74.5692 41.2553 76.7644C39.5901 78.9033 37.6953 80.8733 36.0302 83.0685C34.7669 84.7009 33.7334 86.502 32.3553 88.0781C31.8385 88.6409 31.7237 89.4853 30.8624 89.823C30.4031 91.9619 28.7379 93.4254 27.7618 95.2265C25.9244 98.5475 23.8573 101.7 22.2495 105.077C21.2734 107.159 20.4121 109.298 19.4934 111.437C18.747 113.238 17.8857 115.04 17.2541 116.953C16.5076 119.317 15.4741 121.625 14.7276 123.989C14.0386 126.072 13.2347 128.098 12.7179 130.181C11.9715 132.939 11.2825 135.641 10.7657 138.455C10.5934 139.524 10.4786 140.594 10.1341 141.607C9.61731 143.352 9.38763 145.153 9.15795 146.954C8.92827 148.643 8.6986 150.388 8.41151 152.076C8.00957 154.103 8.18183 156.185 7.55022 158.155C7.60764 162.208 6.97603 166.205 6.97603 170.201C6.97603 171.214 6.86118 171.327 8.06699 171.327C10.5934 171.327 13.1199 171.327 15.6463 171.327C17.7708 171.327 17.8857 171.327 17.8283 169.244C17.8283 167.161 18.4024 165.191 19.2637 163.334C20.4695 160.632 22.8237 159.45 25.6373 158.944C25.9818 158.887 26.4986 158.831 26.7857 159C27.5321 159.394 28.336 159.338 29.1398 159.506C30.1734 159.732 30.4605 159.563 30.5753 158.606C30.805 157.03 31.0347 155.454 31.0921 153.878C31.1495 152.302 31.4366 150.726 31.8385 149.15C32.2979 147.18 32.8147 145.153 33.2166 143.183C33.6185 141.382 34.0779 139.524 34.6521 137.78C35.4559 135.134 36.3747 132.489 37.2934 129.899C38.6714 125.959 40.3366 122.188 42.1166 118.417C44.0114 114.477 46.2508 110.705 48.605 106.991C49.8108 105.077 51.1888 103.276 52.5669 101.474C53.1411 100.686 53.1985 100.236 52.6243 99.9547C51.3611 99.2792 50.4424 98.2097 49.3514 97.4217C46.8824 95.6768 44.7579 93.5942 42.4611 91.7367C41.3701 90.8361 40.9682 88.5847 41.5998 87.3463C42.5759 85.3763 45.6192 85.1512 46.9972 86.502C49.5237 88.9787 52.2224 91.2864 54.8637 93.5942C55.4953 94.1571 56.012 95.2265 56.8159 95.1702C57.6198 95.0577 58.1366 94.0445 58.6533 93.3691C61.2946 90.0481 64.2804 87.0649 67.2662 84.0254C71.9172 79.3536 76.9126 75.1321 82.0804 71.0794C84.7216 68.9968 87.65 67.1956 90.521 65.3944C93.2771 63.7058 96.0332 61.9046 99.019 60.4974C103.44 58.3585 107.862 56.2759 112.513 54.5873C116.13 53.2364 119.805 51.9981 123.537 50.8723C124.111 50.7035 124.628 50.3657 125.26 50.2532C126.58 50.028 127.901 49.5777 129.279 49.3526C130.37 49.1274 131.461 48.7897 132.609 48.6771C134.045 48.452 135.538 48.1705 136.916 47.8891C138.811 47.4951 140.705 47.27 142.543 47.0448C146.045 46.5945 149.548 46.2568 153.108 46.3131C155.979 46.3694 158.85 46.3131 161.721 46.3131C165.568 46.2568 169.358 46.7634 173.147 47.0448C173.262 47.0448 173.434 47.0448 173.549 47.1011C175.559 47.7202 177.683 47.7202 179.75 48.058C181.243 48.2831 182.794 48.5083 184.229 48.846C186.813 49.4089 189.397 50.028 191.923 50.816C193.99 51.4352 196.115 52.0544 198.125 52.7861C201.225 53.9118 204.211 55.1501 207.254 56.501C212.652 58.9214 217.877 61.7357 222.987 64.6627C225.514 66.1261 227.925 67.7585 230.337 69.3908C232.346 70.7417 234.299 72.2614 236.251 73.7249C241.993 78.0027 247.275 82.7871 252.156 87.9655C253.994 89.9356 255.659 92.0182 257.324 94.1008C258.415 95.508 258.702 95.508 260.023 94.3259C261.63 92.9188 263.181 91.399 264.788 89.9919C266.281 88.7535 267.659 87.3464 269.324 86.2769C270.071 85.8266 272.081 85.714 272.827 86.1643C274.664 87.2901 275.009 89.7667 273.459 91.2302C271.851 92.7499 270.128 94.0445 268.348 95.3391C266.453 96.69 264.788 98.3223 263.008 99.7858C262.434 100.236 262.492 100.63 262.893 101.193C263.755 102.375 264.616 103.613 265.363 104.852C268.578 110.086 271.793 115.321 274.32 120.893C275.411 123.258 276.559 125.565 277.363 128.042C278.224 130.519 279.143 132.995 279.89 135.528C280.693 138.23 281.67 140.875 282.186 143.69C282.359 144.703 282.473 145.829 282.818 146.842C283.277 148.136 283.45 149.487 283.679 150.782C283.966 152.358 284.311 153.878 284.483 155.454C284.598 156.579 284.885 157.649 284.943 158.775C285 159.732 285.344 159.9 286.321 159.732C286.837 159.619 287.354 159.619 287.871 159.506C290.742 158.887 292.924 160.126 294.704 162.096C296.656 164.291 297.23 166.993 297.517 169.751C297.575 170.145 297.517 170.482 297.517 170.876C297.517 171.383 297.747 171.552 298.206 171.496C298.723 171.439 299.24 171.439 299.757 171.439C301.939 171.439 304.178 171.496 306.36 171.552C308.312 171.608 308.312 171.552 308.197 169.751C308.082 167.105 307.968 164.403 307.853 161.758C307.795 160.576 307.968 159.394 307.68 158.268C307.106 155.96 307.221 153.54 306.762 151.176C306.475 149.656 306.245 148.024 305.9 146.504C305.441 144.253 305.039 142.001 304.465 139.806C303.719 136.823 303.03 133.839 302.168 130.913C301.939 130.125 301.594 129.337 301.479 128.492C301.192 126.804 300.56 125.171 300.101 123.539C299.584 121.738 298.78 119.993 298.091 118.192C296.828 114.702 295.335 111.325 293.842 107.947C292.637 105.189 291.144 102.488 289.708 99.8421C288.043 96.8026 286.263 93.8756 284.483 90.8924C282.933 88.2469 281.095 85.714 279.258 83.1811C276.789 79.7476 274.09 76.5392 271.277 73.4434C270.071 72.1488 268.865 70.9105 267.659 69.6159C265.65 67.4207 263.468 65.3944 261.286 63.3681C258.128 60.4411 254.797 57.6268 251.41 54.9813C249.457 53.4615 247.505 51.9418 245.438 50.5346C241.017 47.5514 236.538 44.737 231.945 42.0353C228.385 39.8963 224.595 38.0951 220.805 36.3503C217.877 34.9994 214.891 33.7611 211.905 32.5227C209.723 31.6221 207.484 30.8904 205.302 30.1024C203.292 29.3707 201.225 28.7515 199.158 28.0761C197.608 27.5695 196.115 27.0629 194.565 26.7252C192.727 26.3312 190.947 25.712 189.052 25.318C187.674 25.0366 186.239 24.7551 184.861 24.4737C183.023 24.0797 181.129 23.8545 179.234 23.5168C178.889 23.4605 178.717 23.4605 178.545 23.742C178.315 24.0797 178.2 24.4174 178.143 24.7551C177.97 26.6689 177.052 28.3012 175.961 29.7647C174.87 31.2281 173.894 32.8042 172.343 33.9299C171.539 34.4928 171.539 34.9431 172.056 35.7874C172.63 36.6317 172.401 37.5323 172.114 38.3766C171.827 39.2772 170.908 39.1646 170.161 39.1646C165.912 38.9957 161.778 38.9958 157.587 38.9958ZM36.7192 174.422C36.834 178.194 36.7192 182.134 37.1785 186.074C37.4656 188.832 37.7527 191.534 38.3269 194.236C38.5566 195.192 38.8437 196.149 38.9585 197.106C39.0734 198.513 39.6476 199.808 39.9347 201.159C40.2792 202.791 40.8534 204.367 41.2553 206C41.8295 208.195 42.5759 210.334 43.3798 212.416C44.1837 214.611 45.045 216.75 45.9637 218.889C46.7101 220.634 47.3417 222.435 48.2604 224.124C49.2366 226.038 50.3275 227.895 51.1888 229.809C51.5333 230.541 51.6482 231.385 52.2224 232.06C53.6004 233.693 54.5766 235.607 55.6675 237.464C56.8159 239.49 58.0217 241.46 59.3998 243.374C61.4669 246.245 63.7636 248.947 66.1752 251.648C68.4146 254.181 70.5965 256.827 73.123 259.191C78.2333 264.031 83.5733 268.534 89.43 272.475C91.8991 274.163 94.4829 275.683 97.0094 277.259C99.9952 279.116 103.096 280.692 106.254 282.156C108.091 283 109.929 283.845 111.881 284.52C114.407 285.421 116.934 286.321 119.518 287.165C121.413 287.785 123.307 288.404 125.202 289.023C126.81 289.53 128.475 289.924 130.14 290.374C131.633 290.712 133.126 290.993 134.619 291.274C136.054 291.556 137.49 291.837 138.983 292.119C140.533 292.4 142.083 292.738 143.634 292.907C146.447 293.244 149.318 293.638 152.189 293.582C156.898 293.526 161.549 293.751 166.257 293.413C168.669 293.244 171.08 292.85 173.492 292.569C176.42 292.231 179.349 291.668 182.277 291.274C183.196 291.162 184.172 290.937 185.033 290.599C186.641 290.036 188.306 289.642 189.914 289.135C192.555 288.291 195.311 287.616 197.895 286.659C201.34 285.421 204.785 284.07 208.173 282.55C212.02 280.805 215.695 278.835 219.37 276.809C223.791 274.332 227.753 271.293 231.772 268.309C233.495 267.071 235.16 265.72 236.825 264.313C239.409 262.118 241.878 259.866 244.232 257.446C247.103 254.519 249.63 251.311 252.271 248.102C254.223 245.738 256.118 243.318 257.783 240.785C259.85 237.633 261.688 234.312 263.697 231.047C265.018 228.965 266.052 226.769 267.143 224.518C268.348 221.985 269.439 219.34 270.53 216.75C270.99 215.681 271.392 214.611 271.736 213.486C272.253 211.853 272.77 210.221 273.286 208.589C273.918 206.619 274.664 204.649 275.124 202.566C275.641 200.146 276.1 197.725 276.444 195.305C276.789 192.772 277.306 190.239 277.535 187.706C277.535 187.594 277.535 187.425 277.593 187.312C278.397 184.723 277.88 182.021 278.569 179.432C278.454 174.873 278.913 170.257 278.167 165.698C277.765 163.39 277.995 161.082 277.593 158.718C277.248 156.692 276.732 154.722 276.846 152.639C276.846 152.471 276.789 152.245 276.732 152.076C276.157 150.613 276.157 149.037 275.87 147.574C275.583 146.279 275.296 145.041 275.066 143.746C274.894 142.902 274.664 142.057 274.377 141.213C273.861 139.75 273.401 138.342 272.884 136.879C272.253 135.021 271.679 133.108 270.932 131.25C269.726 128.211 268.406 125.228 267.085 122.244C265.535 118.755 263.812 115.265 261.745 112.056C259.908 109.129 257.898 106.315 255.831 103.501C253.534 100.349 251.065 97.3092 248.424 94.4948C244.749 90.611 241.017 86.7835 236.825 83.4062C233.725 80.9296 230.681 78.2841 227.408 75.9201C222.183 72.2051 216.728 68.8842 210.929 66.1261C205.589 63.5932 200.249 61.1166 194.622 59.2028C191.981 58.3022 189.339 57.5142 186.698 56.7262C184.057 55.9382 181.358 55.4316 178.659 55.0376C176.363 54.6999 174.066 54.137 171.769 53.9681C168.209 53.6304 164.649 53.1238 161.032 53.2364C156.783 53.4052 152.534 53.0675 148.285 53.6867C145.931 54.0244 143.519 54.1933 141.222 54.531C138.753 54.8687 136.284 55.319 133.815 55.9382C131.346 56.5573 128.82 57.0639 126.351 57.6831C124.111 58.2459 121.872 58.8651 119.69 59.5968C115.785 60.8351 112.053 62.5238 108.321 64.2124C104.302 66.0135 100.282 67.9273 96.4926 70.2351C92.4732 72.7117 88.3391 75.0195 84.6068 78.0027C81.3339 80.5919 78.061 83.2374 75.0752 86.108C73.123 88.0218 71.1133 89.9356 69.2759 92.0182C67.6107 93.8194 66.1752 95.8457 64.2804 97.4217C63.4765 99.2229 61.9836 100.461 60.8353 102.037C59.2275 104.345 57.5623 106.597 55.8972 108.848C55.0359 110.086 54.1746 111.381 53.4282 112.676C52.2224 114.646 51.1314 116.672 49.983 118.698C48.8921 120.612 47.8011 122.526 46.9972 124.608C46.3082 126.353 45.5617 128.042 44.9301 129.787C44.2985 131.419 43.6669 133.108 43.2076 134.796C42.576 137.048 41.8869 139.243 41.1979 141.438C40.394 144.196 39.8198 147.011 39.1882 149.825C38.6714 152.02 38.3843 154.215 38.0398 156.411C37.5805 159.506 37.2934 162.658 36.9489 165.754C36.6043 168.4 36.7192 171.327 36.7192 174.422ZM154.429 19.8581C154.429 16.1432 154.429 12.4845 154.429 8.76959C154.429 7.30613 154.371 7.19355 152.878 7.53127C150.294 8.09415 148.227 9.44504 146.505 11.3588C144.208 13.8917 143.404 17.0438 143.117 20.2522C142.945 22.1096 143.691 23.9108 144.438 25.5994C145.356 27.6258 146.907 29.2018 148.227 30.8904C149.089 31.9599 150.122 32.4102 151.443 32.2413C152.017 32.185 152.591 32.2413 153.165 32.2413C154.429 32.2413 154.429 32.2413 154.429 31.003C154.429 27.2318 154.429 23.5731 154.429 19.8581ZM160.745 19.6893C160.802 22.8977 160.802 26.0497 160.802 29.2581C160.802 30.1587 160.4 31.397 160.974 31.9599C161.606 32.6353 162.869 32.1287 163.845 32.185C164.707 32.2976 165.396 31.9036 166.085 31.4533C167.692 30.3838 168.783 28.8641 169.817 27.3443C171.425 25.0366 172.114 22.3911 171.999 19.633C171.941 18.5073 171.827 17.3815 171.482 16.3121C170.678 13.8917 169.415 11.7528 167.52 10.0079C165.97 8.60074 164.132 7.47499 161.893 7.30613C160.802 7.19356 160.745 7.24985 160.745 8.3193C160.745 12.0905 160.745 15.9181 160.745 19.6893ZM29.7715 175.098C29.7715 173.972 29.7715 172.846 29.7715 171.721C29.7715 170.539 29.8289 169.357 29.8289 168.231C29.8863 165.191 29.8863 165.135 26.6708 165.585C25.5224 165.754 24.776 166.486 24.7186 167.555C24.6037 171.946 24.4889 176.336 24.7186 180.783C24.8334 183.091 26.7282 184.948 28.9102 184.723C29.9437 184.61 30.0586 184.554 30.0011 183.541C29.7715 180.727 29.7715 177.912 29.7715 175.098ZM290.57 174.816C290.57 172.452 290.57 170.145 290.512 167.781C290.512 166.205 289.708 165.529 288.101 165.529C287.584 165.529 287.067 165.585 286.55 165.585C285.919 165.585 285.689 165.923 285.689 166.486C285.689 166.824 285.746 167.161 285.746 167.443C285.804 172.115 286.206 176.787 285.517 181.458C285.115 184.273 285.574 184.667 288.502 184.048C289.938 183.766 290.57 183.091 290.57 181.627C290.627 179.432 290.57 177.124 290.57 174.816Z" fill="#E9CC97"/>
<path d="M220.995 54.464C220.823 53.676 221.34 53.0005 221.627 52.2688C222.259 50.8053 223.12 49.4544 223.866 47.991C224.153 47.4281 224.67 46.9215 225.129 46.5275C226.795 45.1203 228.747 45.7395 229.723 47.7095C230.469 49.2293 229.895 50.4676 229.378 51.7059C228.747 53.2257 227.771 54.5766 226.737 55.9275C226.163 56.7155 225.417 57.2783 224.498 57.5035C222.718 58.0101 220.823 56.0963 220.995 54.464Z" fill="#E9CC97"/>
<path d="M282.891 102.645C284.04 102.645 285.533 103.602 285.82 104.671C286.107 105.797 285.992 106.81 285.016 107.711C283.064 109.456 280.882 110.638 278.355 111.426C277.437 111.707 275.886 110.976 275.197 110.019C274.623 109.174 274.68 108.161 275.369 107.204C276.46 105.741 277.896 104.671 279.504 103.827C280.135 103.489 280.824 103.32 281.398 102.983C281.915 102.645 282.432 102.645 282.891 102.645Z" fill="#E9CC97"/>
<path d="M88.1738 46.3031C89.2647 46.1342 90.0686 46.7534 90.6428 47.5414C91.9634 49.3989 93.1118 51.3126 93.9157 53.4516C94.2602 54.3521 94.3176 55.3653 93.6286 56.2659C92.3654 58.0108 90.7002 58.0671 89.437 56.7725C87.657 54.915 86.2789 52.4947 85.3602 50.1306C84.8434 49.3989 84.6138 48.6672 85.3028 47.8791C86.0492 46.9223 86.8531 46.1905 88.1738 46.3031Z" fill="#E9CC97"/>
<path d="M32.2577 102.59C34.1526 102.534 35.5306 103.603 36.9661 104.616C38.1719 105.517 39.148 106.643 39.8945 107.993C40.6409 109.401 39.8945 110.92 38.2868 111.089C37.1384 111.202 36.0474 111.089 34.9564 110.583C33.1764 109.795 31.5113 108.894 30.0758 107.599C29.3294 106.868 28.6403 106.023 28.9848 104.785C29.3868 103.434 30.7648 102.365 32.2577 102.59Z" fill="#E9CC97"/>
<path d="M266.466 81.5937C266.638 84.1266 264.227 85.759 262.274 85.7027C259.633 85.6464 257.911 83.9015 257.796 81.4249C257.681 79.0608 260.265 77.4285 262.332 77.4285C264.399 77.4285 266.581 79.1171 266.466 81.5937Z" fill="#E9CC97"/>
<path d="M57.3432 81.6505C57.4581 84.0708 54.9891 86.0972 52.4626 85.3091C51.7736 85.084 51.142 84.9714 50.5104 84.5774C49.1897 83.7331 48.673 82.3259 49.1897 80.9187C49.7065 79.4553 50.4529 78.3858 52.0033 77.7104C53.6684 76.9224 56.1949 78.1607 56.8265 79.6242C56.9987 80.2996 57.5155 80.9187 57.3432 81.6505Z" fill="#E9CC97"/>
<path d="M277.599 234.356C278.461 234.131 279.15 234.638 279.896 234.919C281.791 235.595 283.571 236.495 285.007 238.015C286.27 239.253 285.925 240.942 284.777 242.068C283.801 243.024 281.849 243.362 280.528 242.63C279.092 241.842 277.542 241.054 276.279 239.929C275.647 239.366 275.13 238.69 274.843 237.79C274.556 236.889 274.729 236.214 275.245 235.595C275.82 234.863 276.451 234.131 277.599 234.356Z" fill="#E9CC97"/>
<path d="M160.591 311.697C160.591 312.653 160.649 313.554 160.591 314.511C160.476 316.256 159.5 317.1 157.778 317.044C157.433 317.044 157.089 317.044 156.802 316.988C155.825 316.875 155.194 316.256 154.964 315.299C154.562 313.498 154.505 311.697 154.849 309.895C154.964 309.276 154.964 308.601 155.022 307.925C155.136 306.8 155.998 305.899 157.089 305.73C158.18 305.561 159.96 306.068 160.304 307.25C160.476 307.982 160.763 308.657 160.706 309.445C160.591 310.233 160.649 310.965 160.591 311.697C160.649 311.697 160.649 311.697 160.591 311.697Z" fill="#E9CC97"/>
<path d="M31.5109 242.799C30.5348 243.025 29.9032 242.18 29.4438 241.336C28.9271 240.435 28.8697 239.31 29.5587 238.409C30.1329 237.565 30.8793 236.946 31.8555 236.495C33.1187 235.932 34.3245 235.37 35.5303 234.807C36.1619 234.469 36.7935 234.469 37.4825 234.469C38.6309 234.469 39.3199 235.032 39.8367 235.989C40.2387 236.833 40.2387 237.677 39.6645 238.465C39.3774 238.859 39.0903 239.197 38.7458 239.479C37.1954 240.829 35.4154 241.843 33.4632 242.631C32.889 242.743 32.3148 242.743 31.5109 242.799Z" fill="#E9CC97"/>
<path d="M90.7639 289.52C93.233 289.52 94.7259 292.109 93.6349 294.079C92.7162 295.712 91.7401 297.288 90.7065 298.807C89.9026 299.933 88.8691 300.44 87.6633 300.102C86.3427 299.708 85.3091 298.357 85.3665 297.062C85.424 296.106 85.6536 295.205 86.2278 294.473C87.0317 293.404 87.6633 292.222 88.4672 291.096C89.0414 290.252 89.673 289.407 90.7639 289.52Z" fill="#E9CC97"/>
<path d="M224.092 289.462C224.781 289.462 225.356 289.574 225.872 290.137C227.538 291.939 228.743 294.077 229.777 296.216C229.834 296.385 229.949 296.498 229.892 296.723C229.605 297.849 227.48 299.481 226.274 299.481C225.47 299.481 224.896 299.256 224.494 298.637C223.289 296.892 222.083 295.147 221.164 293.177C220.475 291.826 221.968 289.293 224.092 289.462Z" fill="#E9CC97"/>
<path d="M109.594 302.746C109.594 304.884 108.043 306.461 105.861 306.404C103.335 306.404 101.612 304.828 101.612 302.464C101.612 300.382 103.622 298.524 105.804 298.58C107.641 298.637 109.823 300.156 109.594 302.746Z" fill="#E9CC97"/>
<path d="M262.273 261.993C263.651 261.993 265.316 263.287 265.775 264.526C266.924 267.565 264.742 269.648 262.388 270.154C260.952 270.436 259.746 269.535 258.942 268.409C257.564 266.552 258.311 263.794 260.435 262.668C261.067 262.274 261.641 261.768 262.273 261.993Z" fill="#E9CC97"/>
<path d="M53.2637 269.873C50.7946 270.042 49.0146 268.128 49.0146 265.877C49.0146 263.738 51.254 262.162 53.2063 262.105C55.3882 262.049 57.1682 263.907 57.2256 266.158C57.283 268.128 55.4456 269.873 53.2637 269.873Z" fill="#E9CC97"/>
<path d="M211.809 299.201C211.752 299.595 211.924 299.707 212.326 299.651C212.326 299.989 212.556 300.27 212.728 300.552C213.187 301.509 213.647 302.465 213.302 303.591C212.843 305.28 211.005 306.799 208.651 306.237C207.445 305.955 206.24 305.392 205.78 304.21C205.263 302.859 205.436 301.396 206.469 300.27C207.445 299.144 208.766 298.525 210.374 298.863C210.776 298.976 211.292 299.088 211.809 299.201Z" fill="#E9CC97"/>
<path d="M274.329 172.666C274.329 174.917 274.387 177.281 274.329 179.589C274.272 181.897 273.985 184.261 273.698 186.569C273.525 187.919 273.525 189.327 273.181 190.677C272.779 192.366 272.664 194.055 272.32 195.743C271.745 198.276 271.114 200.809 270.425 203.342C269.334 207.17 268.185 210.997 266.693 214.712C265.429 217.808 263.994 220.791 262.558 223.831C259.802 229.797 256.357 235.369 252.395 240.604C249.696 244.263 246.711 247.753 243.725 251.186C241.428 253.832 238.902 256.139 236.375 258.56C235.227 259.685 233.849 260.642 232.528 261.543C231.38 262.331 230.404 263.4 229.313 264.245C227.475 265.708 225.638 267.115 223.8 268.523C221.446 270.324 218.92 271.787 216.336 273.194C213.407 274.827 210.479 276.572 207.321 277.81C204.565 278.879 201.866 280.118 199.11 281.187C196.641 282.088 194.172 283.045 191.646 283.833C189.464 284.508 187.339 285.24 185.157 285.803C183.262 286.309 181.368 286.703 179.53 287.21C177.98 287.604 176.372 287.66 174.822 288.11C173.559 288.504 172.18 288.392 170.86 288.504C166.037 288.955 161.271 289.18 156.448 289.011C153.117 288.898 149.73 289.011 146.399 288.617C144.791 288.448 143.126 288.504 141.576 288.167C140.255 287.885 138.877 287.773 137.557 287.379C136.293 286.985 134.915 286.985 133.652 286.591C131.815 286.028 129.92 285.69 128.083 285.071C127.221 284.789 126.36 284.621 125.499 284.395C123.317 283.833 121.25 283.045 119.125 282.257C117.001 281.469 114.934 280.68 112.809 279.949C109.536 278.71 106.435 277.247 103.277 275.727C98.7413 273.476 94.4922 270.718 90.3006 267.903C88.4058 266.609 86.6258 265.145 84.7884 263.682C83.4678 262.612 82.0323 261.655 80.8265 260.53C79.3336 259.235 77.8407 257.884 76.4626 256.477C72.5007 252.424 68.7685 248.147 65.2659 243.7C62.8543 240.548 60.5001 237.339 58.433 233.962C57.2272 231.992 56.0214 229.966 54.7582 227.996C53.3801 225.744 52.3466 223.211 51.1408 220.847C49.8201 218.089 48.6717 215.275 47.5233 212.461C46.7195 210.378 46.0304 208.295 45.3988 206.156C44.8821 204.412 44.3653 202.723 43.8485 200.978C43.6188 200.077 43.3891 199.177 43.2169 198.276C42.9872 196.982 42.7001 195.687 42.413 194.449C42.0111 192.704 42.1833 190.903 41.4943 189.214C41.4369 189.101 41.4369 188.933 41.4369 188.82C41.0924 184.092 40.633 179.42 40.6904 174.692C40.7479 170.921 40.633 167.093 40.9201 163.322C41.0924 161.521 41.1498 159.663 41.4943 157.918C41.8962 155.779 42.2982 153.697 42.7001 151.558C43.0446 149.869 43.6188 148.237 44.0208 146.605C44.4227 144.747 45.1692 143.002 45.4563 141.089C45.5711 140.244 45.9156 139.456 46.1453 138.668C46.7769 136.417 47.5233 134.165 48.3272 131.97C49.7053 128.255 51.313 124.653 53.093 121.107C54.0691 119.193 55.2749 117.335 56.1936 115.365C56.653 114.352 57.4569 113.452 58.1459 112.495C59.0072 111.2 59.811 109.849 60.7298 108.611C61.7059 107.316 62.7968 106.078 63.6581 104.727C65.4381 101.969 67.6201 99.5487 69.7446 97.1284C72.6155 93.8637 75.8884 90.9368 78.9891 87.8973C82.1471 84.7452 85.5349 81.8746 89.0949 79.2291C90.8749 77.8782 92.8845 76.865 94.7219 75.6267C98.2245 73.3189 101.957 71.4052 105.689 69.604C109.019 67.9717 112.464 66.5082 115.91 65.101C118.551 64.0316 121.25 63.0747 124.006 62.2867C125.728 61.8364 127.451 61.3298 129.173 60.8795C131.068 60.4292 133.021 60.0352 134.973 59.4723C136.064 59.1346 137.27 59.0783 138.418 58.7969C140.255 58.3466 142.15 58.2903 143.988 57.8963C145.538 57.5586 147.088 57.6711 148.696 57.5023C153.29 56.8831 157.941 57.052 162.591 57.1646C165.462 57.2208 168.333 57.446 171.147 58.0651C171.377 58.1214 171.606 58.1214 171.836 58.1214C174.075 58.1777 176.2 58.7969 178.382 59.1346C180.449 59.4723 182.458 59.9789 184.468 60.4855C186.822 61.1046 189.234 61.6112 191.531 62.5118C192.794 63.0184 194.115 63.3561 195.435 63.7501C197.732 64.4819 199.914 65.3825 202.153 66.2268C205.369 67.4651 208.412 69.0974 211.513 70.6172C214.384 72.0806 217.14 73.713 219.896 75.3453C225.58 78.6099 230.518 82.8877 235.399 87.1656C238.672 90.0362 241.773 93.1883 244.701 96.3966C247.572 99.5487 250.5 102.757 253.027 106.191C254.979 108.836 256.587 111.763 258.309 114.577C260.376 117.955 262.214 121.444 263.879 125.047C265.085 127.58 266.061 130.225 267.094 132.814C268.358 135.966 269.276 139.231 270.253 142.439C271.056 145.085 271.745 147.787 272.262 150.545C272.492 151.783 272.492 153.134 273.123 154.372C273.181 154.429 273.238 154.541 273.181 154.654C273.009 156.455 273.755 158.144 273.813 159.945C274.042 164.11 274.616 168.332 274.329 172.666ZM155.988 286.985C161.099 286.647 165.692 286.872 170.286 286.309C173.444 285.915 176.602 285.521 179.76 284.902C182.688 284.339 185.559 283.495 188.43 282.707C191.473 281.863 194.517 280.906 197.502 279.78C201.177 278.373 204.795 276.853 208.297 275.108C211.398 273.532 214.441 271.9 217.484 270.099C220.298 268.41 223.054 266.609 225.638 264.526C227.762 262.781 229.829 261.093 231.954 259.348C234.653 257.153 237.064 254.732 239.476 252.256C241.371 250.398 243.036 248.315 244.758 246.345C246.883 243.869 248.95 241.392 250.96 238.803C252.74 236.439 254.29 233.906 255.84 231.373C257.563 228.559 259.228 225.688 260.606 222.705C262.329 218.934 264.109 215.162 265.487 211.222C266.291 208.914 266.922 206.607 267.611 204.299C268.185 202.329 268.645 200.359 269.162 198.389C269.449 197.15 269.793 195.856 269.965 194.561C270.195 192.985 270.482 191.409 270.769 189.889C271.114 187.807 271.343 185.724 271.573 183.642C271.918 180.096 271.86 176.549 271.803 172.947C271.803 172.215 272.262 171.596 272.09 170.864C271.745 169.232 271.803 167.543 271.803 165.911C271.803 163.209 271.114 160.62 270.999 157.975C270.942 156.849 270.597 155.667 270.54 154.541C270.54 154.429 270.54 154.26 270.482 154.147C269.793 152.853 269.965 151.389 269.621 150.038C269.334 148.912 269.047 147.674 268.817 146.492C268.645 145.648 268.472 144.747 268.128 143.959C267.439 142.496 267.094 140.863 266.693 139.344C266.003 136.754 264.912 134.278 263.994 131.801C263.42 130.281 262.731 128.818 262.156 127.355C260.951 124.259 259.343 121.332 257.678 118.461C256.529 116.435 255.438 114.409 254.06 112.495C252.682 110.525 251.476 108.442 250.041 106.528C245.792 100.843 240.969 95.6086 235.686 90.8242C232.643 88.0099 229.427 85.3644 226.097 82.944C223.341 80.9177 220.527 78.8914 217.542 77.1465C214.384 75.3453 211.168 73.4878 207.895 71.8555C204.335 70.0543 200.603 68.4783 196.813 67.1274C194.976 66.4519 193.081 65.8328 191.244 65.1573C189.808 64.5944 188.315 64.2004 186.765 63.8627C185.042 63.4687 183.32 62.9058 181.597 62.5118C180.334 62.1741 179.013 61.9489 177.693 61.7238C176.085 61.4424 174.42 61.1609 172.812 60.8795C169.999 60.3729 167.128 60.1478 164.314 60.0352C158.515 59.81 152.715 59.5849 146.859 60.3166C143.758 60.7106 140.715 61.3861 137.557 61.6675C137.442 61.6675 137.27 61.7238 137.155 61.7801C135.892 62.343 134.456 62.2867 133.135 62.6807C132.446 62.9058 131.7 63.1873 130.953 63.2436C129.173 63.4124 127.508 64.1441 125.786 64.5944C123.719 65.101 121.709 66.0016 119.642 66.6208C116.886 67.4651 114.302 68.7597 111.661 69.7729C109.823 70.4483 108.101 71.4615 106.378 72.3058C102.244 74.2758 98.3968 76.6962 94.4923 79.1165C91.1619 81.1991 88.0039 83.5069 85.1329 86.1524C81.2284 89.7548 77.3239 93.4697 73.5917 97.2972C71.6394 99.2673 69.802 101.406 68.1368 103.545C65.6104 106.866 63.1988 110.243 60.6723 113.564C60.4427 113.902 60.1556 114.296 60.0407 114.634C59.4091 116.322 58.2607 117.729 57.342 119.305C55.1601 123.077 53.3801 127.017 51.7724 131.069C51.0259 132.983 50.3369 134.953 49.7053 136.923C49.2459 138.274 48.7866 139.625 48.3846 141.032C47.9827 142.552 47.3511 144.015 47.0066 145.535C46.4898 147.618 45.8008 149.644 45.3414 151.727C45.1117 152.965 44.9395 154.203 44.6524 155.442C44.193 157.243 44.1356 159.157 43.7911 160.958C43.3891 163.266 43.3891 165.686 43.2743 168.106C43.0446 172.384 42.8724 176.718 43.504 180.996C43.9059 183.585 43.7337 186.231 44.1356 188.82C44.4227 190.677 44.7672 192.479 44.9969 194.392C45.1117 195.349 45.284 196.362 45.5711 197.263C46.2027 199.064 46.4324 200.978 47.064 202.779C47.5808 204.355 47.9253 206.044 48.442 207.62C49.4756 210.491 50.5091 213.305 51.6001 216.119C53.0356 219.778 54.9304 223.268 56.7104 226.757C57.7439 228.784 59.122 230.585 60.213 232.555C61.7059 235.201 63.4285 237.677 65.2085 240.098C67.6201 243.475 70.4336 246.571 73.2472 249.666C75.2568 251.918 77.4962 253.944 79.5633 256.083C80.482 257.04 81.5155 257.884 82.4342 258.785C84.3291 260.586 86.3387 262.275 88.4632 263.738C91.2768 265.708 94.0329 267.735 96.9613 269.592C98.9135 270.83 100.808 272.181 102.875 273.194C106.493 274.883 110.053 276.797 113.785 278.26C116.254 279.217 118.666 280.287 121.192 281.131C124.006 282.088 126.877 282.932 129.748 283.664C132.044 284.227 134.341 284.733 136.638 285.296C137.786 285.577 138.877 285.634 140.026 285.915C142.38 286.478 144.734 286.647 147.088 286.816C148.581 286.928 150.074 286.872 151.51 286.928C153.117 286.816 154.84 286.928 155.988 286.985Z" fill="#E9CC97"/>
<path d="M47.0725 174.13C46.6706 169.852 47.5319 165.349 47.7041 160.79C48.4506 159.327 48.1061 157.694 48.5654 156.118C48.9674 154.824 49.0248 153.36 49.3119 152.009C49.7712 149.983 50.2306 148.013 50.8048 146.043C51.0919 145.086 51.2641 144.073 51.6086 143.116C52.1254 141.596 52.4699 139.964 52.9867 138.444C53.7906 136.193 54.5944 133.941 55.5706 131.69C57.0635 128.144 58.7286 124.654 60.6235 121.276C63.3222 116.436 66.5376 111.933 69.868 107.486C73.4854 102.645 77.5621 98.3114 81.8686 94.0898C85.0266 91.0503 88.4144 88.236 91.9169 85.5905C96.2234 82.3258 100.932 79.6803 105.698 77.2037C108.339 75.8528 110.923 74.3893 113.679 73.2073C115.516 72.4193 117.354 71.6313 119.306 71.0684C121.086 70.5618 122.808 69.8301 124.588 69.2109C126.139 68.6481 127.689 68.1978 129.239 67.6912C131.077 67.1283 132.914 66.7906 134.752 66.2277C135.67 65.9463 136.646 65.8337 137.565 65.7211C139.116 65.496 140.666 65.2146 142.216 64.9331C144.398 64.4828 146.58 64.5954 148.705 64.0888C149.566 63.8637 150.427 63.9199 151.288 63.9199C155.365 63.9199 159.442 63.9199 163.461 63.9199C165.93 63.9199 168.457 64.2577 170.868 64.5954C172.476 64.8205 174.141 65.0457 175.749 65.3834C177.127 65.7211 178.62 66.0589 180.055 66.1714C181.089 66.284 182.123 66.5654 183.099 66.8469C184.706 67.2972 186.372 67.6912 187.979 68.3103C189.817 69.0421 191.826 69.5487 193.721 70.1678C195.673 70.8433 197.626 71.575 199.521 72.3067C202.966 73.7139 206.353 75.3462 209.626 77.0911C213.301 79.0612 216.919 81.2001 220.421 83.5079C223.062 85.309 225.589 87.3354 228.058 89.3054C232.307 92.7389 236.039 96.6227 239.771 100.563C241.838 102.702 243.848 104.953 245.628 107.317C247.81 110.244 249.82 113.227 251.772 116.323C253.667 119.363 255.504 122.402 256.997 125.611C258.375 128.538 259.581 131.577 260.902 134.504C262.05 137.037 262.682 139.739 263.543 142.384C264.117 144.129 264.462 145.987 264.978 147.788C265.782 150.658 266.242 153.585 266.701 156.512C267.218 159.664 267.505 162.816 267.907 165.912C268.366 169.852 268.251 173.792 268.136 177.732C268.079 180.265 267.964 182.798 267.62 185.275C267.218 187.977 267.103 190.678 266.529 193.324C266.184 194.956 265.725 196.589 265.266 198.165C264.921 199.347 264.576 200.585 264.289 201.823C263.945 203.287 263.543 204.694 263.026 206.101C262.165 208.465 261.304 210.885 260.385 213.25C258.835 217.19 257.112 221.073 254.987 224.845C253.035 228.334 251.026 231.768 248.729 235.033C246.662 238.016 244.308 240.774 241.953 243.532C238.336 247.697 234.546 251.75 230.412 255.409C227.426 258.054 224.326 260.587 220.938 262.782C218.411 264.415 215.885 265.991 213.359 267.567C210.258 269.537 206.813 270.944 203.54 272.632C201.071 273.871 198.487 274.884 195.903 275.841C193.951 276.573 191.999 277.192 190.046 277.811C188.496 278.317 186.888 278.768 185.338 279.218C184.247 279.556 183.099 279.893 181.893 280.006C180.974 280.062 179.998 280.344 179.137 280.625C177.816 281.075 176.323 280.794 175.117 281.526C175.06 281.582 174.945 281.526 174.83 281.582C171.787 281.976 168.801 282.314 165.701 282.201C165.241 282.201 164.724 282.258 164.265 282.314C164.265 282.314 159.097 282.708 158.236 282.708C156.858 282.708 155.48 282.708 154.102 282.708C150.485 282.652 146.867 282.201 143.307 281.807C141.527 281.638 139.805 281.413 138.082 281.019C136.704 280.738 135.268 280.625 133.948 280.119C133.144 279.837 132.225 279.725 131.364 279.499C129.01 278.88 126.656 278.092 124.359 277.361C121.947 276.573 119.536 275.672 117.124 274.884C115.688 274.377 114.253 273.814 112.818 273.139C110.98 272.238 109.143 271.507 107.305 270.55C105.353 269.48 103.401 268.411 101.506 267.285C99.3814 265.991 97.2569 264.64 95.2472 263.176C93.3524 261.769 91.4576 260.362 89.6776 258.842C87.8976 257.379 86.2898 255.746 84.395 254.395C82.6724 253.157 81.1795 251.581 79.7441 250.005C76.9305 246.909 74.0596 243.926 71.4757 240.661C70.0976 238.86 68.5473 237.172 67.1693 235.37C65.3893 233.006 63.8964 230.473 62.4035 227.94C61.4848 226.308 60.566 224.676 59.5899 223.044C58.1544 220.792 57.1209 218.315 56.0874 215.839C54.9964 213.193 54.1351 210.435 53.1015 207.733C52.3551 205.82 51.8383 203.906 51.0919 201.992C50.7474 201.148 50.6899 200.247 50.5177 199.403C50.288 198.108 49.9435 196.814 49.6564 195.575C49.3119 194.281 49.3693 192.874 48.7951 191.635C48.7377 191.579 48.7377 191.466 48.7377 191.354C48.7951 189.328 47.9338 187.414 48.0487 185.387C48.1061 184.431 48.1061 183.417 47.6467 182.461C47.4745 182.123 47.5319 181.729 47.5319 181.335C47.0725 179.027 47.0725 176.719 47.0725 174.13ZM193.549 152.122C193.377 152.178 193.204 152.178 193.09 152.234C191.252 153.698 189.242 154.992 187.348 156.343C186.257 157.131 184.993 157.638 184.247 158.764C183.73 158.764 183.386 159.101 183.041 159.383C181.376 160.621 179.653 161.747 177.988 162.985C177.414 163.435 176.495 163.604 176.208 164.392C175.979 164.449 175.749 164.392 175.692 164.674C174.141 165.349 172.935 166.588 171.557 167.432C171.098 167.713 170.983 168.164 171.213 168.67C171.959 170.134 172.246 171.71 172.304 173.342C172.361 175.087 172.246 176.776 171.787 178.464C171.27 179.759 170.753 181.166 169.835 182.179C168.112 184.149 166.39 186.119 163.748 187.132C162.944 187.414 161.968 187.526 161.394 188.258C160.648 188.652 160.935 189.328 160.935 189.89C160.877 209.422 160.82 229.01 160.82 248.542C160.82 248.936 160.82 249.273 160.877 249.667C160.935 249.949 161.164 250.005 161.394 249.949C161.509 250.005 161.681 250.118 161.796 250.118C164.667 250.174 167.481 249.611 170.294 249.217C172.304 248.936 174.256 248.26 176.208 247.81C178.907 247.191 181.606 246.403 184.19 245.333C189.3 243.307 194.295 240.943 198.946 238.072C202.162 236.046 205.205 233.851 208.076 231.374C210.086 229.629 212.095 227.772 213.99 225.858C216.574 223.212 218.871 220.398 221.11 217.471C223.464 214.375 225.417 210.998 227.197 207.565C228.402 205.201 229.436 202.78 230.412 200.304C231.158 198.333 231.79 196.251 232.422 194.281C232.709 193.437 232.996 192.48 233.111 191.579C233.226 190.284 233.628 188.99 233.915 187.752C234.317 186.063 234.431 184.318 234.776 182.629C235.063 181.166 235.063 179.646 235.293 178.183C235.465 176.888 235.408 176.832 234.087 176.832C230.642 176.832 227.197 176.832 223.751 176.832C223.12 176.832 222.431 176.776 221.914 177.001C220.938 177.395 220.134 177.17 219.273 176.888C216.804 176.1 216 172.835 217.952 171.203C218.756 170.528 219.617 170.077 220.766 170.134C225.187 170.19 229.666 170.19 234.087 170.19C235.293 170.19 235.522 169.965 235.293 168.895C234.718 166.419 235.006 163.886 234.374 161.409C234.029 160.115 233.915 158.707 233.57 157.413C233.111 155.443 232.709 153.473 232.077 151.503C231.618 149.983 231.158 148.463 230.642 147C229.379 143.735 228 140.527 226.278 137.431C223.981 133.322 221.512 129.382 218.469 125.779C215.655 122.402 212.612 119.306 209.167 116.492C206.698 114.466 204.171 112.496 201.53 110.695C198.142 108.387 194.582 106.36 190.793 104.728C188.094 103.546 185.338 102.477 182.639 101.407C179.941 100.338 177.184 99.4934 174.428 98.8179C171.73 98.1988 168.974 97.5796 166.16 97.467C165.528 97.467 164.897 97.3545 164.323 97.2419C163.232 97.0168 162.141 97.0168 161.05 97.0168C160.82 97.4108 160.877 97.8048 160.877 98.1425C160.877 103.321 160.877 108.443 160.877 113.621C160.877 114.072 160.877 114.578 160.82 115.029C160.648 116.548 158.294 117.956 156.858 117.393C155.021 116.661 154.504 115.929 154.446 113.959C154.446 109.907 154.446 105.798 154.446 101.745C154.446 100.45 154.446 99.0994 154.446 97.8048C154.446 97.1856 154.217 96.9605 153.585 97.0168C151.231 97.2419 148.819 97.4108 146.465 97.6359C146.35 97.6359 146.178 97.7485 146.063 97.7485C144.628 98.0299 143.192 98.4239 141.757 98.5928C140.608 98.7617 139.575 99.1557 138.426 99.3808C136.934 99.7185 135.498 100.394 134.005 100.788C131.651 101.463 129.412 102.42 127.172 103.377C124.187 104.616 121.373 106.079 118.559 107.655C115.803 109.231 112.932 110.751 110.521 112.833C106.788 115.929 102.941 118.912 99.6111 122.571C96.1085 126.399 92.7782 130.395 90.1944 134.842C88.3569 138.05 86.8066 141.371 85.3711 144.804C84.2802 147.394 83.5337 150.039 82.7299 152.685C82.5002 153.473 82.0982 154.261 82.0408 155.105C81.9834 156.4 81.5241 157.638 81.2944 158.933C80.8924 160.903 80.6053 162.873 80.3757 164.843C80.2034 166.194 80.2034 167.544 79.9163 168.895C79.6866 169.965 79.8589 170.134 81.0073 170.134C84.5673 170.134 88.1847 170.134 91.7447 170.077C92.7208 170.077 93.6395 169.965 94.6156 170.021C95.9937 170.077 96.855 170.809 97.3718 171.879C97.6589 172.554 98.3479 173.286 98.0034 174.074C97.6589 174.974 97.2569 175.875 96.1085 176.382C95.075 176.832 94.0989 177.001 93.0653 176.888C89.4479 176.55 85.7731 176.888 82.1557 176.776C79.5144 176.719 79.5144 176.776 79.9163 179.365C80.2608 181.56 80.4331 183.811 80.7776 186.063C81.0073 187.583 81.2944 189.102 81.6389 190.566C81.9834 192.254 82.5576 193.887 83.017 195.519C83.8782 198.502 85.0266 201.373 86.2898 204.244C88.0124 208.127 90.3092 211.786 92.6634 215.332C95.8214 220.117 99.6111 224.394 103.803 228.335C108.913 233.119 114.483 237.284 120.627 240.661C125.45 243.307 130.56 245.446 135.843 247.022C136.991 247.36 138.188 247.748 139.575 248.148C140.551 248.429 141.585 248.71 142.561 248.879C143.881 249.104 145.145 249.33 146.408 249.611C148.073 250.005 150.657 250.23 152.322 250.174C154.044 250.286 154.217 250.118 154.217 248.485C154.217 232.669 154.159 216.908 154.159 201.092C154.159 197.151 154.159 193.211 154.159 189.271C154.159 188.596 154.045 188.202 153.298 187.92C151.863 187.358 150.37 186.907 149.164 185.894C148.59 185.444 147.592 184.585 147.592 184.585C147.535 184.473 147.326 184.318 147.269 184.262C145.776 183.08 144.857 181.447 144.111 179.815C143.25 177.958 142.676 176.044 142.733 173.905C142.79 171.991 143.02 170.134 143.824 168.332C143.996 167.995 144.111 167.544 143.824 167.263C142.676 166.362 141.079 165.046 140.494 164.392H140.436C139.805 163.661 138.033 162.26 137.45 161.803C135.154 160.002 132.799 158.201 130.445 156.456C129.986 156.118 129.641 155.555 129.01 155.443L128.952 155.386C128.895 155.274 128.895 155.105 128.78 154.992C126.426 153.191 124.072 151.503 121.775 149.645C120.052 148.238 118.33 146.831 116.55 145.48C115.803 144.917 114.942 144.41 114.483 143.454C113.851 142.046 114.138 140.808 114.885 139.626C115.057 139.626 115.172 139.514 115.114 139.288C115.401 139.176 115.746 139.119 116.033 138.951C116.952 138.388 117.87 138.331 118.847 138.951C119.076 139.119 119.421 139.063 119.65 139.176C119.65 139.288 119.65 139.401 119.708 139.457C122.119 141.371 124.474 143.397 126.943 145.255C130.56 147.957 133.948 150.883 137.45 153.642C140.781 156.287 144.111 158.989 147.384 161.691C148.245 162.366 148.245 162.366 149.221 161.803C151.633 160.34 154.159 159.27 157.03 159.27C158.064 159.27 159.155 159.158 160.188 159.439C162.083 160.002 164.035 160.621 165.643 161.859C166.217 162.31 166.849 162.253 167.481 161.916C167.825 161.747 168.112 161.522 168.399 161.297C169.892 160.283 171.385 159.214 172.878 158.201C176.84 155.443 180.802 152.685 184.706 149.87C186.372 148.688 188.037 147.506 189.702 146.381C193.606 143.791 197.396 140.977 201.186 138.219C203.425 136.643 205.55 134.954 207.789 133.322C208.88 132.534 210.143 132.646 211.177 133.097C213.301 133.997 213.588 136.981 211.923 138.557C211.062 139.401 209.971 139.964 208.995 140.696C207.33 141.934 205.55 143.003 203.884 144.242C202.966 144.917 201.932 145.424 201.186 146.324C201.071 146.324 200.899 146.324 200.784 146.437C198.774 147.844 196.822 149.307 194.812 150.771C194.582 151.278 193.893 151.503 193.549 152.122ZM57.5802 189.328C58.097 189.496 58.6138 189.328 59.1306 189.215C62.1738 188.596 65.2744 188.371 68.4325 188.202C68.4325 188.483 68.6622 188.54 68.8918 188.652C70.2699 189.328 70.8441 190.51 70.6144 191.973C70.4421 192.874 69.4086 193.605 68.0305 193.718C67.6286 193.774 67.1692 193.774 66.7673 193.887C65.2744 194.393 63.7241 194.45 62.1738 194.787C60.3364 195.125 58.4415 195.463 56.6041 195.801C55.7428 195.969 55.7428 196.363 55.628 197.039C55.4557 198.277 56.2022 199.29 56.3744 200.416C56.5467 201.711 57.1209 202.893 57.4654 204.131C57.5228 204.356 57.6951 204.412 57.8673 204.412C58.786 204.412 59.7048 204.638 60.3938 203.793C61.3699 203.906 62.2312 203.343 63.0925 203.062C65.3893 202.386 67.5712 201.429 69.868 200.698C71.8202 200.078 72.5092 200.191 73.8299 201.88C74.0021 202.161 74.1744 202.386 74.3467 202.668C74.8634 203.568 74.6912 204.863 73.7725 205.369C72.9112 205.82 72.0499 206.326 71.0737 206.608C69.466 207.058 67.9157 207.565 66.3654 208.071C64.4706 208.69 62.6331 209.309 60.7383 209.872C59.5899 210.21 59.4751 210.379 59.877 211.336C61.0828 214.094 62.2886 216.796 63.6093 219.497C63.8964 220.06 64.1835 220.173 64.7002 220.117C65.1022 220.117 65.4467 219.948 65.7912 219.779C68.4325 218.428 71.1312 217.133 73.7725 215.839C74.2892 215.614 74.8634 215.445 75.2079 214.938C75.3228 214.938 75.495 214.994 75.6099 214.938C77.6196 213.812 79.7441 212.743 81.8686 211.73C82.8447 211.28 82.7873 211.28 82.3279 210.379C81.4092 208.747 80.4905 207.058 79.8015 205.369C78.7105 202.724 77.677 200.078 76.8157 197.32C76.1266 195.181 75.6673 193.042 75.1505 190.904C74.8634 189.609 74.6912 188.314 74.5189 187.02C74.1744 184.712 73.6002 182.461 73.5428 180.096C73.4854 179.196 73.5428 178.295 73.5428 177.451C73.5428 176.55 73.3705 176.438 72.4518 176.494C71.5331 176.55 70.6144 176.607 69.7531 176.607C64.6428 176.663 59.5325 176.776 54.4222 176.607C53.0441 176.55 52.8719 176.663 53.1015 178.014C53.3886 179.759 53.5609 181.56 53.5035 183.305C53.4461 185.219 54.1351 187.076 54.0777 189.046C54.0777 189.328 54.1351 189.665 54.4796 189.665C55.4557 189.89 56.6041 190.228 57.5802 189.328ZM246.604 177.001C245.341 176.888 244.135 176.888 242.872 177.001C241.724 176.944 241.666 176.944 241.666 177.901C241.666 178.689 241.724 179.477 241.724 180.265C241.551 181.166 241.494 182.01 241.666 182.911C241.035 183.361 241.149 184.093 241.149 184.712C241.207 186.569 240.633 188.258 240.346 190.059C240.116 191.298 239.944 192.592 239.484 193.774C239.14 194.9 238.795 195.969 238.451 197.095C237.819 199.009 237.188 200.979 236.498 202.836C235.982 204.187 235.637 205.538 234.948 206.833C234.374 207.959 233.857 209.084 233.226 210.154C232.594 211.223 232.824 211.786 234.029 212.293C234.087 212.293 234.144 212.293 234.144 212.349C236.786 213.644 239.484 214.826 242.068 216.233C244.537 217.584 247.121 218.766 249.246 220.623C249.877 221.186 250.509 220.961 250.911 220.173C252.002 218.259 252.806 216.176 253.724 214.206C254.184 213.25 254.7 212.349 255.045 211.279C255.332 210.379 255.389 210.379 254.586 210.097C253.38 209.647 252.231 209.253 251.026 208.803C249.016 208.071 246.949 207.396 244.939 206.664C243.848 206.27 242.815 205.932 241.781 205.482C240.862 205.088 240.346 204.018 240.747 203.174C241.953 200.698 242.987 199.91 245.915 200.81C246.949 201.148 247.867 201.823 249.016 201.654C249.533 202.048 251.198 202.668 252.059 202.724C252.174 202.836 252.346 202.836 252.461 202.78C252.518 202.949 252.576 203.174 252.806 203.174C254.298 203.456 255.562 204.244 257.055 204.863C257.169 204.3 257.801 203.906 257.629 203.23C257.858 202.893 257.916 202.499 257.858 202.105C258.031 202.048 258.203 201.936 258.26 201.767C258.547 200.191 259.007 198.615 259.466 197.095C259.753 196.026 259.466 195.688 258.318 195.519C256.825 195.35 255.332 195.238 253.782 194.9C251.485 194.393 249.131 194.112 246.777 193.662C245.973 193.493 244.997 193.324 244.652 192.48C243.676 190.116 245.054 188.089 247.523 188.202C249.188 188.258 250.853 188.54 252.461 188.877C254.815 189.384 257.227 189.102 259.524 189.834C259.638 189.89 259.811 189.834 259.926 189.89C260.385 189.89 260.615 189.778 260.787 189.215C261.361 187.47 261.246 185.613 261.533 183.811C261.82 181.954 261.706 180.096 261.763 178.183C261.82 176.832 261.763 176.776 260.327 176.832C260.213 176.832 260.155 176.888 260.04 176.888C258.203 176.776 256.423 176.776 254.586 176.888C254.011 176.776 253.437 176.776 252.863 176.888C251.887 176.776 250.911 176.776 249.935 176.888C248.844 176.888 247.753 176.888 246.604 177.001ZM160.705 90.206C163.059 90.4312 165.241 90.5437 167.423 90.7689C168.916 90.9377 170.352 91.1629 171.787 91.5006C173.108 91.8383 174.486 91.9509 175.806 92.2886C177.586 92.7952 179.424 93.1329 181.146 93.6958C184.477 94.8216 187.864 95.7784 191.022 97.3545C193.721 98.7054 196.535 99.8311 199.233 101.238C201.473 102.42 203.482 103.884 205.607 105.235C207.789 106.586 209.626 108.274 211.751 109.681C212.957 110.469 213.875 111.595 214.966 112.496C216.919 114.072 216.229 114.353 218.067 112.214C220.421 109.456 222.948 106.923 225.417 104.221C226.852 102.589 228.402 101.013 229.838 99.4371C230.068 99.2119 230.297 98.9868 230.01 98.5928C228.345 96.7353 226.565 94.9341 224.44 93.527C223.235 92.6826 223.177 92.7389 222.258 93.8647C220.88 95.5533 219.56 97.2982 218.124 98.9305C217.148 100 216.229 101.069 215.483 102.308C214.737 103.49 213.703 104.278 212.67 105.122C212.21 105.46 211.693 105.516 211.234 105.122C210.545 104.616 209.856 104.109 209.282 103.546C208.248 102.477 208.133 101.52 209.224 100.507C211.291 98.5365 212.899 96.2287 214.564 93.9773C215.77 92.4575 217.206 91.1066 218.182 89.3054C215.885 87.2791 213.301 85.5905 210.602 84.127C209.799 83.6767 208.937 83.8456 208.593 84.6899C207.904 86.2096 206.985 87.6168 206.181 89.0803C204.975 91.3318 203.712 93.6395 202.219 95.7221C201.415 96.8479 200.497 97.2419 199.291 96.8479C198.487 96.6227 197.913 95.9473 197.396 95.3281C196.822 94.6527 196.764 93.9772 197.166 93.2455C199.233 89.4743 201.186 85.6468 203.597 82.0444C204.286 80.9749 204.171 80.5809 202.966 80.0181C201.875 79.5115 200.784 78.9486 199.635 78.442C198.315 77.8792 196.937 77.3163 195.616 76.7534C194.755 76.4157 194.41 76.6408 194.066 77.4851C193.606 78.7235 193.262 80.0744 192.802 81.3127C191.769 84.127 190.85 86.9977 190.046 89.8683C189.817 90.7126 189.3 91.4443 188.496 91.7258C187.348 92.1198 186.314 91.6695 185.338 90.9377C184.477 90.3186 184.075 89.6432 184.247 88.5737C184.477 87.2228 184.993 85.8719 185.338 84.521C186.142 81.7067 187.118 78.9486 188.152 76.2468C188.668 74.8397 188.381 74.2205 186.888 73.8265C184.993 73.3762 183.156 72.8133 181.319 72.1942C180.859 72.0253 180.342 72.0816 180.342 72.6444C180.285 73.4888 179.768 74.2205 179.768 75.0648C179.711 76.5845 179.137 78.048 178.907 79.5678C178.677 80.9187 178.275 82.2133 178.103 83.5079C177.988 84.5773 177.414 85.5342 177.414 86.6599C177.414 87.1102 176.955 87.3917 176.668 87.6168C175.749 88.3485 173.912 88.3485 172.993 87.5605C172.189 86.8851 171.615 86.1534 171.787 84.9713C171.959 83.4516 172.304 81.9318 172.591 80.4121C172.821 79.3426 172.821 78.2732 173.108 77.26C173.624 75.4588 173.854 73.6013 174.256 71.8001C174.371 71.1247 174.084 70.9558 173.452 70.787C171.557 70.2804 169.548 70.393 167.653 70.0553C165.873 69.7175 164.035 69.8301 162.198 69.8301C161.107 69.8301 160.992 69.999 160.935 71.0684C160.935 71.2936 160.935 71.5187 160.935 71.7439C160.935 77.2037 160.935 82.6073 160.935 88.0671C160.705 88.8551 160.705 89.4743 160.705 90.206ZM110.521 80.9749C111.267 81.3689 111.382 81.9318 111.669 82.3821C113.794 85.7031 115.803 89.0803 117.526 92.5701C117.813 93.133 118.272 93.8084 118.043 94.5401C117.641 95.7784 116.722 96.5665 115.516 96.9042C114.368 97.2419 113.564 96.679 112.875 95.7784C111.784 94.4838 110.98 93.0204 110.176 91.5569C108.913 89.2491 107.765 86.8288 106.272 84.6336C105.755 83.8456 105.353 83.7893 104.549 84.1833C103.975 84.521 103.401 84.8025 102.827 85.1402C101.219 86.0971 99.8408 87.3354 98.1182 88.0671C97.3143 88.4048 97.2569 89.418 97.8885 90.206C99.3814 92.0635 100.989 93.8647 102.482 95.7784C103.63 97.2982 104.951 98.6491 105.927 100.281C106.272 100.844 106.788 101.463 106.674 102.195C106.559 103.265 104.721 104.672 103.688 104.784C102.252 104.953 101.334 104.222 100.587 103.208C98.7498 100.563 96.7401 98.0862 94.673 95.6659C94.0989 94.9904 93.5821 94.315 92.9505 93.6958C92.1466 92.9078 91.6298 92.9078 90.9408 93.5832C89.1608 95.2719 87.1511 96.679 85.4286 98.4239C84.7969 99.0994 84.797 99.7748 85.6008 100.113C85.9453 100.281 86.2324 100.563 86.4621 100.788C90.3092 104.672 94.0989 108.556 97.544 112.721C97.9459 113.227 98.2905 113.284 98.8072 112.89C99.4963 112.383 100.243 111.933 100.932 111.314C102.769 109.625 104.721 108.218 106.788 106.811C108.683 105.572 110.521 104.165 112.473 103.039C115.631 101.295 118.732 99.5497 122.062 98.1988C125.105 96.9605 128.148 95.6096 131.307 94.5964C133.374 93.921 135.498 93.2455 137.623 92.6826C140.379 91.9509 143.135 91.2755 145.891 90.7689C147.901 90.3749 150.025 90.0371 152.15 90.1497C152.552 90.1497 153.011 90.1497 153.413 90.1497C154.102 90.1497 154.389 89.8683 154.332 89.1929C154.332 89.024 154.332 88.7988 154.332 88.63C154.332 83.4516 154.332 78.2169 154.332 73.0385C154.332 72.363 154.332 71.7439 154.274 71.0684C154.217 70.3367 153.872 69.999 153.126 69.9427C152.839 69.9427 152.552 69.9427 152.265 69.9427C149.451 69.7175 146.752 70.5055 143.996 70.4493C143.192 70.4493 142.388 70.5618 141.642 70.8996C140.608 71.3499 140.379 71.6313 140.838 72.6444C141.068 73.2073 141.183 73.8265 141.24 74.3893C141.412 75.5714 141.699 76.7534 141.929 77.9354C142.274 79.6803 142.79 81.3689 142.963 83.1138C143.02 83.4516 143.077 83.733 143.25 84.0144C143.594 84.6336 143.594 85.309 143.422 85.9282C143.02 87.1102 141.297 88.0108 139.805 87.842C138.828 87.7294 137.393 86.4348 137.221 85.4216C136.876 83.4516 136.589 81.4815 136.072 79.5115C135.9 78.9486 135.498 78.442 135.498 77.8229C135.556 76.3031 135.039 74.8959 134.924 73.3762C134.866 72.7007 134.579 72.4756 133.948 72.4756C132.397 72.4756 130.962 72.9822 129.527 73.4325C128.78 73.6576 127.976 73.7702 127.287 74.2768C126.885 74.5582 126.368 74.8959 126.541 75.2899C127.057 76.4157 127.345 77.5977 127.747 78.7797C128.206 80.0744 128.723 81.369 129.125 82.7198C129.641 84.4647 130.101 86.1533 130.79 87.842C131.421 89.4743 130.847 90.7126 129.067 91.5569C127.746 92.1761 125.967 91.6695 125.277 90.3186C124.99 89.812 124.818 89.1929 124.646 88.63C124.187 87.1102 123.785 85.5905 123.153 84.127C122.349 82.157 121.603 80.1306 121.143 78.048C121.028 77.4851 120.799 77.0348 120.397 76.6971C119.995 76.3594 119.65 76.8097 119.248 76.9786C119.134 77.0348 119.076 77.0348 118.961 77.0348C116.148 78.1606 113.507 79.4552 110.521 80.9749ZM99.5537 233.794C98.9795 234.357 98.4053 234.808 97.9459 235.314C96.7401 236.721 95.4195 238.072 94.1563 239.423C91.5724 242.125 88.7589 244.545 86.1176 247.134C85.1989 248.035 85.1989 248.148 86.1176 248.992C87.7253 250.455 89.3331 251.975 90.9982 253.439C91.9169 254.283 92.204 254.227 93.0079 253.213C94.1563 251.75 95.3047 250.286 96.3956 248.823C97.7737 246.909 99.324 245.108 100.53 243.082C101.104 242.125 101.908 241.449 103.286 241.618C104.492 241.787 105.123 242.294 105.698 243.251C106.387 244.376 106.444 244.601 105.64 245.558C104.779 246.684 104.032 247.81 103.114 248.936C101.276 251.187 99.7834 253.72 97.7163 255.803C97.4292 256.084 97.1421 256.478 96.9698 256.816C96.7401 257.266 96.6827 257.66 97.3143 258.054C99.8408 259.743 102.367 261.431 104.951 263.064C106.042 263.739 106.099 263.739 106.731 262.613C107.363 261.375 107.937 260.08 108.569 258.842C109.717 256.478 110.98 254.114 112.473 251.919C113.794 250.005 114.999 249.724 117.009 251.187C118.1 251.975 118.157 252.594 117.583 253.833C117.468 254.114 117.354 254.339 117.239 254.564C115.287 258.279 113.564 262.05 111.382 265.653C111.152 265.991 111.152 266.328 111.669 266.553C112.588 267.004 113.449 267.623 114.368 268.073C116.09 268.917 117.87 269.705 119.65 270.494C120.684 270.944 120.799 270.944 121.201 269.931C121.373 269.424 121.603 268.974 121.717 268.467C122.234 266.328 122.981 264.302 123.555 262.163C124.014 260.474 124.646 258.786 125.163 257.097C125.392 256.309 125.967 255.859 126.77 255.803C128.493 255.69 129.584 256.703 130.617 257.885C130.847 258.11 130.847 258.448 130.732 258.673C130.273 259.349 130.33 260.137 130.101 260.812C129.125 263.739 128.148 266.666 127.23 269.593C127.057 270.1 126.77 270.606 126.77 271.169C126.713 272.182 126.885 272.407 127.804 272.689C129.01 273.083 130.216 273.477 131.479 273.814C132.11 273.983 132.742 274.321 133.374 274.377C134.522 274.546 134.752 274.434 134.924 273.364C135.096 272.295 135.441 271.282 135.67 270.212C136.13 267.792 136.704 265.371 137.278 262.951C137.565 261.713 137.967 260.474 139.46 259.912C140.551 259.461 141.47 259.63 142.331 260.249C143.02 260.812 143.135 261.544 143.02 262.388C142.848 263.795 142.503 265.146 142.331 266.553C142.159 268.411 141.642 270.212 141.355 272.07C141.183 273.083 141.125 274.096 141.068 275.165C141.068 275.616 141.183 276.01 141.757 276.01C143.307 276.122 144.857 276.685 146.408 276.629C146.867 276.629 147.326 276.741 147.843 276.854C149.681 277.135 151.518 277.248 153.413 277.135C154.159 277.079 154.446 276.741 154.389 276.066C154.389 275.785 154.389 275.503 154.389 275.222C154.389 270.212 154.389 265.203 154.389 260.193C154.389 259.405 154.389 258.617 154.389 257.829C154.389 257.21 154.217 256.816 153.47 256.872C153.298 256.872 153.068 256.872 152.896 256.872C150.37 256.928 147.843 256.816 145.374 256.253C143.365 255.803 141.24 255.634 139.23 255.071C137.795 254.677 136.302 254.395 134.866 253.889C133.603 253.439 132.34 252.876 131.077 252.482C128.436 251.637 125.852 250.624 123.325 249.498C120.914 248.429 118.502 247.191 116.205 245.896C114.196 244.77 112.301 243.476 110.406 242.181C108.626 240.999 106.903 239.761 105.238 238.354C104.032 237.34 102.597 236.665 101.563 235.483C101.104 234.807 100.243 234.47 99.5537 233.794ZM222.948 254.001C223.579 253.551 224.096 253.213 224.555 252.819C226.278 251.469 227.886 250.061 229.378 248.485C230.068 247.754 230.068 247.697 229.206 247.022C228.345 246.29 227.484 245.502 226.622 244.714C223.235 241.675 220.191 238.297 216.919 235.145C215.77 234.019 215.253 234.019 213.99 235.145C212.612 236.44 211.119 237.622 209.626 238.804C204.86 242.463 199.865 245.784 194.41 248.373C192.286 249.386 190.161 250.399 187.922 251.074C185.338 251.862 182.754 252.876 180.113 253.607C178.218 254.17 176.266 254.621 174.371 255.015C172.993 255.296 171.615 255.577 170.179 255.803C167.481 256.197 164.724 256.534 161.968 256.759C160.648 256.872 160.59 256.816 160.59 258.167C160.59 263.739 160.59 269.311 160.648 274.884C160.648 276.741 161.164 277.135 163.117 276.967C164.323 276.854 165.586 276.685 166.792 276.629C168.744 276.573 170.696 276.516 172.648 276.066C173.797 275.785 174.084 275.447 173.739 274.321C173.567 273.758 173.395 273.139 173.337 272.576C173.28 271.225 172.878 269.931 172.591 268.58C172.246 267.06 172.132 265.54 171.672 264.077C171.443 263.345 171.557 262.501 171.557 261.713C171.557 260.981 172.533 259.855 173.223 259.686C174.83 259.18 176.783 260.193 177.07 261.882C177.414 263.852 177.816 265.822 178.333 267.735C178.85 269.706 179.309 271.732 179.941 273.646C180.17 274.377 180.572 274.377 181.089 274.208C183.041 273.42 185.108 273.139 187.118 272.632C188.037 272.407 188.152 272.182 187.922 271.282C187.118 268.242 186.027 265.259 185.166 262.219C184.936 261.319 184.764 260.418 184.477 259.518C183.788 257.604 184.879 256.028 186.946 255.803C188.324 255.69 189.357 256.253 189.644 257.491C189.989 258.786 190.506 260.08 190.85 261.375C191.597 263.964 192.688 266.441 193.319 269.086C193.492 269.874 194.008 269.987 194.87 269.931C195.501 269.874 196.018 269.48 196.592 269.311C198.544 268.58 200.497 267.904 202.334 266.835C203.195 266.328 203.425 265.653 202.966 264.865C202.047 263.289 201.473 261.6 200.497 260.024C199.233 257.998 198.085 255.859 197.109 253.607C196.937 253.27 196.764 252.876 196.994 252.538C197.396 251.975 197.798 251.356 198.315 250.962C199.291 250.118 200.095 250.174 201.128 250.906C201.702 251.3 202.104 251.862 202.449 252.482C204.286 255.746 206.124 258.955 207.961 262.219C208.65 263.401 208.937 263.458 210.028 262.782C212.325 261.375 214.622 259.968 216.861 258.561C217.78 257.998 217.952 257.322 217.263 256.534C215.77 254.846 214.392 253.045 213.071 251.187C211.693 249.273 210.2 247.416 209.052 245.333C208.708 244.714 208.535 244.095 208.822 243.588C209.454 242.406 210.43 241.449 211.808 241.224C212.899 241.055 213.646 241.843 214.22 242.688C214.277 242.744 214.335 242.8 214.392 242.913C216.574 245.783 218.526 248.823 220.823 251.637C221.684 252.369 222.316 253.157 222.948 254.001ZM257.112 141.878C256.595 140.076 255.849 138.444 255.389 136.755C255.16 135.855 254.643 135.067 254.356 134.223C254.184 133.772 253.896 133.603 253.495 133.772C251.829 134.448 250.107 134.898 248.499 135.686C246.604 136.643 244.709 137.487 242.757 138.331C241.207 139.007 239.771 138.725 238.623 137.487C238.106 136.924 237.532 136.249 237.762 135.405C238.106 134.166 238.68 133.097 240.001 132.59C243.331 131.239 246.489 129.494 249.992 128.425C251.14 128.087 251.313 127.412 250.796 126.399C250.107 125.104 249.36 123.809 248.729 122.459C248.442 121.839 248.04 121.614 247.408 121.727C246.949 121.783 246.547 121.952 246.087 122.177C242.183 124.429 238.451 127.074 234.489 129.269C233.57 129.776 232.651 130.395 231.733 130.902C231.446 131.07 231.101 131.352 230.929 131.633C230.757 131.915 231.158 132.084 231.273 132.309C231.733 133.322 232.249 134.335 232.766 135.348C234.087 137.994 235.465 140.639 236.384 143.397C237.245 145.987 238.278 148.519 238.91 151.165C239.542 153.698 240.346 156.174 240.518 158.764C240.518 159.045 240.575 159.327 240.633 159.608C241.092 161.634 241.264 163.661 241.494 165.687C241.666 166.869 241.551 168.051 241.666 169.177C241.724 170.134 241.838 170.134 242.815 170.19C243.102 170.19 243.389 170.19 243.676 170.19C248.671 170.19 253.609 170.19 258.605 170.19C259.351 170.19 260.155 170.19 260.902 170.19C261.418 170.19 261.648 170.021 261.648 169.458C261.591 167.207 261.648 164.955 261.304 162.704C261.189 161.972 260.902 161.691 260.098 161.691C257.112 161.747 254.241 162.422 251.255 162.366C251.026 162.366 250.796 162.479 250.566 162.591C249.188 162.985 247.81 162.929 246.432 162.873C245.8 162.873 245.456 162.422 245.169 162.085C244.193 160.734 244.882 158.032 246.432 157.356C247.064 157.075 247.81 156.737 248.442 156.737C251.198 156.737 253.896 155.893 256.71 156.062C257.514 156.118 258.318 156.006 259.122 156.062C259.753 156.118 259.926 155.837 259.926 155.218C259.983 152.91 259.351 150.715 258.777 148.519C258.662 148.069 258.375 147.957 257.916 148.069C257.169 148.238 256.48 148.576 255.734 148.688C253.495 149.082 251.485 150.039 249.36 150.771C248.155 151.165 247.006 151.615 245.686 151.615C244.422 151.615 243.159 150.658 242.757 149.42C242.355 148.294 242.987 147.169 244.078 146.324C245.054 145.593 246.202 145.199 247.293 144.917C250.681 143.96 253.839 142.891 257.112 141.878ZM63.0925 170.19C65.8486 170.19 68.6621 170.19 71.4183 170.19C71.7628 170.19 72.1073 170.19 72.3944 170.19C72.7389 170.19 72.9686 170.021 72.9112 169.683C72.7963 168.389 73.4279 167.207 73.3705 165.912C73.3131 163.998 74.117 162.141 74.0596 160.227C74.0596 160.115 74.0596 160.058 74.117 159.946C74.7486 158.539 74.6912 157.019 74.9783 155.555C75.3802 153.529 75.7821 151.503 76.4137 149.645C77.275 147.112 77.9066 144.523 78.9976 142.046C80.3183 139.119 81.524 136.08 83.1318 133.266C83.4763 132.646 84.2802 132.14 83.9357 131.408C83.5912 130.733 82.7299 130.564 82.0982 130.226C79.1699 128.763 76.2989 127.13 73.4279 125.385C71.5905 124.26 69.868 122.853 67.8009 122.008C66.8822 121.614 66.8247 121.614 66.4228 122.571C66.3654 122.74 66.2506 122.909 66.1357 123.078C65.5615 124.26 64.9299 125.442 64.3557 126.68C64.0112 127.412 64.126 127.693 64.9299 128.031C67.3989 129.1 69.8679 130.282 72.2221 131.577C73.4854 132.252 74.806 132.872 75.9544 133.716C76.2989 133.997 76.8157 134.166 76.8731 134.729C77.0454 135.967 76.8731 137.149 75.897 138.05C74.9209 138.951 73.6576 139.007 72.5667 138.557C70.8441 137.881 69.1789 136.981 67.5138 136.193C65.906 135.405 64.2983 134.617 62.748 133.828C62.2312 133.603 61.7144 133.547 61.1977 133.66C60.6235 133.772 60.8531 134.335 60.6809 134.673C59.9919 135.967 59.7048 137.375 59.188 138.725C58.8435 139.57 58.3841 140.414 58.3267 141.371C58.2693 141.934 58.3267 142.44 58.9009 142.609C60.6809 143.228 62.4609 143.735 64.2409 144.298C65.5041 144.692 66.7673 145.03 67.9731 145.536C68.4325 145.705 68.8344 145.874 69.2938 145.987C71.9351 146.775 72.7963 149.026 70.9589 151.277C70.4422 151.897 69.8105 152.234 68.777 151.84C67.9157 151.503 66.9396 151.334 66.0783 151.052C64.4706 150.602 62.8054 150.152 61.1977 149.645C59.877 149.195 58.4415 148.913 57.1783 148.351C56.8912 148.238 56.3744 148.125 56.2596 148.688C55.6854 150.658 55.3983 152.685 55.0538 154.655C54.8815 155.555 55.3409 156.006 56.317 156.062C57.0635 156.118 57.8673 156.174 58.6138 156.118C61.5422 156.118 64.4131 156.625 67.2841 156.85C69.9828 157.075 70.9015 159.552 69.466 161.859C68.9492 162.704 68.088 162.929 67.1693 162.929C65.3893 162.985 63.6667 162.535 61.8867 162.366C60.7957 162.253 59.7048 162.253 58.6138 162.028C57.2932 161.803 55.9725 161.859 54.5945 161.747C54.0203 161.691 53.6757 161.972 53.5609 162.479C53.4461 162.985 53.3312 163.492 53.3312 163.998C53.2738 165.687 53.2164 167.376 53.2164 169.064C53.2164 170.19 53.2164 170.19 54.4222 170.19C57.3506 170.19 60.2215 170.19 63.0925 170.19ZM84.7395 216.739C84.4524 216.796 84.0505 216.739 83.7634 217.133C83.4763 217.584 82.9595 217.753 82.5002 217.978C81.0073 218.822 79.457 219.61 77.9641 220.398C75.897 221.467 73.8873 222.762 71.8202 223.775C70.6718 224.338 69.6383 225.014 68.4325 225.52C67.4564 225.97 67.3989 226.364 68.088 227.209C68.5473 227.772 68.9492 228.335 69.3512 228.897C70.9015 231.149 72.2796 233.569 74.0021 235.708C74.806 236.665 75.6099 237.622 76.3563 238.579C77.5047 240.098 78.7105 241.562 80.0886 242.913C80.9499 243.757 81.2944 243.701 82.2131 242.857C82.615 242.519 82.8447 242.069 83.1892 241.675C85.5434 239.479 87.8976 237.228 90.2518 235.089C91.8021 233.682 93.4672 232.387 95.0176 230.98C95.8789 230.192 95.8214 230.023 95.075 229.179C93.5821 227.49 92.1466 225.745 90.6537 224C88.9885 221.974 87.4382 219.835 86.1176 217.584C85.7731 217.021 85.4286 216.683 84.7395 216.739ZM230.297 216.908C229.895 216.683 229.723 217.077 229.436 217.302C229.091 217.64 228.862 218.034 228.575 218.428C226.852 220.961 225.129 223.494 223.235 225.858C222.258 227.096 221.225 228.278 220.191 229.517C219.502 230.417 219.56 230.699 220.421 231.318C223.12 233.344 225.474 235.764 228.058 237.96C229.895 239.592 231.56 241.449 233.34 243.082C234.374 243.982 234.546 243.926 235.465 242.913C237.762 240.324 239.944 237.678 242.011 234.92C243.618 232.781 245.169 230.699 246.604 228.447C248.097 226.083 247.925 226.59 245.8 225.351C241.379 222.818 236.9 220.342 232.479 217.753C231.848 217.302 231.216 216.796 230.297 216.908ZM70.0402 116.042C70.6144 116.042 70.7867 116.379 71.0737 116.548C75.8395 119.363 80.3182 122.571 84.8544 125.723C85.486 126.117 85.9453 126.849 86.7492 126.849C87.6679 126.849 87.7253 125.836 88.1847 125.273C89.9647 123.021 91.6872 120.77 93.5821 118.631C94.4434 117.618 94.4434 117.562 93.4672 116.605C90.7111 113.903 88.0124 111.201 85.3137 108.443C84.1079 107.205 82.8447 106.079 81.5815 104.897C80.6628 104.053 79.7441 104.109 78.9402 105.01C78.2512 105.854 77.5047 106.698 76.8157 107.542C74.6337 110.244 72.6241 113.227 70.0402 116.042ZM220.479 117.618C221.742 119.194 223.005 120.657 224.211 122.177C225.302 123.528 226.393 124.879 227.541 126.23C227.828 126.567 228.058 126.849 228.689 126.399C229.264 125.892 230.01 125.498 230.642 125.048C234.948 121.839 239.484 118.969 244.02 116.211C244.537 115.929 244.595 115.704 244.25 115.254C243.044 113.621 241.781 111.989 240.575 110.301C239.255 108.499 237.589 107.036 236.384 105.122C236.154 104.784 235.809 104.559 235.465 104.278C234.604 103.715 234.317 103.715 233.685 104.503C232.881 105.629 231.848 106.529 230.929 107.486C227.541 110.92 224.096 114.184 220.479 117.618ZM165.93 173.905C165.93 169.74 161.854 165.518 157.834 165.631C153.126 165.8 149.394 168.952 149.279 173.792C149.164 177.62 153.7 182.123 157.777 182.123C161.968 182.123 166.16 177.958 165.93 173.905Z" fill="#E9CC97"/>
<path d="M157.487 169.513C160.129 169.175 161.736 171.877 161.909 173.904C162.081 175.705 159.956 178.069 157.717 178.069C155.305 178.013 153.353 176.38 153.296 174.185C153.123 171.877 155.076 169.232 157.487 169.513Z" fill="#E9CC97"/>
</svg>
